<?xml version="1.0" encoding="utf-8"?>
<!-- Generator: Adobe Illustrator 16.0.0, SVG Export Plug-In . SVG Version: 6.00 Build 0)  -->
<!DOCTYPE svg PUBLIC "-//W3C//DTD SVG 1.1//EN" "http://www.w3.org/Graphics/SVG/1.1/DTD/svg11.dtd">
<svg version="1.1" id="Layer_1" xmlns="http://www.w3.org/2000/svg" xmlns:xlink="http://www.w3.org/1999/xlink" x="0px" y="0px"
	 width="174.104px" height="51.5px" viewBox="0 0 174.104 51.5" enable-background="new 0 0 174.104 51.5" xml:space="preserve">
<g>
	<path fill="#FFFFFF" stroke="#FFFFFF" stroke-width="0.15" stroke-miterlimit="10" d="M97.823,26.27h4.104
		c0.127-0.03,0.225-0.011,0.289,0.057c0.064,0.061,0.099,0.135,0.099,0.217c0,0.084-0.031,0.16-0.092,0.223
		c-0.062,0.066-0.148,0.082-0.271,0.055h-12.43c-0.118,0.027-0.208,0.013-0.272-0.055c-0.057-0.062-0.085-0.139-0.085-0.223
		c0-0.082,0.028-0.156,0.085-0.217c0.064-0.066,0.154-0.086,0.272-0.057h4.128v-2.586c0-0.33-0.146-0.492-0.438-0.492h-1.798
		c-0.332,0-0.562-0.07-0.688-0.195c-0.13-0.129-0.194-0.369-0.194-0.717v-3.04c0-0.342,0.064-0.576,0.194-0.705
		c0.127-0.131,0.355-0.193,0.688-0.193h1.685c0.298,0,0.444-0.171,0.444-0.51v-2.142h-3.525c-0.135,0-0.229-0.02-0.27-0.053
		c-0.049-0.039-0.072-0.107-0.072-0.208c0-0.111,0.025-0.187,0.077-0.231c0.052-0.037,0.14-0.06,0.265-0.06H101.4
		c0.131,0,0.218,0.022,0.269,0.06c0.052,0.045,0.081,0.12,0.081,0.231c0,0.101-0.026,0.169-0.073,0.208
		c-0.045,0.033-0.139,0.053-0.275,0.053h-3.659v2.153c0,0.344,0.144,0.511,0.438,0.511h1.896c0.332,0,0.559,0.064,0.688,0.192
		c0.132,0.132,0.194,0.366,0.194,0.709v3.024c0,0.348-0.062,0.588-0.194,0.717c-0.129,0.125-0.354,0.195-0.688,0.195h-1.812
		c-0.292,0-0.439,0.162-0.439,0.492v2.587H97.823z M94.245,26.27h2.983v-2.738c0-0.59,0.297-0.881,0.896-0.881h1.812
		c0.119,0,0.218-0.051,0.302-0.146c0.085-0.096,0.125-0.219,0.125-0.365v-2.748c0-0.332-0.142-0.498-0.427-0.498h-1.921
		c-0.33,0-0.559-0.063-0.682-0.187c-0.126-0.126-0.188-0.362-0.188-0.71v-2.309h-3.01v2.279c0,0.351-0.064,0.588-0.194,0.72
		c-0.129,0.13-0.355,0.192-0.692,0.192h-1.698c-0.285,0-0.428,0.167-0.428,0.496v2.763c0,0.146,0.038,0.27,0.124,0.365
		c0.083,0.096,0.186,0.146,0.304,0.146h1.796c0.35,0,0.589,0.059,0.715,0.184c0.12,0.127,0.184,0.355,0.184,0.682V26.27z"/>
	<path fill="#FFFFFF" stroke="#FFFFFF" stroke-width="0.15" stroke-miterlimit="10" d="M119.803,26.073
		c0,0.391-0.071,0.656-0.22,0.805c-0.149,0.144-0.39,0.224-0.733,0.224h-9.706c-0.331,0-0.569-0.08-0.712-0.224
		c-0.143-0.147-0.214-0.414-0.214-0.805V16.12c0-0.387,0.07-0.651,0.211-0.788c0.134-0.136,0.376-0.208,0.715-0.208h9.706
		c0.352,0,0.598,0.075,0.741,0.223c0.141,0.146,0.212,0.404,0.212,0.773V26.073z M119.239,26.073v-9.982
		c0-0.292-0.13-0.438-0.401-0.438h-9.692c-0.251,0-0.37,0.146-0.37,0.438v9.982c0,0.143,0.034,0.256,0.11,0.342
		c0.071,0.088,0.159,0.133,0.26,0.133h9.692C119.109,26.548,119.239,26.391,119.239,26.073z M113.785,20.165h-3.911
		c-0.173,0-0.263-0.078-0.263-0.236c0-0.153,0.09-0.231,0.263-0.231h3.911v-0.873h-2.28c-0.35,0-0.593-0.056-0.729-0.162
		c-0.142-0.11-0.208-0.301-0.208-0.568v-0.663c0-0.274,0.066-0.476,0.208-0.596c0.138-0.118,0.381-0.18,0.729-0.18h5.083
		c0.342,0,0.583,0.062,0.725,0.18c0.143,0.12,0.212,0.321,0.212,0.596v0.662c0,0.268-0.065,0.458-0.207,0.568
		c-0.138,0.106-0.379,0.162-0.729,0.162h-2.253v0.873h3.897c0.094-0.021,0.156,0,0.204,0.054c0.048,0.057,0.072,0.119,0.072,0.188
		c0,0.067-0.024,0.129-0.072,0.178c-0.048,0.053-0.11,0.066-0.204,0.047h-3.897v0.793h2.653c0.312,0,0.535,0.059,0.669,0.189
		c0.133,0.129,0.2,0.359,0.2,0.688v2.654c0,0.332-0.067,0.564-0.2,0.695c-0.134,0.137-0.363,0.203-0.695,0.203h-5.927
		c-0.309,0-0.534-0.066-0.663-0.203c-0.129-0.131-0.192-0.373-0.192-0.725v-2.625c0-0.328,0.063-0.559,0.192-0.688
		c0.129-0.131,0.354-0.189,0.663-0.189h2.75V20.165L113.785,20.165z M117.35,24.46v-2.625c0-0.135-0.043-0.246-0.115-0.334
		c-0.071-0.09-0.172-0.135-0.302-0.135h-5.788c-0.274,0-0.413,0.16-0.413,0.469v2.625c0,0.15,0.039,0.268,0.119,0.352
		c0.078,0.09,0.176,0.133,0.294,0.133h5.788C117.209,24.944,117.35,24.784,117.35,24.46z M117.014,18.01v-0.48
		c0-0.268-0.166-0.4-0.496-0.4h-4.929c-0.146,0-0.269,0.037-0.358,0.11c-0.092,0.074-0.142,0.169-0.142,0.29v0.48
		c0,0.26,0.167,0.388,0.5,0.388h4.929c0.146,0,0.268-0.036,0.36-0.108C116.973,18.214,117.014,18.123,117.014,18.01z
		 M115.968,23.274c0,0.293-0.08,0.508-0.229,0.639c-0.153,0.135-0.415,0.201-0.777,0.201h-2.075c-0.331,0-0.56-0.059-0.678-0.172
		c-0.12-0.115-0.18-0.336-0.18-0.668v-0.207c0-0.34,0.062-0.574,0.189-0.697c0.12-0.125,0.346-0.188,0.667-0.188h2.195
		c0.331,0,0.562,0.064,0.688,0.195c0.131,0.127,0.196,0.357,0.196,0.689v0.208H115.968z M115.469,23.23v-0.162
		c0-0.314-0.149-0.473-0.443-0.473h-2.068c-0.285,0-0.431,0.158-0.431,0.473v0.162c0,0.141,0.042,0.254,0.128,0.348
		c0.08,0.094,0.179,0.137,0.303,0.137h2.068C115.32,23.714,115.469,23.552,115.469,23.23z"/>
	<path fill="#FFFFFF" stroke="#FFFFFF" stroke-width="0.15" stroke-miterlimit="10" d="M130.32,16.752
		c0.129,0,0.191,0.085,0.191,0.249c0,0.158-0.062,0.236-0.191,0.236h-5.206c-0.14,0-0.208-0.078-0.208-0.236
		c0-0.164,0.068-0.249,0.208-0.249H130.32z M129.823,20.607c0.081,0,0.136,0.016,0.163,0.053c0.01,0.021,0.022,0.051,0.036,0.1
		c0.014,0.043,0.014,0.094,0.006,0.143c-0.01,0.051-0.029,0.094-0.062,0.131c-0.033,0.039-0.082,0.057-0.144,0.057h-4.089
		c-0.137,0-0.208-0.08-0.208-0.236c0-0.166,0.071-0.246,0.208-0.246h4.089V20.607z M129.834,18.672c0.138,0,0.209,0.065,0.209,0.195
		c0,0.117-0.016,0.197-0.048,0.233c-0.035,0.036-0.087,0.054-0.161,0.054h-4.06c-0.147,0-0.223-0.076-0.223-0.235
		c0-0.167,0.074-0.247,0.223-0.247H129.834z M129.928,25.95c0,0.35-0.053,0.588-0.17,0.717c-0.114,0.125-0.316,0.19-0.603,0.19
		h-2.788c-0.293,0-0.499-0.065-0.616-0.19c-0.11-0.129-0.169-0.367-0.169-0.717v-2.404c0-0.432,0.059-0.715,0.169-0.846
		c0.117-0.135,0.34-0.201,0.655-0.201h2.67c0.336,0,0.566,0.066,0.682,0.207c0.117,0.139,0.17,0.414,0.17,0.84V25.95L129.928,25.95z
		 M129.42,25.866v-2.402c0-0.156-0.036-0.281-0.111-0.373c-0.073-0.092-0.162-0.139-0.272-0.139h-2.558
		c-0.11,0-0.2,0.047-0.274,0.139c-0.075,0.092-0.109,0.217-0.109,0.373v2.402c0,0.146,0.038,0.273,0.113,0.373
		c0.079,0.104,0.171,0.152,0.271,0.152h2.558C129.292,26.393,129.42,26.216,129.42,25.866z M128.504,16.089
		c0,0.038-0.011,0.08-0.038,0.123c-0.026,0.049-0.062,0.078-0.117,0.092c-0.046,0.013-0.107,0.006-0.168-0.021
		c-0.067-0.029-0.136-0.101-0.211-0.221c-0.112-0.187-0.24-0.374-0.395-0.573c-0.148-0.195-0.317-0.404-0.503-0.615
		c-0.101-0.102-0.152-0.194-0.152-0.283c0-0.083,0.03-0.15,0.082-0.185c0.059-0.037,0.123-0.058,0.201-0.058
		s0.193,0.102,0.354,0.303l0.59,0.789C128.39,15.765,128.504,15.981,128.504,16.089z M133.631,24.747
		c-1.141-1.059-1.945-2.305-2.417-3.74h-0.258c-0.159,0-0.236-0.09-0.236-0.275c0-0.195,0.083-0.293,0.247-0.293h4.809
		c0.56,0,0.84,0.217,0.84,0.65c0,0.357-0.204,0.906-0.61,1.643c-0.197,0.369-0.434,0.719-0.688,1.051
		c-0.259,0.33-0.548,0.646-0.867,0.953c0.81,0.646,1.818,1.207,3.024,1.684c0.221,0.086,0.329,0.193,0.329,0.33
		c0,0.203-0.083,0.307-0.247,0.307c-0.15,0-0.587-0.18-1.312-0.539c-0.736-0.367-1.47-0.842-2.196-1.422
		c-0.607,0.496-1.321,0.926-2.144,1.297c-0.79,0.365-1.262,0.555-1.405,0.555c-0.131,0-0.217-0.037-0.256-0.1
		c-0.043-0.064-0.06-0.127-0.06-0.193c0-0.146,0.144-0.262,0.437-0.344C131.716,25.987,132.72,25.464,133.631,24.747z
		 M135.881,18.494c0,0.184,0.024,0.324,0.083,0.412c0.058,0.104,0.127,0.168,0.208,0.195c0.045,0.01,0.122,0.017,0.227,0.021
		c0.105,0.005,0.249,0,0.422-0.008h0.944c0.169,0,0.257,0.095,0.257,0.278c0,0.185-0.063,0.283-0.192,0.304
		c-0.062,0.007-0.174,0.01-0.329,0.01c-0.157,0-0.356,0-0.593,0c-0.512,0-0.845-0.03-1.011-0.093
		c-0.36-0.124-0.537-0.509-0.537-1.16v-2.266c0-0.276-0.038-0.455-0.113-0.539c-0.075-0.083-0.239-0.123-0.494-0.123h-1.685
		c-0.276,0-0.437,0.051-0.474,0.151c-0.046,0.102-0.065,0.293-0.065,0.565c0,0.586-0.062,1.104-0.181,1.543
		c-0.128,0.473-0.412,0.976-0.855,1.509c-0.461,0.545-0.788,0.819-0.98,0.819c-0.046-0.012-0.094-0.031-0.142-0.066
		c-0.043-0.031-0.073-0.072-0.094-0.117c-0.018-0.048-0.018-0.101,0-0.168c0.021-0.063,0.072-0.129,0.165-0.192
		c0.278-0.249,0.516-0.49,0.711-0.729c0.2-0.241,0.358-0.494,0.484-0.768c0.127-0.271,0.215-0.561,0.268-0.869
		c0.059-0.31,0.085-0.655,0.085-1.041c0-0.426,0.05-0.729,0.16-0.908c0.104-0.175,0.296-0.265,0.57-0.265h2.308
		c0.352,0,0.577,0.061,0.691,0.191c0.107,0.127,0.163,0.38,0.163,0.761L135.881,18.494L135.881,18.494z M131.751,21.007
		c0.427,1.297,1.185,2.432,2.282,3.398c0.659-0.609,1.167-1.25,1.519-1.922s0.523-1.104,0.523-1.295
		c0-0.064-0.023-0.113-0.071-0.143c-0.044-0.027-0.141-0.039-0.285-0.039L131.751,21.007L131.751,21.007z"/>
	<path fill="#FFFFFF" stroke="#FFFFFF" stroke-width="0.15" stroke-miterlimit="10" d="M149.008,16.727
		c0.147,0,0.223,0.067,0.223,0.206c0,0.139-0.018,0.223-0.047,0.255c-0.033,0.03-0.09,0.049-0.176,0.049h-6.059
		c-0.148,0-0.224-0.084-0.224-0.25c0-0.173,0.074-0.26,0.224-0.26H149.008z M148.194,20.566c0.083,0,0.141,0.018,0.168,0.053
		c0.035,0.037,0.055,0.125,0.055,0.264c0,0.127-0.072,0.193-0.223,0.193h-4.47c-0.158,0-0.238-0.066-0.238-0.193
		c0-0.139,0.017-0.227,0.049-0.264c0.031-0.035,0.095-0.053,0.189-0.053H148.194z M148.208,18.617c0.157,0,0.234,0.087,0.234,0.264
		c0,0.174-0.077,0.258-0.234,0.258h-4.444c-0.169,0-0.248-0.084-0.248-0.258c0-0.177,0.079-0.264,0.248-0.264H148.208z
		 M148.471,26.019c0,0.342-0.066,0.584-0.208,0.725c-0.136,0.143-0.376,0.215-0.719,0.215h-3.091c-0.341,0-0.585-0.068-0.726-0.209
		c-0.145-0.137-0.213-0.383-0.213-0.73v-2.43c0-0.441,0.071-0.744,0.22-0.906c0.146-0.16,0.404-0.24,0.774-0.24h2.938
		c0.389,0,0.652,0.08,0.802,0.24c0.146,0.162,0.222,0.465,0.222,0.906L148.471,26.019L148.471,26.019z M147.918,25.95v-2.473
		c0-0.166-0.036-0.297-0.117-0.391c-0.079-0.1-0.188-0.148-0.325-0.148h-2.966c-0.133,0-0.234,0.049-0.312,0.148
		c-0.081,0.094-0.121,0.225-0.121,0.391v2.473c0,0.166,0.04,0.295,0.121,0.393c0.077,0.099,0.18,0.147,0.312,0.147h2.966
		C147.771,26.49,147.918,26.311,147.918,25.95z M146.801,16.162c-0.009,0.025-0.03,0.068-0.062,0.114
		c-0.031,0.053-0.076,0.089-0.126,0.117c-0.05,0.028-0.112,0.028-0.188-0.004c-0.071-0.038-0.156-0.12-0.247-0.257
		c-0.186-0.24-0.359-0.463-0.528-0.663c-0.176-0.204-0.335-0.384-0.479-0.537c-0.157-0.176-0.202-0.314-0.144-0.417
		c0.058-0.099,0.151-0.15,0.278-0.15c0.073,0,0.204,0.108,0.389,0.328c0.093,0.105,0.197,0.22,0.303,0.361
		c0.116,0.141,0.238,0.287,0.372,0.44C146.657,15.81,146.801,16.03,146.801,16.162z M151.95,18.783v-4.255
		c-0.027-0.114-0.009-0.206,0.054-0.26c0.067-0.054,0.14-0.083,0.218-0.083c0.075,0,0.146,0.029,0.205,0.09
		c0.062,0.061,0.082,0.146,0.062,0.253v4.255h2.913c0.086,0,0.149,0.025,0.195,0.07c0.047,0.044,0.067,0.138,0.067,0.273
		c0,0.149-0.086,0.225-0.264,0.225h-2.913v7.633c0,0.129-0.019,0.215-0.062,0.267c-0.038,0.043-0.112,0.065-0.211,0.065
		c-0.104,0-0.173-0.016-0.212-0.049c-0.032-0.031-0.054-0.127-0.054-0.283v-7.633h-2.885c-0.104,0-0.169-0.021-0.209-0.058
		c-0.033-0.036-0.054-0.128-0.054-0.274c0-0.156,0.087-0.236,0.263-0.236H151.95z"/>
</g>
<g>
	<path fill="#FFFFFF" d="M91.211,33.722l-0.646,1.762c-0.025,0.09-0.034,0.156-0.019,0.197c0.019,0.043,0.104,0.068,0.253,0.08
		l0.564,0.043v0.201c-0.06-0.004-0.171-0.01-0.341-0.01c-0.173-0.006-0.403-0.006-0.691-0.006c-0.293,0-0.523,0-0.693,0.006
		c-0.171,0-0.284,0.006-0.342,0.01v-0.201l0.528-0.043c0.188-0.014,0.314-0.119,0.387-0.311l1.933-5.007h0.344l1.857,4.95
		c0.039,0.096,0.074,0.155,0.109,0.192c0.031,0.032,0.094,0.063,0.185,0.092l0.461,0.144v0.19c-0.104-0.004-0.247-0.012-0.432-0.014
		c-0.185-0.009-0.379-0.011-0.593-0.011h-0.597c-0.37,0-0.683,0.011-0.934,0.023v-0.191l0.549-0.084
		c0.074-0.012,0.138-0.024,0.185-0.039c0.043-0.016,0.071-0.03,0.088-0.059c0.013-0.025,0.018-0.055,0.013-0.092
		c-0.007-0.037-0.021-0.082-0.043-0.141l-0.622-1.687h-1.503V33.722z M92.598,33.421l-0.605-1.807l-0.663,1.807H92.598z"/>
	<path fill="#FFFFFF" d="M95.278,36.022V35.89l0.317-0.076c0.111-0.033,0.184-0.078,0.216-0.133
		c0.031-0.055,0.046-0.152,0.046-0.297v-1.611c0-0.113-0.023-0.192-0.066-0.25c-0.045-0.053-0.15-0.092-0.319-0.121l-0.177-0.033
		l0.009-0.143c0.217-0.062,0.436-0.156,0.646-0.277c0.214-0.125,0.384-0.293,0.511-0.504h0.155l0.032,0.992
		c0.043-0.1,0.095-0.193,0.148-0.274c0.056-0.08,0.134-0.171,0.229-0.271c0.097-0.103,0.188-0.171,0.271-0.201
		c0.09-0.033,0.169-0.054,0.241-0.054c0.141,0,0.257,0.044,0.349,0.121c0.094,0.084,0.142,0.205,0.142,0.369
		c0,0.147-0.037,0.271-0.107,0.354c-0.068,0.086-0.169,0.131-0.298,0.131c-0.066,0-0.125-0.016-0.178-0.047
		c-0.049-0.031-0.094-0.065-0.137-0.104c-0.041-0.039-0.082-0.071-0.122-0.104c-0.039-0.028-0.076-0.047-0.11-0.047
		c-0.05,0-0.097,0.021-0.141,0.062c-0.046,0.045-0.088,0.096-0.127,0.157c-0.038,0.062-0.071,0.129-0.099,0.205
		c-0.022,0.074-0.04,0.146-0.046,0.215c-0.005,0.058-0.012,0.105-0.016,0.15c-0.006,0.047-0.006,0.088,0,0.127v1.174
		c0,0.14,0.022,0.23,0.077,0.275c0.048,0.041,0.147,0.082,0.3,0.119l0.43,0.086v0.133c-0.135-0.012-0.286-0.018-0.453-0.018
		c-0.169-0.006-0.34-0.006-0.515-0.006h-0.159c-0.184,0-0.366,0.002-0.546,0.01C95.602,36.001,95.436,36.011,95.278,36.022z"/>
	<path fill="#FFFFFF" d="M99.611,31.94h0.15c0,0.15,0.003,0.299,0.005,0.449c0.005,0.15,0.005,0.299,0.005,0.449l1.082-0.023v0.359
		l-1.082,0.033v1.586c0,0.281,0.023,0.494,0.08,0.635c0.053,0.145,0.184,0.209,0.388,0.197c0.087,0,0.181-0.012,0.286-0.037
		c0.102-0.025,0.216-0.084,0.347-0.182l0.076,0.119c-0.095,0.147-0.229,0.283-0.408,0.406c-0.175,0.129-0.413,0.188-0.71,0.188
		c-0.298,0-0.512-0.076-0.642-0.229c-0.133-0.152-0.197-0.429-0.197-0.826v-1.84c-0.079,0-0.155,0-0.228,0.004
		c-0.071,0-0.149,0.004-0.229,0.004c-0.077,0-0.116-0.029-0.119-0.092c-0.004-0.062,0.033-0.109,0.113-0.144
		c0.115-0.052,0.224-0.104,0.322-0.16s0.178-0.114,0.237-0.176c0.062-0.062,0.148-0.152,0.263-0.277
		C99.462,32.265,99.551,32.114,99.611,31.94z"/>
	<path fill="#FFFFFF" d="M104.147,35.483v-4.24c0-0.096-0.018-0.162-0.047-0.203c-0.029-0.039-0.084-0.061-0.163-0.066l-0.613-0.076
		v-0.184c0.056,0.016,0.645,0.025,1.764,0.025c0.331,0,0.595-0.01,0.791-0.025v0.193l-0.513,0.066
		c-0.111,0.012-0.19,0.028-0.239,0.055c-0.048,0.022-0.071,0.096-0.071,0.215v4.24c0,0.104,0.014,0.168,0.042,0.194
		c0.026,0.029,0.083,0.046,0.168,0.05l0.613,0.043v0.252c-0.11-0.013-0.272-0.021-0.482-0.023c-0.212-0.008-0.476-0.01-0.794-0.01
		c-0.319,0-0.585,0.002-0.793,0.01c-0.211,0.002-0.373,0.012-0.484,0.023v-0.252l0.521-0.033c0.117-0.019,0.195-0.037,0.239-0.057
		C104.124,35.661,104.147,35.599,104.147,35.483z"/>
	<path fill="#FFFFFF" d="M110.388,36.013c-0.291-0.014-0.604-0.023-0.935-0.023c-0.329,0-0.64,0.011-0.932,0.023v-0.176l0.361-0.066
		c0.123-0.018,0.184-0.125,0.184-0.324v-1.422c0-0.137-0.007-0.258-0.021-0.367c-0.013-0.106-0.041-0.2-0.083-0.272
		c-0.041-0.071-0.102-0.129-0.18-0.168c-0.08-0.036-0.183-0.058-0.312-0.058c-0.151,0-0.305,0.041-0.458,0.125
		c-0.154,0.084-0.299,0.193-0.426,0.328v1.925c0,0.086,0.067,0.149,0.2,0.184l0.348,0.117v0.177
		c-0.097-0.013-0.192-0.019-0.291-0.019c-0.099-0.007-0.232-0.007-0.406-0.007h-0.27c-0.185,0-0.361,0-0.529,0.007
		c-0.168,0-0.301,0.006-0.396,0.019v-0.177l0.396-0.084c0.113-0.026,0.168-0.11,0.168-0.25v-1.666c0-0.172-0.036-0.289-0.104-0.351
		c-0.068-0.063-0.196-0.106-0.377-0.137V33.2c0.091-0.02,0.188-0.051,0.291-0.088c0.105-0.039,0.207-0.084,0.304-0.145
		c0.1-0.061,0.19-0.127,0.276-0.203c0.087-0.08,0.156-0.17,0.206-0.279h0.185v0.789c0.188-0.192,0.39-0.35,0.608-0.467
		c0.222-0.113,0.431-0.172,0.626-0.172c0.325,0,0.581,0.098,0.76,0.285c0.186,0.195,0.273,0.48,0.273,0.865v1.633
		c0,0.105,0.016,0.186,0.044,0.238c0.024,0.053,0.083,0.09,0.168,0.113l0.318,0.065v0.177H110.388z"/>
	<path fill="#FFFFFF" d="M111.941,31.94h0.151c0,0.15,0.002,0.299,0.003,0.449c0.005,0.15,0.006,0.299,0.006,0.449l1.083-0.023
		v0.359l-1.083,0.033v1.586c0,0.281,0.025,0.494,0.081,0.635c0.053,0.145,0.184,0.209,0.392,0.197c0.082,0,0.176-0.012,0.278-0.037
		c0.104-0.025,0.222-0.084,0.351-0.182l0.072,0.119c-0.094,0.147-0.229,0.283-0.407,0.406c-0.174,0.129-0.411,0.188-0.708,0.188
		c-0.298,0-0.511-0.076-0.643-0.229c-0.131-0.152-0.197-0.429-0.197-0.826v-1.84c-0.078,0-0.153,0-0.227,0.004
		c-0.071,0-0.148,0.004-0.227,0.004c-0.079,0-0.12-0.029-0.124-0.092c-0.001-0.062,0.037-0.109,0.114-0.144
		c0.116-0.052,0.226-0.104,0.324-0.16c0.097-0.056,0.177-0.114,0.237-0.176c0.064-0.062,0.148-0.152,0.263-0.277
		C111.792,32.265,111.878,32.114,111.941,31.94z"/>
	<path fill="#FFFFFF" d="M116.62,33.966h-2.191c-0.011,0.057-0.019,0.098-0.021,0.125s-0.004,0.07-0.004,0.125
		c0,0.197,0.028,0.375,0.082,0.537c0.058,0.164,0.137,0.303,0.237,0.42c0.1,0.119,0.223,0.209,0.364,0.275
		c0.142,0.062,0.305,0.096,0.482,0.096c0.197,0,0.376-0.033,0.542-0.096c0.165-0.066,0.341-0.188,0.524-0.365l0.034,0.158
		c-0.078,0.123-0.167,0.238-0.266,0.346c-0.099,0.104-0.208,0.199-0.332,0.279c-0.123,0.082-0.263,0.145-0.42,0.189
		c-0.155,0.045-0.333,0.065-0.527,0.065c-0.225,0-0.428-0.041-0.612-0.123c-0.187-0.086-0.349-0.205-0.482-0.358
		c-0.133-0.15-0.236-0.337-0.312-0.55c-0.075-0.215-0.113-0.446-0.113-0.696c0-0.259,0.039-0.492,0.12-0.709
		c0.081-0.209,0.196-0.396,0.344-0.552c0.143-0.157,0.319-0.278,0.526-0.366c0.207-0.089,0.438-0.132,0.688-0.132
		c0.218,0,0.409,0.037,0.571,0.104c0.162,0.066,0.297,0.16,0.407,0.281c0.106,0.119,0.192,0.26,0.252,0.424
		C116.574,33.604,116.608,33.78,116.62,33.966z M114.47,33.706h0.989c0.112,0,0.198-0.016,0.259-0.045
		c0.058-0.027,0.076-0.096,0.062-0.211c-0.017-0.154-0.062-0.291-0.138-0.404c-0.074-0.115-0.203-0.176-0.383-0.176
		c-0.201,0-0.368,0.072-0.506,0.217C114.62,33.229,114.525,33.437,114.47,33.706z"/>
	<path fill="#FFFFFF" d="M117.098,36.022V35.89l0.318-0.076c0.111-0.033,0.184-0.078,0.215-0.133
		c0.03-0.055,0.047-0.152,0.047-0.297v-1.611c0-0.113-0.022-0.192-0.069-0.25c-0.042-0.053-0.149-0.092-0.316-0.121l-0.177-0.033
		l0.008-0.143c0.22-0.062,0.436-0.156,0.647-0.277c0.211-0.125,0.383-0.293,0.512-0.504h0.152l0.03,0.992
		c0.048-0.1,0.099-0.193,0.153-0.274c0.057-0.08,0.13-0.171,0.228-0.271c0.096-0.103,0.185-0.171,0.272-0.201
		c0.087-0.033,0.166-0.054,0.24-0.054c0.14,0,0.254,0.044,0.347,0.121c0.094,0.084,0.141,0.205,0.141,0.369
		c0,0.147-0.034,0.271-0.105,0.354c-0.07,0.086-0.17,0.131-0.299,0.131c-0.068,0-0.125-0.016-0.175-0.047
		c-0.055-0.031-0.101-0.065-0.142-0.104c-0.04-0.039-0.081-0.071-0.122-0.104c-0.039-0.028-0.075-0.047-0.108-0.047
		c-0.049,0-0.1,0.021-0.142,0.062c-0.047,0.045-0.088,0.096-0.127,0.157c-0.04,0.062-0.069,0.129-0.096,0.205
		c-0.026,0.074-0.04,0.146-0.047,0.215c-0.005,0.058-0.012,0.105-0.02,0.15c-0.003,0.047-0.003,0.088,0,0.127v1.174
		c0,0.14,0.027,0.23,0.076,0.275c0.05,0.041,0.151,0.082,0.305,0.119l0.428,0.086v0.133c-0.134-0.012-0.285-0.018-0.455-0.018
		c-0.167-0.006-0.336-0.006-0.509-0.006h-0.16c-0.188,0-0.368,0.002-0.547,0.01C117.422,36.001,117.254,36.011,117.098,36.022z"/>
	<path fill="#FFFFFF" d="M122.147,36.022c-0.092-0.012-0.219-0.021-0.387-0.022c-0.167-0.009-0.363-0.011-0.586-0.011
		c-0.228,0-0.423,0.002-0.591,0.011c-0.166,0.002-0.297,0.012-0.387,0.022v-0.186l0.378-0.084c0.174-0.033,0.26-0.135,0.26-0.307
		v-1.584c0-0.133-0.031-0.23-0.101-0.291c-0.066-0.062-0.201-0.117-0.404-0.16v-0.17c0.104-0.021,0.207-0.051,0.312-0.096
		c0.107-0.041,0.212-0.09,0.312-0.142c0.102-0.056,0.192-0.11,0.278-0.177c0.081-0.059,0.146-0.127,0.201-0.2
		c0.032,0,0.063,0.002,0.096,0.006c0.03,0.002,0.059,0.002,0.088,0.002v2.832c0,0.082,0.012,0.146,0.038,0.188
		c0.023,0.041,0.074,0.07,0.146,0.091l0.345,0.09L122.147,36.022L122.147,36.022z M121.266,30.858c0.128,0,0.239,0.043,0.33,0.135
		c0.092,0.096,0.14,0.207,0.14,0.334c0,0.113-0.048,0.215-0.143,0.307c-0.096,0.094-0.208,0.139-0.338,0.139
		c-0.131,0-0.234-0.043-0.318-0.133c-0.084-0.086-0.127-0.189-0.127-0.312c0-0.128,0.046-0.238,0.135-0.335
		C121.035,30.901,121.142,30.858,121.266,30.858z"/>
	<path fill="#FFFFFF" d="M127.56,36.022V35.89l0.318-0.076c0.11-0.033,0.184-0.078,0.216-0.133c0.029-0.055,0.045-0.152,0.045-0.297
		v-1.611c0-0.113-0.021-0.192-0.066-0.25c-0.045-0.053-0.151-0.092-0.32-0.121l-0.175-0.033l0.007-0.143
		c0.219-0.062,0.436-0.156,0.647-0.277c0.214-0.125,0.384-0.293,0.513-0.504h0.152l0.032,0.992c0.046-0.1,0.096-0.193,0.148-0.274
		c0.059-0.08,0.133-0.171,0.229-0.271c0.096-0.102,0.187-0.171,0.273-0.201c0.085-0.033,0.165-0.054,0.236-0.054
		c0.142,0,0.258,0.044,0.35,0.121c0.095,0.084,0.142,0.205,0.142,0.369c0,0.147-0.037,0.271-0.106,0.354
		c-0.07,0.086-0.169,0.131-0.298,0.131c-0.068,0-0.127-0.016-0.177-0.047s-0.098-0.065-0.139-0.104
		c-0.043-0.039-0.084-0.071-0.125-0.104c-0.035-0.028-0.071-0.047-0.106-0.047c-0.05,0-0.097,0.021-0.141,0.062
		c-0.049,0.045-0.088,0.096-0.129,0.157s-0.069,0.129-0.097,0.205c-0.022,0.074-0.038,0.146-0.047,0.215
		c-0.004,0.058-0.01,0.105-0.016,0.15c-0.007,0.047-0.007,0.088,0,0.127v1.174c0,0.14,0.023,0.23,0.075,0.275
		c0.051,0.041,0.151,0.082,0.303,0.119l0.429,0.086v0.133c-0.135-0.012-0.285-0.018-0.454-0.018c-0.17-0.006-0.338-0.006-0.51-0.006
		h-0.163c-0.184,0-0.367,0.002-0.544,0.01C127.886,36.001,127.714,36.011,127.56,36.022z"/>
	<path fill="#FFFFFF" d="M133.616,31.444c0-0.133-0.019-0.229-0.05-0.283c-0.034-0.051-0.101-0.09-0.195-0.111l-0.521-0.1v-0.221
		c0.186,0.008,0.401,0.008,0.651-0.002c0.249-0.009,0.506-0.021,0.771-0.03c0.267-0.012,0.526-0.022,0.782-0.03
		c0.255-0.009,0.477-0.013,0.667-0.013c0.431,0.006,0.832,0.066,1.205,0.177c0.373,0.111,0.695,0.279,0.971,0.5
		c0.273,0.223,0.49,0.496,0.646,0.824c0.155,0.326,0.233,0.703,0.233,1.129c0,0.4-0.077,0.773-0.23,1.109s-0.363,0.623-0.63,0.856
		c-0.267,0.241-0.573,0.428-0.927,0.56c-0.354,0.131-0.73,0.19-1.133,0.188l-1.362-0.035h-1.731v-0.211l0.604-0.144
		c0.09-0.016,0.151-0.053,0.191-0.106c0.035-0.058,0.054-0.164,0.054-0.319v-3.738H133.616z M134.497,34.979
		c0,0.092,0.021,0.178,0.066,0.267c0.043,0.084,0.114,0.166,0.206,0.233c0.093,0.07,0.207,0.127,0.35,0.17
		c0.139,0.041,0.303,0.062,0.494,0.062c0.337,0,0.636-0.057,0.898-0.174c0.262-0.113,0.485-0.277,0.669-0.49
		c0.182-0.213,0.317-0.469,0.411-0.773c0.093-0.301,0.14-0.643,0.14-1.022c0-0.356-0.056-0.683-0.168-0.968
		c-0.112-0.286-0.275-0.524-0.489-0.721c-0.214-0.197-0.471-0.35-0.774-0.453c-0.307-0.108-0.65-0.16-1.039-0.16
		c-0.212,0-0.365,0.009-0.452,0.023c-0.089,0.018-0.153,0.039-0.195,0.066c-0.077,0.064-0.115,0.197-0.115,0.404L134.497,34.979
		L134.497,34.979z"/>
	<path fill="#FFFFFF" d="M142.366,33.966h-2.188c-0.012,0.057-0.021,0.098-0.022,0.125c0,0.027-0.004,0.07-0.004,0.125
		c0,0.197,0.026,0.375,0.084,0.537c0.056,0.164,0.135,0.303,0.235,0.42c0.1,0.119,0.223,0.209,0.362,0.275
		c0.145,0.062,0.308,0.096,0.485,0.096c0.194,0,0.376-0.033,0.541-0.096c0.165-0.066,0.341-0.188,0.525-0.365l0.032,0.158
		c-0.075,0.123-0.166,0.238-0.265,0.346c-0.099,0.104-0.21,0.199-0.331,0.279c-0.124,0.082-0.263,0.145-0.421,0.189
		c-0.156,0.045-0.333,0.065-0.528,0.065c-0.225,0-0.43-0.041-0.612-0.123c-0.186-0.086-0.346-0.205-0.479-0.358
		c-0.136-0.15-0.24-0.337-0.316-0.55c-0.072-0.215-0.111-0.446-0.111-0.696c0-0.259,0.041-0.492,0.121-0.709
		c0.082-0.209,0.193-0.396,0.342-0.552c0.144-0.157,0.32-0.278,0.527-0.366c0.208-0.089,0.438-0.132,0.688-0.132
		c0.217,0,0.407,0.037,0.571,0.104c0.164,0.066,0.298,0.16,0.408,0.281c0.107,0.119,0.191,0.26,0.251,0.424
		C142.323,33.604,142.357,33.78,142.366,33.966z M140.217,33.706h0.99c0.112,0,0.199-0.016,0.257-0.045
		c0.062-0.027,0.078-0.096,0.063-0.211c-0.018-0.154-0.063-0.291-0.14-0.404c-0.075-0.115-0.202-0.176-0.381-0.176
		c-0.203,0-0.369,0.072-0.507,0.217C140.369,33.229,140.272,33.437,140.217,33.706z"/>
	<path fill="#FFFFFF" d="M145.029,33.679c-0.015-0.082-0.044-0.17-0.086-0.258c-0.044-0.094-0.099-0.174-0.165-0.25
		c-0.066-0.074-0.146-0.139-0.234-0.188c-0.09-0.053-0.194-0.078-0.311-0.078c-0.163,0-0.3,0.033-0.413,0.102
		c-0.112,0.066-0.167,0.188-0.167,0.354c0,0.162,0.077,0.285,0.232,0.373c0.151,0.088,0.367,0.172,0.649,0.256
		c0.347,0.113,0.587,0.25,0.721,0.423c0.136,0.168,0.202,0.36,0.202,0.588c0,0.194-0.038,0.362-0.111,0.508
		c-0.077,0.144-0.178,0.261-0.303,0.353c-0.128,0.094-0.273,0.16-0.438,0.203c-0.165,0.039-0.337,0.061-0.518,0.061
		c-0.2,0-0.391-0.018-0.565-0.051c-0.177-0.039-0.329-0.094-0.458-0.168l-0.083-0.996h0.183c0.08,0.299,0.208,0.535,0.38,0.699
		c0.173,0.166,0.384,0.248,0.629,0.248c0.183,0,0.337-0.045,0.464-0.14c0.129-0.094,0.19-0.228,0.19-0.407
		c0-0.16-0.061-0.291-0.185-0.388c-0.122-0.095-0.319-0.181-0.585-0.263c-0.398-0.108-0.679-0.245-0.838-0.407
		c-0.16-0.164-0.238-0.384-0.238-0.653c0-0.152,0.035-0.289,0.106-0.406c0.074-0.123,0.167-0.224,0.287-0.306
		c0.117-0.079,0.254-0.144,0.41-0.188c0.158-0.041,0.319-0.062,0.488-0.062c0.171,0,0.339,0.021,0.495,0.054
		c0.157,0.03,0.291,0.084,0.4,0.149l0.055,0.841h-0.195V33.679z"/>
	<path fill="#FFFFFF" d="M147.819,36.022c-0.089-0.012-0.218-0.021-0.386-0.022c-0.169-0.009-0.365-0.011-0.589-0.011
		c-0.226,0-0.42,0.002-0.587,0.011c-0.171,0.002-0.297,0.012-0.388,0.022v-0.186l0.378-0.084c0.173-0.033,0.262-0.135,0.262-0.307
		v-1.584c0-0.133-0.033-0.23-0.102-0.291c-0.066-0.062-0.202-0.117-0.404-0.16v-0.17c0.103-0.021,0.203-0.051,0.312-0.096
		c0.104-0.041,0.211-0.09,0.309-0.142c0.104-0.056,0.196-0.11,0.279-0.177c0.082-0.059,0.151-0.127,0.201-0.2
		c0.033,0,0.065,0.002,0.097,0.006c0.03,0.002,0.061,0.002,0.088,0.002v2.832c0,0.082,0.015,0.146,0.037,0.188
		c0.025,0.041,0.073,0.07,0.147,0.091l0.345,0.09V36.022L147.819,36.022z M146.935,30.858c0.13,0,0.24,0.043,0.334,0.135
		c0.091,0.096,0.139,0.207,0.139,0.334c0,0.113-0.048,0.215-0.144,0.307c-0.096,0.094-0.206,0.139-0.334,0.139
		c-0.129,0-0.238-0.043-0.32-0.133c-0.083-0.086-0.128-0.189-0.128-0.312c0-0.128,0.047-0.238,0.136-0.335
		C146.707,30.901,146.813,30.858,146.935,30.858z"/>
	<path fill="#FFFFFF" d="M149.564,35.964c-0.212,0-0.399-0.037-0.564-0.115c-0.165-0.074-0.305-0.178-0.416-0.311
		c-0.111-0.131-0.196-0.289-0.257-0.473c-0.059-0.188-0.089-0.388-0.089-0.607c0-0.279,0.046-0.525,0.135-0.746
		c0.09-0.219,0.211-0.4,0.361-0.551c0.152-0.146,0.328-0.258,0.526-0.338s0.409-0.119,0.632-0.119c0.158,0,0.297,0.012,0.412,0.035
		c0.118,0.021,0.216,0.047,0.296,0.076c0.094,0.024,0.173,0.061,0.233,0.1l0.521-0.312l0.076,0.025v3.186
		c0,0.211-0.043,0.41-0.126,0.592c-0.085,0.181-0.199,0.341-0.352,0.476c-0.146,0.134-0.325,0.24-0.531,0.317
		c-0.205,0.076-0.436,0.117-0.681,0.117c-0.309,0-0.555-0.021-0.74-0.065c-0.184-0.045-0.323-0.103-0.419-0.168
		c-0.096-0.067-0.157-0.142-0.188-0.226c-0.032-0.078-0.045-0.153-0.045-0.221c0-0.111,0.031-0.197,0.101-0.252
		c0.067-0.057,0.152-0.084,0.259-0.084c0.105,0,0.187,0.018,0.233,0.053c0.053,0.039,0.091,0.082,0.119,0.137
		c0.027,0.052,0.051,0.111,0.072,0.177c0.019,0.062,0.051,0.123,0.096,0.176c0.045,0.056,0.107,0.101,0.188,0.136
		c0.083,0.034,0.198,0.055,0.35,0.055c0.298,0,0.521-0.09,0.676-0.268c0.152-0.183,0.23-0.462,0.23-0.841v-0.935
		c-0.031,0.125-0.078,0.242-0.137,0.361c-0.06,0.117-0.134,0.219-0.224,0.309c-0.091,0.091-0.197,0.164-0.318,0.222
		C149.872,35.935,149.728,35.964,149.564,35.964z M150.674,34.183c0-0.139-0.01-0.281-0.029-0.42
		c-0.018-0.139-0.054-0.264-0.107-0.373c-0.055-0.109-0.134-0.199-0.234-0.27c-0.104-0.07-0.241-0.105-0.41-0.105
		c-0.101,0-0.201,0.021-0.304,0.062c-0.105,0.043-0.196,0.113-0.278,0.211c-0.08,0.1-0.146,0.227-0.198,0.387
		c-0.05,0.158-0.073,0.355-0.073,0.594c0,0.164,0.016,0.328,0.044,0.48c0.03,0.154,0.077,0.285,0.14,0.402
		c0.062,0.108,0.144,0.199,0.245,0.268c0.098,0.064,0.218,0.102,0.353,0.102c0.133,0,0.256-0.037,0.36-0.113
		c0.105-0.069,0.194-0.17,0.27-0.286c0.071-0.121,0.127-0.261,0.166-0.423c0.04-0.155,0.061-0.321,0.061-0.489v-0.026H150.674z"/>
	<path fill="#FFFFFF" d="M156.016,36.013c-0.292-0.014-0.604-0.023-0.932-0.023c-0.331,0-0.643,0.011-0.936,0.023v-0.176
		l0.362-0.066c0.125-0.018,0.186-0.125,0.186-0.324v-1.422c0-0.137-0.006-0.258-0.021-0.367c-0.015-0.106-0.041-0.2-0.083-0.272
		c-0.043-0.071-0.104-0.129-0.183-0.168c-0.079-0.036-0.183-0.058-0.31-0.058c-0.152,0-0.306,0.041-0.46,0.125
		c-0.155,0.084-0.296,0.193-0.423,0.328v1.925c0,0.086,0.066,0.149,0.201,0.184l0.347,0.117v0.177
		c-0.099-0.013-0.194-0.019-0.292-0.019c-0.101-0.007-0.233-0.007-0.407-0.007h-0.27c-0.185,0-0.359,0-0.53,0.007
		c-0.166,0-0.299,0.006-0.395,0.019v-0.177l0.395-0.084c0.113-0.026,0.171-0.11,0.171-0.25v-1.666c0-0.172-0.035-0.289-0.105-0.351
		c-0.068-0.063-0.196-0.106-0.374-0.137V33.2c0.09-0.02,0.187-0.051,0.289-0.088c0.104-0.039,0.204-0.084,0.304-0.145
		c0.098-0.061,0.188-0.127,0.275-0.203c0.086-0.08,0.157-0.17,0.206-0.279h0.187v0.789c0.185-0.192,0.387-0.35,0.608-0.467
		c0.22-0.113,0.429-0.172,0.625-0.172c0.325,0,0.576,0.098,0.761,0.285c0.184,0.195,0.271,0.48,0.271,0.865v1.633
		c0,0.105,0.015,0.186,0.045,0.238c0.025,0.053,0.081,0.09,0.167,0.113l0.318,0.065L156.016,36.013L156.016,36.013z"/>
</g>
<circle fill="#ED1E27" cx="124.972" cy="34.38" r="1.16"/>
<g>
	<g>
		<defs>
			<rect id="SVGID_89_" x="18.088" y="14.648" width="55.993" height="20.931"/>
		</defs>
		<clipPath id="SVGID_2_">
			<use xlink:href="#SVGID_89_"  overflow="visible"/>
		</clipPath>
		<rect x="60.511" y="18.087" clip-path="url(#SVGID_2_)" fill="#FFFFFF" width="4.15" height="17.634"/>
	</g>
	<g>
		<defs>
			<rect id="SVGID_91_" x="18.088" y="14.648" width="55.993" height="20.931"/>
		</defs>
		<clipPath id="SVGID_4_">
			<use xlink:href="#SVGID_91_"  overflow="visible"/>
		</clipPath>
		<rect x="60.511" y="14.467" clip-path="url(#SVGID_4_)" fill="#FFFFFF" width="13.07" height="4.263"/>
	</g>
	<g>
		<defs>
			<rect id="SVGID_93_" x="18.088" y="14.648" width="55.993" height="20.931"/>
		</defs>
		<clipPath id="SVGID_6_">
			<use xlink:href="#SVGID_93_"  overflow="visible"/>
		</clipPath>
		<g id="XMLID_5_" clip-path="url(#SVGID_6_)">
			<g>
				<path fill="#FFFFFF" d="M55.37,20.856c0.174,3.767-1.389,6.351-4.557,7.323c-0.397,0.117-0.808,0.212-1.217,0.281l3.318,7.12
					l-3.692,0.101l-4.777-10.236v-0.012c0.778-0.021,1.546-0.042,2.324-0.075c0.712-0.031,1.444-0.087,2.142-0.247
					c2.089-0.554,3.129-1.965,3.025-4.02c-0.102-1.971-1.174-3.325-3.338-3.466c-2.532-0.156-5.086,0.08-7.744,0.152l-0.001-0.036
					l-1.446-3.093c3.714-0.137,7.301-0.483,10.86-0.19C53.561,14.747,55.211,17.243,55.37,20.856z"/>
			</g>
		</g>
	</g>
	<g>
		<defs>
			<rect id="SVGID_95_" x="18.088" y="14.648" width="55.993" height="20.931"/>
		</defs>
		<clipPath id="SVGID_8_">
			<use xlink:href="#SVGID_95_"  overflow="visible"/>
		</clipPath>
		
			<line clip-path="url(#SVGID_8_)" fill="none" stroke="#FFFFFF" stroke-width="0.5" stroke-miterlimit="10" x1="47.243" y1="35.999" x2="37.149" y2="14.467"/>
	</g>
	<g>
		<defs>
			<rect id="SVGID_97_" x="18.088" y="14.648" width="55.993" height="20.931"/>
		</defs>
		<clipPath id="SVGID_10_">
			<use xlink:href="#SVGID_97_"  overflow="visible"/>
		</clipPath>
		
			<line clip-path="url(#SVGID_10_)" fill="none" stroke="#FFFFFF" stroke-width="0.25" stroke-miterlimit="10" x1="30.843" y1="20.523" x2="23.738" y2="35.61"/>
	</g>
	<g>
		<defs>
			<rect id="SVGID_99_" x="18.088" y="14.648" width="55.993" height="20.931"/>
		</defs>
		<clipPath id="SVGID_12_">
			<use xlink:href="#SVGID_99_"  overflow="visible"/>
		</clipPath>
		
			<line clip-path="url(#SVGID_12_)" fill="none" stroke="#FFFFFF" stroke-width="0.25" stroke-miterlimit="10" x1="65.601" y1="17.564" x2="65.601" y2="35.735"/>
	</g>
	<g>
		<defs>
			<rect id="SVGID_101_" x="18.088" y="14.648" width="55.993" height="20.931"/>
		</defs>
		<clipPath id="SVGID_14_">
			<use xlink:href="#SVGID_101_"  overflow="visible"/>
		</clipPath>
		
			<line clip-path="url(#SVGID_14_)" fill="none" stroke="#FFFFFF" stroke-width="0.25" stroke-miterlimit="10" x1="48.375" y1="35.999" x2="38.281" y2="14.467"/>
	</g>
	<g>
		<defs>
			<rect id="SVGID_103_" x="18.088" y="14.648" width="55.993" height="20.931"/>
		</defs>
		<clipPath id="SVGID_16_">
			<use xlink:href="#SVGID_103_"  overflow="visible"/>
		</clipPath>
		
			<line clip-path="url(#SVGID_16_)" fill="none" stroke="#FFFFFF" stroke-width="0.5" stroke-miterlimit="10" x1="32.07" y1="20.634" x2="24.96" y2="35.722"/>
		
			<line clip-path="url(#SVGID_16_)" fill="none" stroke="#FFFFFF" stroke-width="0.5" stroke-miterlimit="10" x1="27.366" y1="14.419" x2="17.339" y2="35.859"/>
	</g>
	<g>
		<defs>
			<rect id="SVGID_105_" x="18.088" y="14.648" width="55.993" height="20.931"/>
		</defs>
		<clipPath id="SVGID_18_">
			<use xlink:href="#SVGID_105_"  overflow="visible"/>
		</clipPath>
		
			<line clip-path="url(#SVGID_18_)" fill="none" stroke="#FFFFFF" stroke-width="0.5" stroke-miterlimit="10" x1="66.773" y1="17.564" x2="66.773" y2="35.735"/>
	</g>
	<g>
		<defs>
			<rect id="SVGID_107_" x="18.088" y="14.648" width="55.993" height="20.931"/>
		</defs>
		<clipPath id="SVGID_20_">
			<use xlink:href="#SVGID_107_"  overflow="visible"/>
		</clipPath>
		<line clip-path="url(#SVGID_20_)" fill="none" x1="69.121" y1="35.63" x2="17.532" y2="35.63"/>
	</g>
</g>
<g id="Layer_2_1_">
	<polygon fill="#FFFFFF" points="31.37,14.648 28.101,14.648 18.329,35.579 22.704,35.63 29.662,20.837 36.662,35.579 
		41.184,35.579 	"/>
</g>
</svg>
