<?xml version="1.0" encoding="utf-8"?>
<!-- Generator: Adobe Illustrator 16.0.0, SVG Export Plug-In . SVG Version: 6.00 Build 0)  -->
<!DOCTYPE svg PUBLIC "-//W3C//DTD SVG 1.1//EN" "http://www.w3.org/Graphics/SVG/1.1/DTD/svg11.dtd">
<svg version="1.1" id="Layer_1" xmlns="http://www.w3.org/2000/svg" xmlns:xlink="http://www.w3.org/1999/xlink" x="0px" y="0px"
	 width="180px" height="80.5px" viewBox="0 0 228 80.5" enable-background="new 0 0 228 80.5" xml:space="preserve">
<g>
	<path fill-rule="evenodd" clip-rule="evenodd" d="M-855.63-1779.454c-3.785-0.265-6.767-0.891-9.647-0.582
		c-4.64,0.497-7.535,3.581-8.677,7.978c-1.191,4.586-0.284,8.895,3.453,12.067c3.549,3.014,7.718,3.604,12.112,1.968
		c1.915-0.712,3.017-1.985,2.848-4.234c-0.156-2.084-0.053-4.188-0.064-6.283c-0.024-4.418-0.024-4.42,4.43-4.336
		c0.575,0.01,1.149,0.073,2.271,0.148c0,5.557,0.045,11.071-0.06,16.583c-0.013,0.66-0.751,1.401-1.312,1.94
		c-6.775,6.515-18.961,6.411-26.143-0.189c-7.86-7.224-8.595-18.816-1.713-27.021c6.341-7.56,17.964-9.002,25.816-3.193
		c0.168,0.125,0.234,0.388,0.47,0.798C-853.23-1782.213-854.666-1780.562-855.63-1779.454z"/>
</g>
<g>
	<path fill-rule="evenodd" clip-rule="evenodd" d="M-914.591-1749.942c0-1.562-0.196-2.94,0.067-4.225
		c0.186-0.909,0.798-2.024,1.559-2.466c2.168-1.262,3.489-2.918,2.903-5.427c-0.564-2.409-2.303-3.795-4.829-3.854
		c-3.487-0.08-6.981,0.07-10.466-0.06c-6.027-0.223-10.473-5.747-10.034-12.273c0.367-5.463,5.998-10.658,11.245-9.66
		c0,1.355,0.187,2.817-0.071,4.199c-0.151,0.81-0.848,1.781-1.573,2.17c-2.223,1.19-3.535,2.846-2.98,5.374
		c0.572,2.604,2.383,3.821,5.1,3.772c3.003-0.055,6.013-0.077,9.012,0.049c6.317,0.265,11.106,4.849,11.279,10.669
		C-903.192-1755.303-907.419-1750.699-914.591-1749.942z"/>
	<path fill-rule="evenodd" clip-rule="evenodd" d="M-813.178-1749.378c-7.117-6.372-13.811-12.361-20.499-18.357
		c-2.78-2.492-5.448-5.125-8.354-7.459c-1.996-1.602-2.803-3.407-2.556-5.912c0.174-1.756,0.034-3.544,0.034-6.148
		c8.625,7.721,16.629,14.884,25.11,22.475c0-7.751,0-14.951,0-22.272c2.252,0,4.141,0,6.266,0
		C-813.178-1774.632-813.178-1762.277-813.178-1749.378z"/>
</g>
<path fill="#292929" d="M-1103.208-1788.093l3.894,6.402c4.345,0,9.502-0.83,13.737,0.052c4.462,0.929,7.034,5.832,4.442,9.794
	c-2.361,3.608-7.057,2.526-10.739,2.526v0.778l11.335,18.689h7.182l-7.787-13.584c4.452-3.083,8.74-8.132,7.776-13.967
	c-0.71-4.299-5.293-10.692-10.199-10.692H-1103.208z"/>
<polyline fill="#292929" points="-1098.19,-1749.963 -1110.649,-1774.644 -1123.144,-1749.96 -1123.144,-1749.96
	-1130.611,-1749.96 -1111.31,-1788.093 -1110.192,-1788.093 -1090.942,-1749.96 -1098.188,-1749.96 "/>
<path fill="#020202" d="M-988.277-1749.646c9.817,0,17.777-8.658,17.777-19.337c0-10.679-7.96-19.336-17.777-19.336h-10.887l0,6.848
	l12.071,0c5.916,2.21,10.022,7.072,10.022,12.714c0,5.962-4.589,11.054-11.05,13.064l-11.044-0.002v6.05H-988.277z"/>
<rect x="-896.572" y="-1788.093" fill="#020202" width="7.25" height="38.243"/>
<rect x="-965" y="-1788.093" fill-rule="evenodd" clip-rule="evenodd" width="23.016" height="6.366"/>
<rect x="-965" y="-1771.72" fill-rule="evenodd" clip-rule="evenodd" width="23.016" height="6.366"/>
<rect x="-965" y="-1755.731" fill-rule="evenodd" clip-rule="evenodd" width="23.016" height="6.366"/>
<rect x="-965" y="-1788.093" fill-rule="evenodd" clip-rule="evenodd" width="7.168" height="38.728"/>
<rect x="-1066.94" y="-1788.031" fill-rule="evenodd" clip-rule="evenodd" fill="#292929" width="7.357" height="38.07"/>
<rect x="-1066.94" y="-1788.32" fill-rule="evenodd" clip-rule="evenodd" fill="#292929" width="33.857" height="6.593"/>
<circle fill-rule="evenodd" clip-rule="evenodd" fill="#ED1F24" cx="-1016.155" cy="-1766.531" r="3.677"/>
<g>
	<path fill-rule="evenodd" clip-rule="evenodd" fill="#FFFFFF" stroke="#F9FAFD" stroke-width="0.8" stroke-miterlimit="10" d="
		M181.702,36.29c-2.295-0.16-4.104-0.54-5.851-0.353c-2.813,0.301-4.568,2.171-5.261,4.838c-0.722,2.781-0.172,5.394,2.094,7.317
		c2.153,1.828,4.68,2.186,7.345,1.194c1.161-0.432,1.83-1.204,1.727-2.568c-0.095-1.264-0.032-2.539-0.039-3.81
		c-0.015-2.679-0.015-2.681,2.686-2.629c0.349,0.006,0.697,0.044,1.377,0.09c0,3.37,0.027,6.714-0.036,10.057
		c-0.008,0.4-0.456,0.849-0.796,1.176c-4.108,3.951-11.498,3.888-15.853-0.114c-4.766-4.38-5.212-11.41-1.039-16.385
		c3.846-4.584,10.894-5.459,15.655-1.936c0.102,0.076,0.142,0.235,0.285,0.484C183.156,34.617,182.286,35.618,181.702,36.29z"/>
</g>
<g>
	<path fill-rule="evenodd" clip-rule="evenodd" fill="#FFFFFF" stroke="#F9FAFD" stroke-width="0.5" stroke-miterlimit="10" d="
		M145.947,54.186c0-0.948-0.119-1.783,0.041-2.562c0.113-0.551,0.484-1.227,0.945-1.496c1.315-0.765,2.116-1.77,1.76-3.291
		c-0.342-1.46-1.396-2.301-2.928-2.337c-2.114-0.049-4.233,0.042-6.347-0.036c-3.655-0.135-6.351-3.485-6.084-7.442
		c0.223-3.312,3.637-6.463,6.819-5.858c0,0.822,0.113,1.708-0.043,2.546c-0.091,0.491-0.514,1.081-0.954,1.316
		c-1.348,0.722-2.143,1.726-1.807,3.259c0.347,1.58,1.445,2.317,3.092,2.288c1.821-0.034,3.646-0.046,5.465,0.03
		c3.831,0.161,6.735,2.94,6.839,6.47C152.859,50.935,150.296,53.727,145.947,54.186z"/>
	<path fill-rule="evenodd" clip-rule="evenodd" fill="#FFFFFF" stroke="#F9FAFD" stroke-width="0.5" stroke-miterlimit="10" d="
		M207.444,54.528c-4.316-3.864-8.375-7.496-12.431-11.132c-1.686-1.511-3.304-3.107-5.066-4.523c-1.21-0.971-1.7-2.066-1.55-3.584
		c0.105-1.065,0.021-2.149,0.021-3.728c5.23,4.682,10.084,9.025,15.227,13.629c0-4.7,0-9.066,0-13.506c1.366,0,2.511,0,3.799,0
		C207.444,39.214,207.444,46.706,207.444,54.528z"/>
</g>
<path fill="#F9FAFD" d="M38.57,31.051l2.361,3.882c2.635,0,5.762-0.503,8.33,0.032c2.706,0.563,4.266,3.537,2.694,5.939
	c-1.432,2.188-4.279,1.532-6.512,1.532v0.472l6.874,11.333h4.355l-4.722-8.237c2.7-1.869,5.3-4.931,4.715-8.469
	c-0.431-2.607-3.21-6.484-6.185-6.484H38.57z"/>
<polyline fill="#F9FAFD" points="41.357,54.173 33.364,38.338 25.347,54.175 25.347,54.175 20.556,54.175 32.94,29.708
	33.657,29.708 46.008,54.175 41.359,54.175 "/>
<path fill="#FFFFFF" d="M100.264,54.365c5.953,0,10.78-5.25,10.78-11.726c0-6.476-4.828-11.726-10.78-11.726h-6.602l0,4.152h7.32
	c3.587,1.34,6.078,4.288,6.078,7.709c0,3.616-2.783,6.703-6.701,7.922l-6.697-0.001v3.669H100.264z"/>
<rect x="156.875" y="31.051" fill="#FFFFFF" stroke="#F9FAFD" stroke-width="0.5" stroke-miterlimit="10" width="4.396" height="23.19"/>
<rect x="115.379" y="31.051" fill-rule="evenodd" clip-rule="evenodd" fill="#FFFFFF" stroke="#F9FAFD" stroke-width="0.5" stroke-miterlimit="10" width="13.957" height="3.86"/>
<rect x="115.379" y="40.98" fill-rule="evenodd" clip-rule="evenodd" fill="#FFFFFF" stroke="#F9FAFD" stroke-width="0.5" stroke-miterlimit="10" width="13.957" height="3.86"/>
<rect x="115.379" y="50.675" fill-rule="evenodd" clip-rule="evenodd" fill="#FFFFFF" stroke="#F9FAFD" stroke-width="0.5" stroke-miterlimit="10" width="13.957" height="3.86"/>
<rect x="115.379" y="31.051" fill-rule="evenodd" clip-rule="evenodd" fill="#FFFFFF" stroke="#F9FAFD" stroke-width="0.5" stroke-miterlimit="10" width="4.347" height="23.484"/>
<rect x="60.563" y="31.089" fill-rule="evenodd" clip-rule="evenodd" fill="#F9FAFD" width="4.461" height="23.086"/>
<rect x="60.563" y="31.111" fill-rule="evenodd" clip-rule="evenodd" fill="#F9FAFD" width="16.668" height="3.603"/>
<circle fill="#ED1E27" cx="95.496" cy="42.91" r="1.833"/>
</svg>
