<?xml version="1.0" encoding="utf-8"?>
<!-- Generator: Adobe Illustrator 16.0.0, SVG Export Plug-In . SVG Version: 6.00 Build 0)  -->
<!DOCTYPE svg PUBLIC "-//W3C//DTD SVG 1.1//EN" "http://www.w3.org/Graphics/SVG/1.1/DTD/svg11.dtd">
<svg version="1.1" id="Layer_1" xmlns="http://www.w3.org/2000/svg" xmlns:xlink="http://www.w3.org/1999/xlink" x="0px" y="0px"
	 width="174.104px" height="51.5px" viewBox="0 0 174.104 51.5" enable-background="new 0 0 174.104 51.5" xml:space="preserve">
<g id="Layer_1_2_">
	<g id="Layer_1_1_">
	</g>
	<g id="Layer_3">
	</g>
	<g id="Layer_4">
	</g>
	<g>
		<path fill="#2B2B2C" stroke="#2B2B2C" stroke-width="0.15" stroke-miterlimit="10" d="M99.842-36.906h3.779
			c0.12-0.025,0.207-0.01,0.269,0.052c0.06,0.056,0.09,0.124,0.09,0.201c0,0.077-0.028,0.146-0.083,0.204
			c-0.056,0.061-0.139,0.076-0.248,0.051H92.195c-0.108,0.025-0.191,0.01-0.251-0.051c-0.054-0.059-0.08-0.127-0.08-0.204
			c0-0.077,0.026-0.146,0.08-0.201c0.06-0.062,0.143-0.077,0.251-0.052h3.805v-2.383c0-0.304-0.138-0.455-0.406-0.455h-1.656
			c-0.305,0-0.517-0.062-0.633-0.179c-0.122-0.118-0.179-0.34-0.179-0.661v-2.799c0-0.314,0.057-0.531,0.179-0.649
			c0.116-0.12,0.328-0.179,0.633-0.179h1.551c0.275,0,0.412-0.157,0.412-0.471v-1.973h-3.25c-0.126,0-0.212-0.02-0.251-0.05
			c-0.041-0.034-0.064-0.097-0.064-0.19c0-0.103,0.023-0.172,0.073-0.213c0.046-0.036,0.127-0.056,0.242-0.056h10.486
			c0.119,0,0.2,0.02,0.249,0.056c0.046,0.041,0.072,0.11,0.072,0.213c0,0.094-0.024,0.156-0.068,0.19
			c-0.041,0.03-0.126,0.05-0.253,0.05h-3.37v1.984c0,0.316,0.131,0.47,0.404,0.47h1.746c0.305,0,0.514,0.06,0.633,0.178
			c0.122,0.122,0.181,0.337,0.181,0.652v2.786c0,0.321-0.059,0.543-0.181,0.661c-0.119,0.116-0.328,0.179-0.633,0.179h-1.671
			c-0.269,0-0.404,0.151-0.404,0.455L99.842-36.906L99.842-36.906z M96.545-36.906h2.749v-2.522c0-0.542,0.274-0.811,0.828-0.811
			h1.668c0.108,0,0.2-0.046,0.276-0.136c0.078-0.088,0.115-0.201,0.115-0.336v-2.531c0-0.307-0.132-0.459-0.393-0.459h-1.771
			c-0.305,0-0.514-0.059-0.626-0.173c-0.116-0.116-0.173-0.333-0.173-0.653v-2.127h-2.773v2.1c0,0.322-0.061,0.542-0.181,0.662
			c-0.116,0.121-0.328,0.178-0.638,0.178h-1.565c-0.264,0-0.393,0.154-0.393,0.458v2.546c0,0.135,0.036,0.248,0.114,0.336
			c0.075,0.09,0.168,0.136,0.277,0.136h1.655c0.321,0,0.543,0.055,0.658,0.171c0.11,0.113,0.168,0.324,0.168,0.627v2.534H96.545z"/>
		<path fill="#2B2B2C" stroke="#2B2B2C" stroke-width="0.15" stroke-miterlimit="10" d="M120.096-37.085
			c0,0.359-0.065,0.604-0.202,0.742c-0.139,0.133-0.359,0.204-0.677,0.204h-8.944c-0.305,0-0.522-0.071-0.652-0.204
			c-0.132-0.139-0.199-0.383-0.199-0.742v-9.171c0-0.356,0.064-0.599,0.193-0.726c0.125-0.125,0.348-0.191,0.658-0.191h8.944
			c0.324,0,0.551,0.069,0.682,0.205c0.132,0.135,0.197,0.373,0.197,0.712V-37.085L120.096-37.085z M119.575-37.085v-9.197
			c0-0.271-0.119-0.404-0.37-0.404h-8.934c-0.229,0-0.341,0.135-0.341,0.404v9.197c0,0.131,0.031,0.234,0.103,0.315
			c0.067,0.079,0.148,0.122,0.238,0.122h8.934C119.456-36.648,119.575-36.794,119.575-37.085z M114.549-42.529h-3.604
			c-0.159,0-0.239-0.072-0.239-0.219c0-0.141,0.08-0.213,0.239-0.213h3.604v-0.804h-2.1c-0.321,0-0.546-0.052-0.673-0.149
			c-0.129-0.103-0.191-0.277-0.191-0.523v-0.61c0-0.253,0.062-0.438,0.191-0.55c0.127-0.107,0.352-0.165,0.673-0.165h4.684
			c0.312,0,0.535,0.058,0.667,0.165c0.131,0.111,0.194,0.297,0.194,0.55v0.61c0,0.246-0.062,0.421-0.189,0.523
			c-0.127,0.098-0.351,0.149-0.672,0.149h-2.075v0.804h3.59c0.087-0.018,0.146,0,0.189,0.05c0.044,0.053,0.065,0.108,0.065,0.173
			c0,0.062-0.021,0.118-0.065,0.166c-0.044,0.046-0.104,0.061-0.189,0.043h-3.59v0.729h2.445c0.287,0,0.491,0.055,0.615,0.176
			c0.122,0.118,0.186,0.33,0.186,0.635v2.444c0,0.306-0.062,0.519-0.186,0.641c-0.124,0.126-0.336,0.188-0.641,0.188h-5.463
			c-0.284,0-0.491-0.062-0.607-0.188c-0.122-0.122-0.182-0.343-0.182-0.667v-2.418c0-0.305,0.06-0.517,0.182-0.635
			c0.116-0.121,0.323-0.176,0.607-0.176h2.533L114.549-42.529L114.549-42.529z M117.834-38.572v-2.418
			c0-0.126-0.039-0.229-0.104-0.312c-0.065-0.082-0.159-0.122-0.277-0.122h-5.335c-0.251,0-0.382,0.147-0.382,0.433v2.418
			c0,0.137,0.037,0.246,0.11,0.324c0.073,0.081,0.163,0.123,0.271,0.123h5.335C117.705-38.125,117.834-38.273,117.834-38.572z
			 M117.526-44.515v-0.442c0-0.247-0.154-0.37-0.457-0.37h-4.542c-0.137,0-0.248,0.034-0.331,0.102
			c-0.086,0.07-0.129,0.156-0.129,0.269v0.442c0,0.241,0.153,0.357,0.46,0.357h4.542c0.135,0,0.246-0.033,0.331-0.1
			C117.485-44.327,117.526-44.412,117.526-44.515z M116.56-39.664c0,0.269-0.072,0.467-0.209,0.589
			c-0.142,0.122-0.382,0.184-0.716,0.184h-1.912c-0.304,0-0.516-0.052-0.626-0.158c-0.109-0.106-0.163-0.311-0.163-0.614v-0.191
			c0-0.314,0.058-0.529,0.173-0.645c0.112-0.114,0.319-0.172,0.616-0.172h2.024c0.304,0,0.516,0.061,0.635,0.18
			c0.12,0.119,0.178,0.33,0.178,0.637V-39.664z M116.103-39.705v-0.15c0-0.29-0.139-0.436-0.409-0.436h-1.906
			c-0.264,0-0.396,0.146-0.396,0.436v0.15c0,0.128,0.037,0.234,0.117,0.318c0.073,0.086,0.165,0.127,0.277,0.127h1.906
			C115.964-39.259,116.103-39.409,116.103-39.705z"/>
		<path fill="#2B2B2C" stroke="#2B2B2C" stroke-width="0.15" stroke-miterlimit="10" d="M129.786-45.674
			c0.116,0,0.175,0.077,0.175,0.229c0,0.146-0.059,0.217-0.175,0.217h-4.799c-0.129,0-0.191-0.071-0.191-0.217
			c0-0.152,0.062-0.229,0.191-0.229H129.786z M129.328-42.123c0.074,0,0.127,0.015,0.15,0.049c0.007,0.02,0.021,0.047,0.031,0.092
			c0.015,0.039,0.015,0.086,0.005,0.131c-0.007,0.047-0.023,0.086-0.056,0.121s-0.076,0.051-0.132,0.051h-3.769
			c-0.126,0-0.191-0.072-0.191-0.217c0-0.153,0.065-0.227,0.191-0.227H129.328z M129.341-43.904c0.124,0,0.188,0.059,0.188,0.179
			c0,0.108-0.015,0.182-0.044,0.214c-0.03,0.035-0.077,0.051-0.146,0.051h-3.743c-0.134,0-0.205-0.07-0.205-0.216
			c0-0.155,0.071-0.228,0.205-0.228H129.341z M129.426-37.199c0,0.322-0.049,0.543-0.158,0.66c-0.104,0.115-0.29,0.177-0.553,0.177
			h-2.569c-0.271,0-0.461-0.062-0.566-0.177c-0.104-0.117-0.156-0.338-0.156-0.66v-2.216c0-0.398,0.054-0.66,0.156-0.779
			c0.105-0.124,0.309-0.187,0.604-0.187h2.46c0.311,0,0.521,0.062,0.626,0.191c0.109,0.128,0.158,0.383,0.158,0.774L129.426-37.199
			L129.426-37.199z M128.958-37.277v-2.212c0-0.146-0.034-0.261-0.104-0.346c-0.064-0.083-0.147-0.127-0.251-0.127h-2.356
			c-0.101,0-0.184,0.044-0.251,0.127c-0.07,0.085-0.104,0.2-0.104,0.346v2.212c0,0.137,0.034,0.252,0.107,0.346
			c0.069,0.094,0.155,0.139,0.246,0.139h2.356C128.839-36.792,128.958-36.955,128.958-37.277z M128.115-46.285
			c0,0.034-0.013,0.073-0.036,0.113c-0.027,0.044-0.062,0.072-0.109,0.084c-0.044,0.012-0.098,0.006-0.156-0.018
			c-0.061-0.027-0.124-0.094-0.191-0.205c-0.104-0.172-0.223-0.344-0.363-0.527c-0.139-0.18-0.294-0.373-0.465-0.567
			c-0.093-0.093-0.14-0.178-0.14-0.261c0-0.076,0.026-0.137,0.075-0.17c0.053-0.034,0.112-0.053,0.187-0.053s0.178,0.094,0.326,0.28
			l0.543,0.726C128.006-46.583,128.115-46.384,128.115-46.285z M132.838-38.306c-1.05-0.977-1.793-2.125-2.228-3.449h-0.237
			c-0.146,0-0.221-0.081-0.221-0.252c0-0.18,0.078-0.27,0.229-0.27h4.43c0.518,0,0.774,0.199,0.774,0.598
			c0,0.331-0.188,0.836-0.562,1.514c-0.183,0.342-0.398,0.663-0.636,0.969c-0.238,0.303-0.504,0.597-0.799,0.878
			c0.745,0.595,1.673,1.112,2.786,1.552c0.204,0.078,0.305,0.178,0.305,0.305c0,0.186-0.078,0.281-0.229,0.281
			c-0.137,0-0.54-0.166-1.208-0.496c-0.68-0.34-1.354-0.775-2.023-1.312c-0.561,0.46-1.218,0.854-1.973,1.196
			c-0.729,0.338-1.164,0.51-1.295,0.51c-0.122,0-0.2-0.031-0.236-0.09c-0.039-0.061-0.057-0.117-0.057-0.18
			c0-0.134,0.134-0.24,0.403-0.314C131.072-37.166,131.997-37.648,132.838-38.306z M134.91-44.07c0,0.17,0.023,0.299,0.076,0.38
			c0.055,0.095,0.115,0.155,0.193,0.179c0.038,0.009,0.111,0.018,0.206,0.021c0.098,0.006,0.229,0,0.39-0.007h0.867
			c0.158,0,0.239,0.088,0.239,0.257c0,0.17-0.06,0.261-0.178,0.279c-0.06,0.007-0.161,0.01-0.304,0.01c-0.146,0-0.331,0-0.548,0
			c-0.47,0-0.778-0.028-0.93-0.086c-0.332-0.114-0.497-0.469-0.497-1.068v-2.089c0-0.255-0.034-0.419-0.103-0.497
			c-0.068-0.075-0.223-0.113-0.455-0.113h-1.555c-0.253,0-0.398,0.048-0.437,0.139c-0.041,0.094-0.062,0.271-0.062,0.521
			c0,0.542-0.056,1.02-0.165,1.424c-0.119,0.435-0.38,0.898-0.789,1.389c-0.424,0.502-0.724,0.754-0.903,0.754
			c-0.041-0.01-0.085-0.029-0.129-0.059c-0.039-0.031-0.068-0.066-0.087-0.109c-0.016-0.043-0.016-0.092,0-0.154
			c0.019-0.059,0.066-0.117,0.152-0.177c0.255-0.229,0.476-0.452,0.654-0.673c0.186-0.223,0.332-0.455,0.446-0.708
			c0.116-0.249,0.196-0.515,0.248-0.8c0.051-0.285,0.074-0.604,0.074-0.959c0-0.393,0.05-0.672,0.149-0.837
			c0.095-0.162,0.271-0.245,0.525-0.245h2.126c0.32,0,0.532,0.057,0.636,0.178c0.103,0.117,0.15,0.35,0.15,0.701v2.35H134.91z
			 M131.106-41.755c0.393,1.196,1.088,2.24,2.103,3.133c0.607-0.561,1.076-1.152,1.396-1.77c0.324-0.62,0.484-1.018,0.484-1.195
			c0-0.059-0.021-0.104-0.065-0.131c-0.041-0.024-0.129-0.037-0.266-0.037H131.106z"/>
		<path fill="#2B2B2C" stroke="#2B2B2C" stroke-width="0.15" stroke-miterlimit="10" d="M147.006-45.698
			c0.137,0,0.204,0.062,0.204,0.188c0,0.129-0.015,0.206-0.041,0.236c-0.031,0.028-0.085,0.045-0.163,0.045h-5.582
			c-0.139,0-0.207-0.076-0.207-0.229c0-0.161,0.068-0.24,0.207-0.24H147.006z M146.256-42.16c0.075,0,0.129,0.016,0.153,0.048
			c0.033,0.034,0.051,0.116,0.051,0.243c0,0.117-0.067,0.178-0.204,0.178h-4.12c-0.145,0-0.22-0.061-0.22-0.178
			c0-0.127,0.018-0.209,0.046-0.243c0.029-0.032,0.088-0.048,0.174-0.048H146.256z M146.268-43.957c0.146,0,0.217,0.079,0.217,0.242
			c0,0.16-0.069,0.238-0.217,0.238h-4.096c-0.153,0-0.228-0.078-0.228-0.238c0-0.163,0.073-0.242,0.228-0.242H146.268z
			 M146.512-37.136c0,0.314-0.062,0.537-0.192,0.667c-0.124,0.133-0.346,0.198-0.661,0.198h-2.849c-0.312,0-0.54-0.062-0.669-0.191
			c-0.132-0.127-0.195-0.352-0.195-0.674v-2.239c0-0.407,0.068-0.686,0.202-0.834c0.134-0.147,0.373-0.222,0.714-0.222h2.708
			c0.357,0,0.603,0.074,0.737,0.222c0.137,0.148,0.205,0.427,0.205,0.834V-37.136L146.512-37.136z M146.003-37.199v-2.279
			c0-0.152-0.034-0.272-0.11-0.36c-0.072-0.091-0.17-0.136-0.299-0.136h-2.732c-0.121,0-0.217,0.045-0.287,0.136
			c-0.075,0.088-0.111,0.208-0.111,0.36v2.279c0,0.152,0.036,0.272,0.111,0.361c0.07,0.09,0.166,0.136,0.287,0.136h2.732
			C145.866-36.702,146.003-36.867,146.003-37.199z M144.973-46.218c-0.008,0.022-0.029,0.062-0.059,0.105
			c-0.029,0.047-0.068,0.083-0.114,0.107c-0.047,0.026-0.104,0.026-0.173-0.004c-0.066-0.035-0.145-0.109-0.228-0.236
			c-0.171-0.221-0.331-0.428-0.488-0.611c-0.161-0.188-0.309-0.354-0.441-0.496c-0.146-0.16-0.188-0.288-0.132-0.383
			c0.054-0.092,0.14-0.138,0.256-0.138c0.068,0,0.188,0.099,0.358,0.302c0.088,0.097,0.18,0.203,0.279,0.332
			c0.104,0.13,0.22,0.265,0.344,0.407C144.839-46.542,144.973-46.34,144.973-46.218z M149.716-43.802v-3.922
			c-0.023-0.105-0.007-0.189,0.052-0.239c0.062-0.05,0.127-0.077,0.197-0.077c0.073,0,0.136,0.027,0.188,0.084
			c0.06,0.055,0.076,0.135,0.06,0.232v3.922h2.684c0.078,0,0.138,0.022,0.182,0.064c0.044,0.041,0.062,0.126,0.062,0.252
			c0,0.136-0.081,0.207-0.244,0.207h-2.684v7.033c0,0.119-0.018,0.199-0.06,0.245c-0.033,0.04-0.102,0.062-0.193,0.062
			c-0.095,0-0.158-0.016-0.192-0.047c-0.032-0.027-0.052-0.115-0.052-0.26v-7.033h-2.656c-0.095,0-0.156-0.02-0.195-0.055
			c-0.028-0.032-0.049-0.117-0.049-0.253c0-0.142,0.083-0.216,0.244-0.216L149.716-43.802L149.716-43.802z"/>
	</g>
	<path d="M74.232-48.051c0,6.817,0,13.535,0,20.325c-2.891,0-5.739,0-8.665,0c0-6.773,0-13.513,0-20.325
		C68.437-48.051,71.286-48.051,74.232-48.051z"/>
	<path d="M52.112-27.732c0-6.787,0-13.506,0-20.309c2.774,0,5.515,0,8.345,0c0,6.746,0,13.488,0,20.309
		C57.73-27.732,54.991-27.732,52.112-27.732z"/>
	<path d="M35.146-48.136c3.096,0,6.081-0.193,9.022,0.06c2.499,0.217,3.7,1.729,3.744,3.87c0.049,2.236-1.193,3.74-3.625,4.265
		c-0.805,0.175-1.652,0.212-2.482,0.223c-2.204,0.029-4.408,0.01-6.659,0.01C35.146-42.619,35.146-45.398,35.146-48.136z"/>
	<path d="M30.488-27.67c-6.307,0-12.441,0-18.707,0c0.912-1.988,1.773-3.906,2.69-5.801c0.094-0.192,0.521-0.345,0.795-0.346
		c3.928-0.021,7.859-0.022,11.787,0.01c0.285,0.002,0.717,0.223,0.824,0.446C28.761-31.523,29.584-29.66,30.488-27.67z"/>
	<path d="M35.191-35.673c1.886,0,3.765-0.016,5.641,0.02c0.229,0.003,0.519,0.22,0.668,0.413c1.945,2.51,3.869,5.032,5.886,7.667
		c-4.115,0-8.109,0-12.194,0C35.191-30.225,35.191-32.89,35.191-35.673z"/>
	<path d="M25.881-37.888c-3.218,0-6.221,0-9.45,0c1.557-3.371,3.069-6.643,4.694-10.156C22.749-44.578,24.278-41.31,25.881-37.888z"
		/>
	<g>
		<path fill="#231F20" d="M92.619-30.039l-0.598,1.624c-0.023,0.083-0.031,0.144-0.015,0.183c0.015,0.039,0.093,0.063,0.23,0.073
			l0.52,0.039v0.185c-0.051-0.004-0.156-0.007-0.312-0.01c-0.16-0.004-0.373-0.004-0.639-0.004c-0.27,0-0.48,0-0.641,0.004
			c-0.155,0.003-0.261,0.006-0.313,0.01v-0.185l0.489-0.039c0.171-0.014,0.287-0.11,0.354-0.286l1.78-4.612h0.316l1.71,4.559
			c0.036,0.088,0.069,0.146,0.103,0.179c0.028,0.029,0.087,0.059,0.168,0.084l0.427,0.132v0.178
			c-0.099-0.005-0.229-0.011-0.396-0.015c-0.169-0.006-0.349-0.008-0.546-0.008h-0.551c-0.341,0-0.625,0.008-0.859,0.021v-0.178
			l0.504-0.077c0.071-0.01,0.129-0.022,0.171-0.036c0.041-0.013,0.068-0.029,0.08-0.054c0.014-0.023,0.019-0.051,0.014-0.085
			c-0.006-0.032-0.019-0.075-0.039-0.128l-0.572-1.555H92.619z M93.897-30.316l-0.561-1.664l-0.611,1.664H93.897z"/>
		<path fill="#231F20" d="M96.364-27.917v-0.123l0.296-0.07c0.103-0.032,0.168-0.071,0.196-0.121
			c0.029-0.05,0.041-0.141,0.041-0.273v-1.487c0-0.104-0.02-0.179-0.061-0.229c-0.041-0.049-0.14-0.085-0.295-0.112l-0.163-0.03
			l0.008-0.132c0.202-0.057,0.401-0.143,0.597-0.256c0.197-0.114,0.354-0.269,0.473-0.463h0.142l0.029,0.912
			c0.041-0.092,0.088-0.176,0.139-0.252c0.051-0.074,0.122-0.158,0.209-0.25c0.088-0.093,0.174-0.156,0.251-0.187
			c0.083-0.03,0.156-0.046,0.222-0.046c0.13,0,0.236,0.037,0.321,0.111c0.086,0.076,0.13,0.188,0.13,0.338
			c0,0.139-0.034,0.248-0.098,0.328c-0.066,0.079-0.156,0.121-0.275,0.121c-0.062,0-0.113-0.016-0.163-0.045
			c-0.046-0.027-0.088-0.059-0.127-0.096c-0.039-0.035-0.074-0.069-0.11-0.098c-0.037-0.026-0.071-0.042-0.104-0.042
			c-0.047,0-0.09,0.021-0.132,0.058c-0.041,0.039-0.08,0.087-0.116,0.145c-0.034,0.056-0.065,0.119-0.088,0.188
			c-0.021,0.069-0.037,0.136-0.044,0.198c-0.005,0.051-0.01,0.098-0.015,0.139c-0.005,0.043-0.005,0.08,0,0.117v1.082
			c0,0.129,0.023,0.213,0.069,0.252c0.048,0.039,0.14,0.077,0.277,0.111l0.396,0.078v0.124c-0.124-0.011-0.264-0.016-0.416-0.019
			c-0.156-0.004-0.312-0.004-0.474-0.004h-0.147c-0.168,0-0.336,0.002-0.502,0.008C96.664-27.937,96.511-27.929,96.364-27.917z"/>
		<path fill="#231F20" d="M100.358-31.679h0.14c0,0.139,0.002,0.275,0.005,0.414c0.002,0.137,0.002,0.274,0.002,0.413l0.999-0.022
			v0.333l-0.999,0.029v1.464c0,0.259,0.023,0.453,0.076,0.584c0.049,0.131,0.168,0.192,0.356,0.182c0.078,0,0.166-0.012,0.261-0.035
			c0.096-0.023,0.202-0.077,0.321-0.166l0.068,0.109c-0.085,0.135-0.212,0.26-0.375,0.374c-0.161,0.116-0.38,0.175-0.652,0.175
			c-0.274,0-0.473-0.07-0.592-0.213c-0.122-0.141-0.183-0.396-0.183-0.761v-1.696c-0.073,0-0.143,0-0.21,0.004
			c-0.065,0.001-0.137,0.004-0.209,0.004c-0.073,0-0.109-0.027-0.112-0.084c-0.002-0.058,0.032-0.1,0.104-0.133
			c0.107-0.047,0.207-0.096,0.298-0.147c0.093-0.052,0.165-0.106,0.223-0.162c0.056-0.055,0.136-0.142,0.238-0.256
			C100.222-31.382,100.302-31.519,100.358-31.679z"/>
		<path fill="#231F20" d="M104.537-28.415v-3.907c0-0.088-0.016-0.15-0.041-0.188c-0.027-0.036-0.078-0.058-0.151-0.062
			l-0.564-0.071v-0.169c0.052,0.015,0.592,0.024,1.624,0.024c0.305,0,0.549-0.01,0.729-0.024v0.179l-0.472,0.062
			c-0.104,0.011-0.177,0.026-0.221,0.051c-0.044,0.021-0.064,0.088-0.064,0.197v3.907c0,0.095,0.012,0.153,0.036,0.179
			c0.026,0.027,0.077,0.042,0.155,0.047l0.564,0.039v0.232c-0.103-0.012-0.25-0.02-0.445-0.023
			c-0.193-0.006-0.436-0.008-0.729-0.008s-0.538,0.002-0.73,0.008c-0.195,0.004-0.344,0.012-0.445,0.023v-0.232l0.479-0.031
			c0.106-0.016,0.18-0.033,0.219-0.051S104.537-28.31,104.537-28.415z"/>
		<path fill="#231F20" d="M110.289-27.926c-0.271-0.015-0.559-0.021-0.859-0.021c-0.305,0-0.592,0.008-0.859,0.021v-0.163
			l0.333-0.061c0.112-0.016,0.168-0.116,0.168-0.301v-1.309c0-0.125-0.005-0.238-0.017-0.338c-0.015-0.1-0.039-0.186-0.08-0.252
			c-0.037-0.066-0.093-0.119-0.163-0.154c-0.073-0.035-0.169-0.055-0.288-0.055c-0.139,0-0.279,0.039-0.421,0.116
			c-0.142,0.078-0.271,0.178-0.393,0.304v1.771c0,0.081,0.062,0.139,0.186,0.17l0.319,0.107v0.163
			c-0.088-0.011-0.179-0.016-0.27-0.019c-0.09-0.004-0.217-0.004-0.375-0.004h-0.248c-0.171,0-0.334,0-0.486,0.004
			c-0.155,0.003-0.277,0.008-0.365,0.019v-0.163l0.365-0.076c0.104-0.025,0.152-0.104,0.152-0.232v-1.533
			c0-0.16-0.03-0.269-0.095-0.324c-0.062-0.057-0.181-0.099-0.346-0.125v-0.139c0.083-0.02,0.173-0.047,0.268-0.081
			c0.099-0.034,0.19-0.077,0.28-0.133c0.09-0.054,0.176-0.116,0.253-0.188c0.081-0.073,0.145-0.157,0.19-0.257h0.17v0.729
			c0.171-0.181,0.357-0.324,0.561-0.43c0.204-0.106,0.396-0.158,0.577-0.158c0.3,0,0.533,0.087,0.701,0.262
			c0.168,0.178,0.251,0.441,0.251,0.797v1.504c0,0.098,0.015,0.17,0.039,0.221c0.025,0.047,0.078,0.081,0.155,0.104l0.295,0.061
			L110.289-27.926L110.289-27.926z"/>
		<path fill="#231F20" d="M111.719-31.679h0.142c0,0.139,0,0.275,0.002,0.414c0.004,0.137,0.006,0.274,0.006,0.413l0.999-0.022
			v0.333l-0.999,0.029v1.464c0,0.259,0.023,0.453,0.072,0.584c0.049,0.131,0.17,0.192,0.36,0.182c0.078,0,0.163-0.012,0.258-0.035
			c0.096-0.023,0.205-0.077,0.321-0.166l0.067,0.109c-0.087,0.135-0.212,0.26-0.375,0.374c-0.159,0.116-0.38,0.175-0.651,0.175
			c-0.272,0-0.474-0.07-0.592-0.213c-0.122-0.141-0.184-0.396-0.184-0.761v-1.696c-0.073,0-0.142,0-0.21,0.004
			c-0.064,0.001-0.136,0.004-0.206,0.004c-0.072,0-0.111-0.027-0.115-0.084c0-0.058,0.034-0.1,0.105-0.133
			c0.109-0.047,0.209-0.096,0.299-0.147c0.091-0.052,0.163-0.106,0.22-0.162c0.06-0.055,0.14-0.142,0.241-0.256
			C111.582-31.382,111.663-31.519,111.719-31.679z"/>
		<path fill="#231F20" d="M116.031-29.814h-2.021c-0.01,0.052-0.015,0.09-0.021,0.116c-0.003,0.025-0.003,0.064-0.003,0.116
			c0,0.18,0.024,0.346,0.075,0.495c0.052,0.149,0.125,0.278,0.217,0.386c0.094,0.108,0.207,0.192,0.34,0.254
			c0.129,0.059,0.279,0.087,0.442,0.087c0.184,0,0.35-0.028,0.499-0.087c0.153-0.062,0.314-0.174,0.484-0.338l0.032,0.147
			c-0.073,0.113-0.153,0.218-0.246,0.317c-0.091,0.097-0.19,0.184-0.306,0.258c-0.113,0.075-0.242,0.133-0.387,0.175
			c-0.144,0.04-0.308,0.062-0.487,0.062c-0.207,0-0.395-0.039-0.564-0.115c-0.17-0.078-0.318-0.188-0.442-0.33
			c-0.122-0.14-0.22-0.309-0.288-0.506c-0.069-0.196-0.104-0.41-0.104-0.643c0-0.236,0.036-0.453,0.108-0.652
			c0.076-0.193,0.184-0.365,0.316-0.509c0.132-0.144,0.295-0.257,0.487-0.337c0.189-0.081,0.401-0.119,0.634-0.119
			c0.202,0,0.377,0.029,0.528,0.092c0.147,0.062,0.271,0.15,0.375,0.261c0.1,0.109,0.175,0.239,0.23,0.391
			C115.987-30.146,116.02-29.984,116.031-29.814z M114.05-30.053h0.913c0.104,0,0.183-0.015,0.236-0.04
			c0.053-0.024,0.071-0.09,0.058-0.193c-0.017-0.145-0.058-0.271-0.129-0.375c-0.068-0.106-0.186-0.16-0.352-0.16
			c-0.188,0-0.341,0.066-0.465,0.199C114.188-30.492,114.101-30.302,114.05-30.053z"/>
		<path fill="#231F20" d="M116.47-27.917v-0.123l0.295-0.07c0.104-0.032,0.168-0.071,0.197-0.121s0.044-0.141,0.044-0.273v-1.487
			c0-0.104-0.022-0.179-0.063-0.229c-0.039-0.049-0.139-0.085-0.292-0.112l-0.163-0.03l0.008-0.132
			c0.201-0.057,0.401-0.143,0.597-0.256c0.195-0.114,0.354-0.269,0.473-0.463h0.14l0.03,0.912c0.042-0.092,0.088-0.176,0.141-0.252
			c0.051-0.074,0.119-0.158,0.209-0.25c0.088-0.093,0.171-0.156,0.251-0.187c0.08-0.031,0.152-0.046,0.222-0.046
			c0.129,0,0.233,0.037,0.321,0.111c0.085,0.076,0.127,0.188,0.127,0.338c0,0.139-0.032,0.248-0.099,0.328
			c-0.062,0.079-0.155,0.121-0.274,0.121c-0.062,0-0.114-0.016-0.16-0.045c-0.049-0.027-0.091-0.059-0.13-0.096
			c-0.038-0.035-0.075-0.069-0.111-0.098c-0.037-0.026-0.07-0.042-0.101-0.042c-0.046,0-0.092,0.021-0.131,0.058
			c-0.042,0.039-0.08,0.087-0.117,0.145c-0.036,0.056-0.065,0.119-0.088,0.188c-0.024,0.069-0.039,0.136-0.044,0.198
			c-0.005,0.051-0.009,0.098-0.016,0.139c-0.004,0.043-0.004,0.08,0,0.117v1.082c0,0.129,0.022,0.213,0.068,0.252
			c0.047,0.039,0.139,0.077,0.28,0.111l0.395,0.078v0.124c-0.124-0.011-0.263-0.016-0.419-0.019
			c-0.153-0.004-0.312-0.004-0.47-0.004h-0.148c-0.171,0-0.339,0.002-0.504,0.008C116.77-27.937,116.616-27.929,116.47-27.917z"/>
		<path fill="#231F20" d="M121.124-27.917c-0.086-0.012-0.202-0.02-0.358-0.023c-0.153-0.006-0.333-0.008-0.54-0.008
			s-0.388,0.002-0.541,0.008c-0.156,0.004-0.274,0.012-0.357,0.023v-0.172l0.349-0.076c0.161-0.031,0.241-0.126,0.241-0.285v-1.458
			c0-0.123-0.032-0.213-0.093-0.269c-0.063-0.058-0.186-0.106-0.372-0.146v-0.156c0.095-0.019,0.188-0.048,0.283-0.089
			c0.102-0.037,0.195-0.082,0.288-0.13c0.096-0.05,0.179-0.104,0.258-0.159c0.075-0.057,0.138-0.12,0.186-0.188
			c0.029,0,0.059,0.002,0.088,0.004c0.029,0.004,0.057,0.006,0.08,0.006v2.607c0,0.076,0.013,0.135,0.037,0.176
			c0.021,0.036,0.067,0.064,0.134,0.081l0.319,0.083L121.124-27.917L121.124-27.917z M120.311-32.677
			c0.119,0,0.223,0.041,0.306,0.127c0.085,0.086,0.129,0.188,0.129,0.307c0,0.104-0.044,0.197-0.133,0.281
			c-0.088,0.085-0.188,0.129-0.31,0.129c-0.119,0-0.217-0.041-0.294-0.122c-0.078-0.08-0.117-0.177-0.117-0.288
			c0-0.118,0.041-0.221,0.124-0.307C120.099-32.636,120.196-32.677,120.311-32.677z"/>
		<path fill="#231F20" d="M126.985-27.917v-0.123l0.295-0.07c0.104-0.032,0.168-0.071,0.197-0.121s0.041-0.141,0.041-0.273v-1.487
			c0-0.104-0.02-0.179-0.061-0.229c-0.041-0.049-0.14-0.085-0.295-0.112l-0.16-0.03l0.007-0.132c0.2-0.057,0.399-0.143,0.597-0.256
			c0.195-0.114,0.354-0.269,0.471-0.463h0.142l0.029,0.912c0.041-0.092,0.088-0.176,0.139-0.252c0.054-0.074,0.122-0.158,0.209-0.25
			c0.088-0.093,0.174-0.156,0.254-0.187c0.078-0.03,0.153-0.046,0.219-0.046c0.129,0,0.236,0.037,0.321,0.111
			c0.086,0.076,0.13,0.188,0.13,0.338c0,0.139-0.034,0.248-0.098,0.328c-0.066,0.079-0.158,0.121-0.275,0.121
			c-0.062,0-0.117-0.016-0.163-0.045c-0.046-0.027-0.088-0.059-0.127-0.096c-0.039-0.035-0.077-0.069-0.113-0.098
			c-0.034-0.026-0.068-0.042-0.101-0.042c-0.047,0-0.09,0.021-0.132,0.058c-0.041,0.039-0.078,0.087-0.114,0.145
			c-0.039,0.056-0.064,0.119-0.09,0.188c-0.021,0.069-0.037,0.136-0.044,0.198c-0.003,0.051-0.01,0.098-0.015,0.139
			c-0.005,0.043-0.005,0.08,0,0.117v1.082c0,0.129,0.023,0.213,0.069,0.252c0.047,0.039,0.14,0.077,0.277,0.111l0.395,0.078v0.124
			c-0.123-0.011-0.26-0.016-0.415-0.019c-0.156-0.004-0.312-0.004-0.474-0.004h-0.147c-0.168,0-0.339,0.002-0.502,0.008
			C127.285-27.937,127.129-27.929,126.985-27.917z"/>
		<path fill="#231F20" d="M132.567-32.136c0-0.123-0.018-0.21-0.047-0.262c-0.031-0.047-0.092-0.081-0.18-0.104l-0.479-0.09v-0.204
			c0.17,0.007,0.37,0.006,0.602-0.003c0.229-0.006,0.466-0.017,0.712-0.026c0.246-0.009,0.484-0.021,0.721-0.028
			c0.233-0.007,0.438-0.011,0.613-0.011c0.396,0.005,0.768,0.062,1.11,0.162c0.344,0.104,0.644,0.257,0.895,0.46
			c0.253,0.206,0.452,0.458,0.596,0.759c0.146,0.302,0.218,0.649,0.218,1.041c0,0.37-0.07,0.712-0.215,1.022
			c-0.142,0.309-0.334,0.574-0.578,0.791c-0.246,0.221-0.529,0.393-0.855,0.514c-0.323,0.12-0.672,0.178-1.045,0.174l-1.254-0.031
			h-1.595v-0.193l0.558-0.132c0.083-0.017,0.141-0.049,0.175-0.101c0.034-0.052,0.052-0.15,0.052-0.295v-3.443H132.567z
			 M133.378-28.878c0,0.083,0.02,0.163,0.062,0.244c0.039,0.078,0.104,0.152,0.188,0.217c0.088,0.064,0.191,0.116,0.324,0.155
			c0.126,0.038,0.278,0.058,0.455,0.058c0.31,0,0.585-0.053,0.827-0.158c0.241-0.106,0.448-0.258,0.616-0.453
			c0.168-0.195,0.295-0.434,0.38-0.711c0.083-0.279,0.126-0.595,0.126-0.945c0-0.331-0.051-0.627-0.154-0.891
			c-0.104-0.263-0.253-0.484-0.448-0.664c-0.197-0.181-0.437-0.322-0.716-0.419c-0.282-0.099-0.601-0.146-0.955-0.146
			c-0.197,0-0.338,0.006-0.419,0.021c-0.082,0.016-0.142,0.036-0.179,0.062c-0.071,0.059-0.108,0.182-0.108,0.372V-28.878
			L133.378-28.878z"/>
		<path fill="#231F20" d="M140.63-29.814h-2.02c-0.01,0.052-0.017,0.09-0.021,0.116c0,0.025-0.003,0.064-0.003,0.116
			c0,0.18,0.023,0.346,0.078,0.495c0.051,0.149,0.124,0.278,0.217,0.386s0.204,0.192,0.336,0.254
			c0.132,0.059,0.28,0.087,0.445,0.087c0.181,0,0.349-0.028,0.5-0.087c0.149-0.062,0.312-0.174,0.483-0.338l0.029,0.147
			c-0.07,0.113-0.153,0.218-0.244,0.317c-0.09,0.097-0.191,0.184-0.307,0.258c-0.111,0.075-0.241,0.133-0.385,0.175
			c-0.146,0.04-0.308,0.062-0.489,0.062c-0.204,0-0.396-0.039-0.562-0.115c-0.171-0.078-0.318-0.188-0.442-0.33
			c-0.124-0.14-0.22-0.309-0.29-0.506c-0.068-0.196-0.104-0.41-0.104-0.643c0-0.236,0.039-0.453,0.112-0.652
			c0.075-0.193,0.18-0.365,0.313-0.509c0.135-0.144,0.298-0.257,0.486-0.337c0.192-0.081,0.402-0.119,0.636-0.119
			c0.2,0,0.375,0.029,0.526,0.092c0.15,0.062,0.275,0.15,0.375,0.261c0.1,0.109,0.178,0.239,0.231,0.391
			C140.589-30.146,140.62-29.984,140.63-29.814z M138.648-30.053h0.913c0.104,0,0.186-0.015,0.236-0.04
			c0.056-0.024,0.072-0.09,0.058-0.193c-0.015-0.145-0.058-0.271-0.126-0.375c-0.07-0.106-0.188-0.16-0.351-0.16
			c-0.188,0-0.341,0.066-0.468,0.199C138.789-30.492,138.699-30.302,138.648-30.053z"/>
		<path fill="#231F20" d="M143.083-30.08c-0.016-0.074-0.042-0.155-0.081-0.236c-0.039-0.084-0.09-0.161-0.15-0.229
			c-0.062-0.069-0.134-0.126-0.217-0.174c-0.083-0.048-0.178-0.072-0.285-0.072c-0.15,0-0.276,0.033-0.38,0.094
			c-0.104,0.062-0.156,0.172-0.156,0.327c0,0.149,0.073,0.262,0.215,0.343s0.342,0.159,0.6,0.236
			c0.318,0.104,0.541,0.232,0.665,0.388c0.124,0.154,0.188,0.334,0.188,0.543c0,0.18-0.036,0.336-0.104,0.467
			c-0.07,0.132-0.163,0.24-0.28,0.325s-0.251,0.146-0.401,0.185c-0.152,0.039-0.312,0.059-0.476,0.059
			c-0.188,0-0.36-0.017-0.523-0.049c-0.159-0.033-0.302-0.084-0.421-0.152l-0.078-0.92h0.172c0.071,0.276,0.188,0.494,0.348,0.646
			c0.158,0.152,0.354,0.228,0.58,0.228c0.168,0,0.309-0.041,0.426-0.127c0.119-0.086,0.178-0.21,0.178-0.376
			c0-0.148-0.056-0.268-0.17-0.355c-0.111-0.087-0.295-0.168-0.541-0.241c-0.364-0.102-0.623-0.229-0.77-0.377
			c-0.148-0.15-0.223-0.352-0.223-0.604c0-0.14,0.034-0.266,0.101-0.375c0.068-0.111,0.156-0.205,0.266-0.279
			c0.107-0.076,0.233-0.132,0.378-0.172c0.145-0.039,0.294-0.057,0.45-0.057c0.158,0,0.312,0.016,0.455,0.046
			c0.144,0.03,0.27,0.077,0.37,0.139l0.049,0.772h-0.183V-30.08z"/>
		<path fill="#231F20" d="M145.654-27.917c-0.083-0.012-0.201-0.02-0.357-0.023c-0.153-0.006-0.333-0.008-0.54-0.008
			s-0.388,0.002-0.541,0.008c-0.155,0.004-0.275,0.012-0.357,0.023v-0.172l0.349-0.076c0.161-0.031,0.24-0.126,0.24-0.285v-1.458
			c0-0.123-0.03-0.213-0.093-0.269c-0.061-0.058-0.188-0.106-0.372-0.146v-0.156c0.094-0.019,0.188-0.048,0.287-0.089
			c0.099-0.037,0.195-0.082,0.285-0.13c0.093-0.05,0.18-0.104,0.256-0.159c0.077-0.057,0.142-0.12,0.188-0.188
			c0.028,0,0.059,0.002,0.087,0.004c0.029,0.004,0.057,0.006,0.081,0.006v2.607c0,0.076,0.012,0.135,0.036,0.176
			c0.021,0.036,0.064,0.064,0.134,0.081l0.318,0.083L145.654-27.917L145.654-27.917z M144.841-32.677
			c0.117,0,0.219,0.041,0.307,0.127c0.083,0.086,0.127,0.188,0.127,0.307c0,0.104-0.044,0.197-0.132,0.281
			c-0.087,0.085-0.191,0.129-0.309,0.129c-0.12,0-0.217-0.041-0.295-0.122c-0.075-0.08-0.117-0.177-0.117-0.288
			c0-0.118,0.042-0.221,0.124-0.307C144.629-32.636,144.727-32.677,144.841-32.677z"/>
		<path fill="#231F20" d="M147.262-27.972c-0.195,0-0.368-0.035-0.521-0.105c-0.153-0.068-0.28-0.165-0.383-0.285
			c-0.104-0.122-0.183-0.269-0.235-0.437c-0.055-0.173-0.083-0.358-0.083-0.559c0-0.259,0.041-0.487,0.124-0.688
			c0.083-0.201,0.194-0.371,0.334-0.508c0.139-0.137,0.302-0.24,0.483-0.312c0.184-0.073,0.378-0.109,0.582-0.109
			c0.146,0,0.272,0.011,0.38,0.031c0.109,0.021,0.2,0.044,0.272,0.07c0.088,0.025,0.158,0.057,0.217,0.093l0.479-0.287l0.069,0.022
			v2.936c0,0.194-0.038,0.377-0.113,0.545c-0.078,0.167-0.186,0.312-0.323,0.438c-0.137,0.122-0.3,0.22-0.49,0.292
			c-0.188,0.072-0.401,0.109-0.628,0.109c-0.282,0-0.512-0.021-0.68-0.062c-0.17-0.043-0.301-0.094-0.388-0.155
			c-0.088-0.062-0.146-0.131-0.173-0.207c-0.028-0.072-0.044-0.143-0.044-0.203c0-0.104,0.031-0.182,0.092-0.232
			c0.063-0.051,0.143-0.078,0.239-0.078s0.17,0.016,0.217,0.051c0.049,0.032,0.083,0.075,0.109,0.123
			c0.026,0.049,0.049,0.104,0.064,0.164c0.019,0.059,0.05,0.114,0.089,0.162c0.044,0.049,0.1,0.09,0.176,0.124
			c0.075,0.031,0.183,0.051,0.32,0.051c0.272,0,0.479-0.083,0.623-0.248c0.143-0.167,0.213-0.424,0.213-0.773v-0.86
			c-0.029,0.113-0.073,0.225-0.128,0.333c-0.056,0.108-0.12,0.204-0.203,0.286c-0.085,0.083-0.184,0.15-0.295,0.201
			C147.544-28,147.412-27.972,147.262-27.972z M148.284-29.614c0-0.128-0.008-0.259-0.026-0.386
			c-0.019-0.129-0.052-0.244-0.101-0.345c-0.052-0.101-0.121-0.185-0.217-0.249c-0.096-0.062-0.222-0.096-0.378-0.096
			c-0.093,0-0.185,0.02-0.279,0.057c-0.098,0.039-0.184,0.104-0.257,0.194c-0.074,0.09-0.134,0.21-0.183,0.356
			c-0.046,0.146-0.067,0.328-0.067,0.547c0,0.152,0.016,0.302,0.041,0.443c0.029,0.143,0.07,0.264,0.127,0.369
			c0.059,0.102,0.135,0.185,0.228,0.248c0.09,0.06,0.199,0.093,0.323,0.093s0.235-0.034,0.334-0.103
			c0.098-0.066,0.18-0.157,0.246-0.267c0.067-0.11,0.118-0.239,0.154-0.388c0.034-0.146,0.055-0.297,0.055-0.451V-29.614z"/>
		<path fill="#231F20" d="M153.206-27.926c-0.269-0.015-0.557-0.021-0.857-0.021c-0.305,0-0.592,0.008-0.862,0.021v-0.163
			l0.334-0.061c0.114-0.016,0.172-0.116,0.172-0.301v-1.309c0-0.125-0.006-0.238-0.019-0.338c-0.015-0.1-0.039-0.186-0.078-0.252
			s-0.095-0.119-0.168-0.154c-0.069-0.035-0.168-0.055-0.284-0.055c-0.14,0-0.279,0.039-0.424,0.116
			c-0.142,0.078-0.271,0.178-0.39,0.304v1.771c0,0.081,0.062,0.139,0.188,0.17l0.316,0.107v0.163
			c-0.088-0.011-0.178-0.016-0.268-0.019c-0.092-0.004-0.218-0.004-0.375-0.004h-0.249c-0.171,0-0.331,0-0.487,0.004
			c-0.153,0.003-0.277,0.008-0.365,0.019v-0.163l0.365-0.076c0.103-0.025,0.156-0.104,0.156-0.232v-1.533
			c0-0.16-0.034-0.269-0.099-0.324c-0.062-0.057-0.18-0.099-0.343-0.125v-0.139c0.08-0.02,0.17-0.047,0.265-0.081
			c0.097-0.034,0.188-0.077,0.28-0.133c0.088-0.054,0.173-0.116,0.254-0.188c0.08-0.073,0.145-0.157,0.189-0.257h0.171v0.729
			c0.17-0.181,0.356-0.324,0.562-0.43c0.202-0.106,0.396-0.158,0.574-0.158c0.3,0,0.533,0.087,0.701,0.262
			c0.168,0.178,0.251,0.441,0.251,0.797v1.504c0,0.098,0.013,0.17,0.039,0.221c0.023,0.047,0.075,0.081,0.156,0.104l0.292,0.061
			v0.163H153.206z"/>
	</g>
	<circle fill="#ED1E27" cx="123.726" cy="-29.431" r="1.068"/>
	<g>
		<path fill="#2B2B2C" stroke="#2B2B2C" stroke-width="0.15" stroke-miterlimit="10" d="M93.706,27.139h3.88
			c0.12-0.025,0.212-0.009,0.272,0.055c0.062,0.058,0.094,0.129,0.094,0.205c0,0.08-0.029,0.15-0.086,0.211
			c-0.059,0.062-0.142,0.078-0.257,0.053H85.857c-0.11,0.025-0.195,0.01-0.257-0.053c-0.054-0.061-0.081-0.131-0.081-0.211
			c0-0.076,0.027-0.147,0.081-0.205c0.062-0.062,0.146-0.08,0.257-0.055h3.903v-2.445c0-0.312-0.138-0.465-0.415-0.465h-1.699
			c-0.313,0-0.53-0.065-0.65-0.184c-0.122-0.122-0.185-0.351-0.185-0.679v-2.873c0-0.324,0.062-0.545,0.185-0.668
			c0.12-0.123,0.337-0.183,0.65-0.183h1.593c0.281,0,0.421-0.161,0.421-0.481v-2.025h-3.334c-0.127,0-0.217-0.019-0.255-0.05
			c-0.047-0.037-0.068-0.102-0.068-0.196c0-0.105,0.023-0.177,0.074-0.219c0.048-0.036,0.13-0.057,0.249-0.057h10.763
			c0.123,0,0.206,0.021,0.254,0.057c0.048,0.042,0.076,0.113,0.076,0.219c0,0.095-0.025,0.159-0.07,0.196
			c-0.042,0.031-0.13,0.05-0.26,0.05h-3.459v2.037c0,0.324,0.135,0.482,0.414,0.482h1.792c0.313,0,0.526,0.061,0.648,0.182
			c0.124,0.124,0.186,0.347,0.186,0.67v2.859c0,0.328-0.062,0.557-0.186,0.679c-0.122,0.118-0.335,0.184-0.648,0.184h-1.714
			c-0.275,0-0.415,0.153-0.415,0.465V27.139z M90.324,27.139h2.82v-2.586c0-0.558,0.28-0.832,0.849-0.832h1.712
			c0.112,0,0.206-0.048,0.285-0.14c0.079-0.09,0.117-0.207,0.117-0.345v-2.598c0-0.314-0.134-0.472-0.402-0.472h-1.816
			c-0.312,0-0.527-0.06-0.644-0.176c-0.119-0.119-0.178-0.343-0.178-0.671v-2.184h-2.846v2.155c0,0.331-0.062,0.557-0.185,0.681
			c-0.122,0.123-0.336,0.183-0.654,0.183h-1.607c-0.27,0-0.402,0.157-0.402,0.469v2.612c0,0.138,0.036,0.255,0.116,0.345
			c0.079,0.092,0.176,0.14,0.286,0.14h1.698c0.331,0,0.557,0.056,0.676,0.173c0.114,0.12,0.175,0.336,0.175,0.645V27.139z"/>
		<path fill="#2B2B2C" stroke="#2B2B2C" stroke-width="0.15" stroke-miterlimit="10" d="M114.489,26.954
			c0,0.37-0.065,0.62-0.205,0.763c-0.144,0.135-0.369,0.209-0.694,0.209h-9.178c-0.313,0-0.538-0.074-0.675-0.209
			c-0.134-0.143-0.201-0.393-0.201-0.763v-9.41c0-0.366,0.066-0.616,0.198-0.745c0.127-0.128,0.355-0.196,0.678-0.196h9.178
			c0.332,0,0.563,0.07,0.7,0.211c0.134,0.138,0.199,0.382,0.199,0.73V26.954L114.489,26.954z M113.956,26.954v-9.438
			c0-0.275-0.123-0.414-0.38-0.414h-9.165c-0.238,0-0.351,0.139-0.351,0.414v9.438c0,0.135,0.031,0.241,0.104,0.323
			c0.067,0.084,0.151,0.127,0.246,0.127h9.165C113.833,27.404,113.956,27.254,113.956,26.954z M108.8,21.369h-3.698
			c-0.163,0-0.248-0.074-0.248-0.225c0-0.145,0.085-0.218,0.248-0.218h3.698v-0.825h-2.156c-0.33,0-0.561-0.053-0.689-0.153
			c-0.135-0.104-0.197-0.284-0.197-0.538v-0.626c0-0.259,0.062-0.449,0.197-0.563c0.13-0.111,0.359-0.17,0.689-0.17h4.807
			c0.322,0,0.552,0.059,0.685,0.17c0.136,0.114,0.2,0.305,0.2,0.563v0.626c0,0.254-0.062,0.434-0.195,0.538
			c-0.13,0.101-0.356,0.153-0.688,0.153h-2.13v0.825h3.686c0.089-0.021,0.147,0,0.193,0.051c0.045,0.054,0.066,0.113,0.066,0.178
			c0,0.065-0.021,0.122-0.066,0.169c-0.046,0.05-0.104,0.062-0.193,0.045h-3.686v0.75h2.51c0.294,0,0.505,0.055,0.632,0.179
			c0.126,0.12,0.188,0.339,0.188,0.649v2.51c0,0.313-0.062,0.533-0.188,0.657c-0.127,0.13-0.343,0.191-0.657,0.191h-5.604
			c-0.292,0-0.506-0.062-0.627-0.191c-0.122-0.124-0.184-0.353-0.184-0.686v-2.481c0-0.311,0.062-0.529,0.184-0.649
			c0.121-0.124,0.335-0.179,0.627-0.179h2.601v-0.75H108.8z M112.171,25.429v-2.481c0-0.128-0.042-0.233-0.109-0.316
			c-0.067-0.085-0.163-0.126-0.285-0.126h-5.474c-0.26,0-0.391,0.15-0.391,0.442v2.481c0,0.143,0.037,0.253,0.112,0.333
			c0.073,0.085,0.165,0.125,0.277,0.125h5.474C112.038,25.887,112.171,25.736,112.171,25.429z M111.853,19.33v-0.453
			c0-0.253-0.157-0.379-0.469-0.379h-4.66c-0.14,0-0.253,0.035-0.34,0.104c-0.087,0.07-0.133,0.159-0.133,0.274v0.453
			c0,0.246,0.158,0.367,0.473,0.367h4.66c0.14,0,0.252-0.033,0.342-0.103C111.813,19.523,111.853,19.437,111.853,19.33z
			 M110.863,24.309c0,0.277-0.074,0.479-0.215,0.604c-0.145,0.126-0.393,0.19-0.733,0.19h-1.964c-0.312,0-0.528-0.056-0.641-0.163
			c-0.113-0.109-0.17-0.318-0.17-0.632v-0.196c0-0.321,0.058-0.542,0.179-0.66c0.114-0.117,0.327-0.177,0.632-0.177h2.075
			c0.313,0,0.53,0.062,0.651,0.185c0.123,0.12,0.186,0.339,0.186,0.652V24.309z M110.392,24.267v-0.154
			c0-0.297-0.141-0.447-0.42-0.447h-1.955c-0.27,0-0.407,0.15-0.407,0.447v0.154c0,0.133,0.04,0.24,0.121,0.328
			c0.075,0.088,0.169,0.129,0.286,0.129h1.955C110.251,24.724,110.392,24.57,110.392,24.267z"/>
		<path fill="#2B2B2C" stroke="#2B2B2C" stroke-width="0.15" stroke-miterlimit="10" d="M124.434,18.141
			c0.122,0,0.181,0.08,0.181,0.235c0,0.149-0.059,0.224-0.181,0.224h-4.923c-0.132,0-0.196-0.074-0.196-0.224
			c0-0.155,0.064-0.235,0.196-0.235H124.434z M123.964,21.786c0.078,0,0.13,0.015,0.155,0.05c0.009,0.02,0.021,0.048,0.033,0.094
			c0.014,0.041,0.014,0.089,0.006,0.136c-0.01,0.047-0.027,0.089-0.06,0.122c-0.032,0.037-0.078,0.054-0.136,0.054h-3.865
			c-0.129,0-0.197-0.074-0.197-0.223c0-0.156,0.068-0.232,0.197-0.232L123.964,21.786L123.964,21.786z M123.976,19.957
			c0.13,0,0.197,0.062,0.197,0.185c0,0.111-0.015,0.187-0.045,0.221c-0.033,0.034-0.082,0.051-0.152,0.051h-3.839
			c-0.139,0-0.21-0.072-0.21-0.223c0-0.158,0.071-0.233,0.21-0.233L123.976,19.957L123.976,19.957z M124.063,26.839
			c0,0.331-0.049,0.556-0.16,0.679c-0.107,0.117-0.3,0.18-0.568,0.18h-2.637c-0.276,0-0.472-0.061-0.583-0.18
			c-0.104-0.123-0.159-0.348-0.159-0.679v-2.273c0-0.408,0.055-0.676,0.159-0.8c0.111-0.128,0.32-0.19,0.619-0.19h2.525
			c0.316,0,0.535,0.062,0.644,0.195c0.111,0.131,0.16,0.393,0.16,0.795V26.839z M123.584,26.76v-2.272
			c0-0.147-0.034-0.266-0.106-0.354c-0.067-0.087-0.152-0.13-0.257-0.13h-2.418c-0.104,0-0.189,0.043-0.26,0.13
			c-0.071,0.088-0.104,0.206-0.104,0.354v2.272c0,0.139,0.035,0.26,0.107,0.354c0.075,0.097,0.162,0.144,0.257,0.144h2.418
			C123.464,27.256,123.584,27.089,123.584,26.76z M122.719,17.515c0,0.036-0.011,0.076-0.037,0.116
			c-0.024,0.046-0.06,0.073-0.111,0.087c-0.043,0.012-0.102,0.005-0.158-0.021c-0.063-0.028-0.127-0.096-0.199-0.209
			c-0.106-0.177-0.228-0.354-0.372-0.542c-0.141-0.184-0.301-0.382-0.476-0.581c-0.097-0.096-0.146-0.185-0.146-0.269
			c0-0.078,0.029-0.142,0.078-0.174c0.055-0.036,0.116-0.055,0.189-0.055s0.184,0.096,0.334,0.286l0.56,0.746
			C122.609,17.208,122.719,17.411,122.719,17.515z M127.566,25.702c-1.079-1.002-1.84-2.18-2.285-3.538h-0.243
			c-0.15,0-0.226-0.085-0.226-0.261c0-0.184,0.079-0.276,0.233-0.276h4.547c0.529,0,0.795,0.205,0.795,0.614
			c0,0.339-0.193,0.858-0.578,1.553c-0.188,0.35-0.409,0.681-0.65,0.994c-0.244,0.312-0.52,0.612-0.82,0.902
			c0.765,0.609,1.719,1.141,2.858,1.591c0.209,0.082,0.312,0.184,0.312,0.312c0,0.19-0.079,0.288-0.234,0.288
			c-0.142,0-0.554-0.169-1.237-0.508c-0.697-0.349-1.391-0.797-2.077-1.346c-0.574,0.47-1.25,0.875-2.026,1.227
			c-0.747,0.347-1.191,0.522-1.329,0.522c-0.123,0-0.204-0.032-0.242-0.092c-0.04-0.062-0.057-0.121-0.057-0.185
			c0-0.138,0.137-0.247,0.413-0.323C125.754,26.873,126.704,26.378,127.566,25.702z M129.693,19.788c0,0.173,0.023,0.307,0.078,0.39
			c0.055,0.099,0.12,0.159,0.197,0.185c0.041,0.009,0.115,0.016,0.214,0.02c0.102,0.005,0.234,0,0.398-0.008h0.893
			c0.16,0,0.243,0.09,0.243,0.264c0,0.174-0.061,0.268-0.183,0.287c-0.061,0.007-0.163,0.01-0.312,0.01c-0.149,0-0.339,0-0.561,0
			c-0.483,0-0.8-0.029-0.956-0.089c-0.342-0.117-0.509-0.48-0.509-1.097v-2.143c0-0.261-0.035-0.43-0.105-0.509
			c-0.072-0.079-0.229-0.117-0.468-0.117h-1.594c-0.262,0-0.412,0.048-0.447,0.144c-0.043,0.096-0.062,0.277-0.062,0.534
			c0,0.555-0.061,1.045-0.171,1.46c-0.121,0.446-0.39,0.922-0.809,1.427c-0.438,0.515-0.746,0.773-0.93,0.773
			c-0.043-0.011-0.087-0.03-0.132-0.062c-0.041-0.03-0.07-0.067-0.089-0.111c-0.017-0.045-0.017-0.095,0-0.157
			c0.019-0.061,0.067-0.123,0.155-0.183c0.264-0.235,0.488-0.464,0.673-0.69c0.189-0.228,0.339-0.467,0.457-0.726
			c0.121-0.257,0.203-0.529,0.254-0.821c0.054-0.293,0.08-0.62,0.08-0.984c0-0.403,0.048-0.69,0.152-0.859
			c0.099-0.165,0.278-0.25,0.539-0.25h2.182c0.331,0,0.546,0.057,0.653,0.182c0.103,0.119,0.153,0.358,0.153,0.719v2.411H129.693z
			 M125.788,22.164c0.402,1.227,1.119,2.299,2.157,3.214c0.624-0.576,1.104-1.183,1.436-1.817c0.333-0.635,0.496-1.045,0.496-1.226
			c0-0.061-0.023-0.106-0.067-0.133c-0.041-0.026-0.133-0.038-0.271-0.038H125.788z"/>
		<path fill="#2B2B2C" stroke="#2B2B2C" stroke-width="0.15" stroke-miterlimit="10" d="M142.104,18.117
			c0.142,0,0.211,0.064,0.211,0.195s-0.016,0.211-0.044,0.24c-0.032,0.029-0.086,0.047-0.167,0.047h-5.727
			c-0.144,0-0.212-0.079-0.212-0.236c0-0.164,0.068-0.246,0.212-0.246H142.104z M141.335,21.747c0.078,0,0.133,0.018,0.158,0.05
			c0.033,0.035,0.052,0.119,0.052,0.249c0,0.121-0.068,0.183-0.21,0.183h-4.228c-0.148,0-0.226-0.062-0.226-0.183
			c0-0.13,0.016-0.214,0.046-0.249c0.03-0.032,0.091-0.05,0.18-0.05H141.335z M141.35,19.904c0.148,0,0.222,0.082,0.222,0.25
			c0,0.163-0.072,0.243-0.222,0.243h-4.203c-0.16,0-0.233-0.08-0.233-0.243c0-0.168,0.073-0.25,0.233-0.25H141.35z M141.597,26.902
			c0,0.324-0.062,0.553-0.196,0.687c-0.127,0.136-0.354,0.202-0.679,0.202H137.8c-0.323,0-0.554-0.064-0.688-0.195
			c-0.137-0.131-0.2-0.363-0.2-0.693v-2.296c0-0.418,0.066-0.704,0.207-0.857c0.139-0.15,0.383-0.226,0.732-0.226h2.777
			c0.368,0,0.617,0.075,0.759,0.226c0.139,0.153,0.208,0.439,0.208,0.857L141.597,26.902L141.597,26.902z M141.075,26.839v-2.338
			c0-0.157-0.034-0.28-0.111-0.37c-0.075-0.095-0.177-0.14-0.31-0.14h-2.803c-0.126,0-0.223,0.045-0.295,0.14
			c-0.077,0.09-0.115,0.213-0.115,0.37v2.338c0,0.156,0.038,0.279,0.115,0.371c0.072,0.093,0.169,0.142,0.295,0.142h2.803
			C140.936,27.352,141.075,27.18,141.075,26.839z M140.018,17.583c-0.007,0.023-0.027,0.064-0.058,0.108
			c-0.03,0.05-0.072,0.083-0.119,0.109c-0.047,0.027-0.106,0.027-0.177-0.002c-0.068-0.037-0.148-0.114-0.234-0.243
			c-0.175-0.228-0.34-0.438-0.499-0.628c-0.167-0.192-0.317-0.362-0.453-0.507c-0.149-0.167-0.191-0.298-0.136-0.395
			c0.054-0.093,0.143-0.143,0.263-0.143c0.07,0,0.192,0.103,0.367,0.31c0.088,0.101,0.188,0.208,0.286,0.342
			c0.11,0.134,0.226,0.272,0.353,0.417C139.882,17.251,140.018,17.458,140.018,17.583z M144.887,20.061v-4.023
			c-0.025-0.106-0.009-0.194,0.051-0.245c0.064-0.051,0.132-0.078,0.205-0.078c0.072,0,0.138,0.027,0.194,0.085
			c0.059,0.057,0.078,0.137,0.059,0.238v4.023h2.755c0.081,0,0.143,0.024,0.186,0.067c0.044,0.041,0.064,0.13,0.064,0.259
			c0,0.141-0.082,0.212-0.25,0.212h-2.755v7.219c0,0.121-0.018,0.203-0.059,0.25c-0.036,0.043-0.106,0.063-0.199,0.063
			c-0.1,0-0.162-0.017-0.2-0.047c-0.031-0.028-0.051-0.121-0.051-0.269v-7.218h-2.728c-0.099,0-0.159-0.02-0.197-0.054
			c-0.032-0.035-0.051-0.122-0.051-0.26c0-0.148,0.082-0.225,0.248-0.225h2.728V20.061z"/>
	</g>
	<g>
		<path fill="#231F20" d="M87.455,34.188l-0.612,1.666c-0.023,0.084-0.032,0.146-0.016,0.188c0.016,0.039,0.097,0.064,0.236,0.075
			l0.535,0.04v0.191c-0.057-0.004-0.162-0.011-0.322-0.012c-0.163-0.005-0.382-0.005-0.653-0.005c-0.276,0-0.495,0-0.656,0.005
			c-0.162,0.001-0.269,0.008-0.322,0.012v-0.191l0.5-0.04c0.176-0.013,0.297-0.113,0.365-0.294l1.826-4.732h0.325l1.757,4.68
			c0.037,0.09,0.069,0.147,0.104,0.184c0.03,0.029,0.09,0.061,0.174,0.086l0.437,0.135v0.184c-0.099-0.004-0.233-0.012-0.407-0.016
			c-0.174-0.008-0.356-0.009-0.56-0.009H89.6c-0.351,0-0.646,0.009-0.882,0.022v-0.183l0.519-0.077
			c0.07-0.013,0.131-0.025,0.175-0.039c0.04-0.015,0.066-0.029,0.083-0.056c0.012-0.022,0.016-0.052,0.012-0.086
			c-0.007-0.035-0.02-0.078-0.04-0.134l-0.589-1.594H87.455z M88.766,33.902l-0.572-1.709l-0.627,1.709H88.766z"/>
		<path fill="#231F20" d="M91.3,36.361v-0.125l0.3-0.071c0.105-0.032,0.174-0.073,0.204-0.125c0.029-0.052,0.043-0.146,0.043-0.28
			v-1.525c0-0.106-0.021-0.182-0.062-0.235c-0.042-0.049-0.144-0.086-0.304-0.114l-0.167-0.031l0.009-0.135
			c0.204-0.058,0.411-0.146,0.611-0.262c0.202-0.118,0.361-0.277,0.482-0.477h0.146l0.03,0.938c0.04-0.096,0.09-0.182,0.142-0.26
			c0.053-0.075,0.126-0.161,0.216-0.258c0.092-0.096,0.177-0.159,0.257-0.189c0.085-0.031,0.16-0.049,0.229-0.049
			c0.132,0,0.242,0.039,0.329,0.113c0.088,0.08,0.134,0.193,0.134,0.35c0,0.141-0.036,0.254-0.102,0.335
			c-0.066,0.083-0.16,0.125-0.282,0.125c-0.062,0-0.118-0.017-0.168-0.045c-0.046-0.03-0.089-0.062-0.129-0.099
			s-0.078-0.07-0.116-0.1c-0.036-0.027-0.072-0.045-0.104-0.045c-0.047,0-0.091,0.02-0.132,0.059
			c-0.044,0.041-0.084,0.09-0.121,0.148c-0.035,0.059-0.066,0.123-0.093,0.193c-0.021,0.07-0.037,0.139-0.044,0.203
			c-0.004,0.054-0.011,0.1-0.015,0.143c-0.006,0.045-0.006,0.084,0,0.121v1.109c0,0.131,0.022,0.219,0.073,0.261
			c0.045,0.036,0.141,0.077,0.283,0.112l0.406,0.08v0.127c-0.128-0.012-0.271-0.018-0.43-0.019c-0.159-0.005-0.32-0.005-0.486-0.005
			h-0.149c-0.174,0-0.348,0.001-0.517,0.009C91.605,36.344,91.449,36.352,91.3,36.361z"/>
		<path fill="#231F20" d="M95.396,32.503h0.143c0,0.144,0.003,0.281,0.005,0.425c0.005,0.143,0.005,0.282,0.005,0.424l1.022-0.021
			v0.341l-1.022,0.031v1.5c0,0.267,0.022,0.467,0.076,0.601c0.05,0.137,0.173,0.197,0.365,0.186c0.082,0,0.172-0.01,0.271-0.034
			c0.097-0.024,0.204-0.079,0.328-0.171l0.071,0.111c-0.09,0.142-0.219,0.269-0.387,0.385c-0.165,0.121-0.391,0.181-0.671,0.181
			c-0.281,0-0.482-0.073-0.606-0.22c-0.125-0.145-0.188-0.404-0.188-0.78v-1.739c-0.074,0-0.146,0-0.215,0.002
			c-0.067,0.002-0.142,0.004-0.216,0.004c-0.073,0-0.11-0.025-0.112-0.086c-0.004-0.058,0.031-0.104,0.106-0.135
			c0.108-0.048,0.212-0.098,0.306-0.152c0.093-0.051,0.167-0.107,0.225-0.166c0.06-0.057,0.142-0.145,0.247-0.262
			C95.257,32.809,95.34,32.667,95.396,32.503z"/>
		<path fill="#231F20" d="M99.686,35.854v-4.01c0-0.091-0.016-0.152-0.044-0.191s-0.08-0.059-0.154-0.063l-0.579-0.071v-0.172
			c0.053,0.012,0.607,0.022,1.668,0.022c0.312,0,0.561-0.011,0.748-0.022v0.182l-0.485,0.062c-0.105,0.013-0.181,0.027-0.227,0.054
			c-0.046,0.021-0.068,0.09-0.068,0.203v4.01c0,0.098,0.014,0.158,0.041,0.184c0.024,0.029,0.078,0.042,0.158,0.047l0.581,0.039
			v0.238c-0.105-0.01-0.26-0.02-0.457-0.021c-0.2-0.008-0.449-0.009-0.751-0.009c-0.304,0-0.555,0.001-0.75,0.009
			c-0.2,0.004-0.354,0.012-0.458,0.021v-0.238l0.491-0.029c0.111-0.018,0.187-0.035,0.229-0.054
			C99.665,36.02,99.686,35.962,99.686,35.854z"/>
		<path fill="#231F20" d="M105.588,36.354c-0.276-0.015-0.571-0.022-0.883-0.022c-0.312,0-0.605,0.009-0.881,0.022v-0.168
			l0.341-0.062c0.117-0.016,0.174-0.117,0.174-0.307v-1.344c0-0.129-0.007-0.244-0.021-0.347c-0.012-0.104-0.039-0.19-0.077-0.26
			c-0.039-0.067-0.098-0.121-0.171-0.158c-0.075-0.036-0.173-0.054-0.295-0.054c-0.144,0-0.287,0.037-0.434,0.117
			s-0.281,0.183-0.4,0.312V35.9c0,0.082,0.062,0.144,0.188,0.175l0.328,0.11v0.168c-0.091-0.013-0.183-0.019-0.275-0.02
			c-0.093-0.005-0.22-0.005-0.385-0.005h-0.253c-0.175,0-0.343,0-0.502,0.005c-0.158,0.001-0.283,0.007-0.374,0.02v-0.168
			l0.374-0.078c0.107-0.026,0.159-0.106,0.159-0.237v-1.574c0-0.164-0.034-0.274-0.099-0.332c-0.064-0.06-0.187-0.103-0.355-0.128
			v-0.145c0.085-0.021,0.178-0.047,0.273-0.082c0.101-0.037,0.196-0.08,0.287-0.137c0.093-0.058,0.182-0.119,0.262-0.191
			c0.082-0.075,0.147-0.161,0.194-0.264h0.176v0.744c0.177-0.183,0.367-0.33,0.575-0.441c0.209-0.104,0.407-0.16,0.592-0.16
			c0.308,0,0.55,0.091,0.719,0.27c0.175,0.184,0.259,0.453,0.259,0.818v1.542c0,0.101,0.015,0.176,0.041,0.228
			c0.023,0.049,0.078,0.084,0.159,0.104l0.302,0.063L105.588,36.354L105.588,36.354z"/>
		<path fill="#231F20" d="M107.056,32.503h0.144c0,0.144,0.002,0.281,0.003,0.425c0.005,0.143,0.006,0.282,0.006,0.424l1.023-0.021
			v0.341l-1.023,0.031v1.5c0,0.267,0.023,0.467,0.076,0.601c0.05,0.137,0.174,0.197,0.37,0.186c0.077,0,0.165-0.01,0.264-0.034
			c0.1-0.024,0.21-0.079,0.331-0.171l0.067,0.111c-0.088,0.142-0.217,0.269-0.385,0.385c-0.164,0.121-0.389,0.181-0.669,0.181
			c-0.282,0-0.483-0.073-0.608-0.22c-0.124-0.145-0.186-0.404-0.186-0.78v-1.739c-0.075,0-0.146,0-0.215,0.002
			c-0.067,0.002-0.142,0.004-0.214,0.004c-0.074,0-0.112-0.025-0.116-0.086c-0.001-0.058,0.034-0.104,0.108-0.135
			c0.107-0.048,0.212-0.098,0.306-0.152c0.092-0.051,0.167-0.107,0.226-0.166c0.062-0.057,0.142-0.145,0.247-0.262
			S106.997,32.667,107.056,32.503z"/>
		<path fill="#231F20" d="M111.48,34.417h-2.072c-0.01,0.054-0.018,0.093-0.021,0.119c-0.003,0.026-0.004,0.065-0.004,0.118
			c0,0.186,0.027,0.354,0.078,0.508c0.055,0.154,0.129,0.285,0.224,0.396c0.095,0.112,0.211,0.198,0.346,0.262
			c0.134,0.059,0.287,0.09,0.457,0.09c0.187,0,0.355-0.031,0.513-0.09c0.155-0.062,0.321-0.178,0.496-0.348l0.032,0.151
			c-0.074,0.114-0.157,0.224-0.251,0.326c-0.093,0.098-0.195,0.188-0.313,0.264c-0.115,0.077-0.248,0.138-0.396,0.179
			c-0.146,0.043-0.313,0.064-0.499,0.064c-0.212,0-0.403-0.04-0.58-0.118c-0.175-0.081-0.327-0.192-0.455-0.34
			c-0.125-0.142-0.225-0.317-0.296-0.521c-0.07-0.201-0.106-0.422-0.106-0.656c0-0.244,0.037-0.467,0.113-0.672
			c0.076-0.197,0.188-0.373,0.324-0.521c0.136-0.149,0.304-0.265,0.498-0.349c0.196-0.084,0.413-0.122,0.651-0.122
			c0.206,0,0.387,0.032,0.54,0.097s0.281,0.152,0.386,0.266c0.102,0.112,0.184,0.246,0.238,0.401
			C111.437,34.075,111.469,34.243,111.48,34.417z M109.447,34.173h0.938c0.104,0,0.187-0.017,0.243-0.043
			c0.055-0.026,0.073-0.091,0.059-0.198c-0.016-0.146-0.059-0.275-0.131-0.384c-0.069-0.108-0.192-0.166-0.361-0.166
			c-0.189,0-0.349,0.068-0.478,0.204C109.59,33.721,109.499,33.917,109.447,34.173z"/>
		<path fill="#231F20" d="M111.932,36.361v-0.125l0.302-0.071c0.105-0.032,0.175-0.073,0.203-0.125
			c0.029-0.052,0.044-0.146,0.044-0.28v-1.525c0-0.106-0.021-0.182-0.064-0.235c-0.04-0.049-0.143-0.086-0.299-0.114l-0.168-0.031
			l0.008-0.135c0.207-0.058,0.411-0.146,0.61-0.262c0.2-0.118,0.362-0.277,0.485-0.477h0.144l0.029,0.938
			c0.044-0.096,0.092-0.182,0.146-0.26c0.053-0.075,0.124-0.161,0.215-0.258c0.091-0.096,0.174-0.159,0.259-0.189
			c0.082-0.031,0.156-0.049,0.227-0.049c0.133,0,0.24,0.039,0.328,0.113c0.088,0.08,0.134,0.193,0.134,0.35
			c0,0.141-0.033,0.254-0.102,0.335c-0.065,0.083-0.16,0.125-0.283,0.125c-0.062,0-0.116-0.017-0.164-0.045
			c-0.051-0.03-0.095-0.062-0.134-0.099c-0.038-0.037-0.076-0.07-0.115-0.1c-0.036-0.027-0.071-0.045-0.104-0.045
			c-0.046,0-0.093,0.02-0.133,0.059c-0.045,0.041-0.083,0.09-0.12,0.148c-0.038,0.059-0.066,0.123-0.09,0.193
			c-0.026,0.07-0.038,0.139-0.045,0.203c-0.006,0.054-0.012,0.1-0.019,0.143c-0.003,0.045-0.003,0.084,0,0.121v1.109
			c0,0.131,0.026,0.219,0.072,0.261c0.047,0.036,0.144,0.077,0.287,0.112l0.403,0.08v0.127c-0.127-0.012-0.27-0.018-0.431-0.019
			c-0.157-0.005-0.316-0.005-0.479-0.005h-0.152c-0.176,0-0.348,0.001-0.517,0.009C112.239,36.344,112.08,36.352,111.932,36.361z"/>
		<path fill="#231F20" d="M116.706,36.361c-0.087-0.01-0.207-0.02-0.365-0.021c-0.158-0.008-0.344-0.009-0.555-0.009
			c-0.216,0-0.399,0.001-0.559,0.009c-0.157,0.004-0.281,0.012-0.365,0.021v-0.176l0.356-0.078c0.165-0.031,0.245-0.129,0.245-0.291
			V34.32c0-0.127-0.029-0.219-0.095-0.275c-0.062-0.059-0.19-0.109-0.383-0.15v-0.162c0.1-0.02,0.195-0.047,0.294-0.09
			c0.104-0.039,0.2-0.086,0.297-0.134c0.095-0.052,0.182-0.104,0.264-0.165c0.076-0.057,0.14-0.121,0.189-0.189
			c0.029,0,0.062,0.002,0.091,0.005c0.028,0.003,0.056,0.003,0.083,0.003v2.677c0,0.078,0.011,0.14,0.036,0.181
			c0.021,0.037,0.069,0.065,0.139,0.084l0.326,0.084L116.706,36.361L116.706,36.361z M115.873,31.479
			c0.121,0,0.228,0.041,0.312,0.129c0.086,0.09,0.132,0.193,0.132,0.314c0,0.107-0.046,0.204-0.135,0.289
			c-0.09,0.089-0.197,0.133-0.319,0.133c-0.123,0-0.222-0.041-0.301-0.125c-0.08-0.082-0.121-0.181-0.121-0.297
			c0-0.121,0.044-0.227,0.127-0.314C115.655,31.521,115.756,31.479,115.873,31.479z"/>
		<path fill="#231F20" d="M121.824,36.361v-0.125l0.302-0.071c0.104-0.032,0.173-0.073,0.204-0.125
			c0.027-0.052,0.042-0.146,0.042-0.28v-1.525c0-0.106-0.021-0.182-0.063-0.235c-0.042-0.049-0.143-0.086-0.303-0.114l-0.165-0.031
			l0.006-0.135c0.206-0.058,0.411-0.146,0.613-0.262c0.202-0.118,0.362-0.277,0.483-0.477h0.145l0.031,0.938
			c0.043-0.096,0.091-0.182,0.142-0.26c0.055-0.075,0.125-0.161,0.215-0.258c0.092-0.096,0.178-0.159,0.26-0.189
			c0.08-0.031,0.156-0.049,0.225-0.049c0.135,0,0.244,0.039,0.331,0.113c0.089,0.08,0.133,0.193,0.133,0.35
			c0,0.141-0.035,0.254-0.102,0.335c-0.066,0.083-0.159,0.125-0.28,0.125c-0.065,0-0.121-0.017-0.168-0.045
			c-0.047-0.03-0.091-0.062-0.13-0.099c-0.04-0.037-0.08-0.07-0.118-0.1c-0.034-0.027-0.068-0.045-0.103-0.045
			c-0.048,0-0.092,0.02-0.133,0.059c-0.046,0.041-0.082,0.09-0.121,0.148s-0.065,0.123-0.092,0.193
			c-0.021,0.07-0.036,0.139-0.044,0.203c-0.004,0.054-0.009,0.1-0.015,0.143c-0.007,0.045-0.007,0.084,0,0.121v1.109
			c0,0.131,0.021,0.219,0.07,0.261c0.048,0.036,0.145,0.077,0.285,0.112l0.406,0.08v0.127c-0.127-0.012-0.271-0.018-0.43-0.019
			c-0.161-0.005-0.319-0.005-0.481-0.005h-0.154c-0.174,0-0.348,0.001-0.515,0.009C122.133,36.344,121.971,36.352,121.824,36.361z"
			/>
		<path fill="#231F20" d="M127.551,32.033c0-0.127-0.017-0.215-0.047-0.268c-0.032-0.05-0.095-0.084-0.186-0.105l-0.491-0.094
			v-0.211c0.175,0.008,0.38,0.008,0.616,0c0.235-0.008,0.479-0.019,0.729-0.027c0.252-0.012,0.498-0.021,0.74-0.028
			c0.239-0.008,0.448-0.012,0.63-0.012c0.406,0.005,0.787,0.062,1.14,0.165c0.354,0.105,0.658,0.264,0.918,0.475
			c0.26,0.209,0.463,0.469,0.611,0.777c0.146,0.311,0.222,0.666,0.222,1.068c0,0.377-0.074,0.729-0.22,1.049
			c-0.146,0.316-0.344,0.589-0.595,0.811c-0.251,0.229-0.542,0.404-0.876,0.528c-0.334,0.123-0.691,0.183-1.071,0.179l-1.288-0.031
			h-1.638v-0.199l0.571-0.137c0.085-0.015,0.145-0.05,0.182-0.102c0.034-0.055,0.051-0.155,0.051-0.303L127.551,32.033
			L127.551,32.033z M128.385,35.377c0,0.086,0.02,0.168,0.062,0.251c0.04,0.079,0.107,0.156,0.194,0.222
			c0.088,0.066,0.195,0.119,0.33,0.16c0.131,0.038,0.287,0.059,0.468,0.059c0.318,0,0.603-0.053,0.851-0.162
			c0.248-0.108,0.46-0.264,0.633-0.465c0.171-0.201,0.301-0.443,0.389-0.73c0.088-0.283,0.132-0.607,0.132-0.969
			c0-0.338-0.053-0.645-0.158-0.913c-0.106-0.271-0.261-0.496-0.462-0.683c-0.202-0.187-0.445-0.33-0.733-0.43
			c-0.289-0.104-0.615-0.15-0.982-0.15c-0.199,0-0.346,0.009-0.428,0.021c-0.084,0.018-0.146,0.038-0.185,0.062
			c-0.073,0.062-0.109,0.188-0.109,0.383L128.385,35.377L128.385,35.377z"/>
		<path fill="#231F20" d="M135.825,34.417h-2.07c-0.011,0.054-0.021,0.093-0.021,0.119c0,0.026-0.004,0.065-0.004,0.118
			c0,0.186,0.025,0.354,0.08,0.508c0.053,0.154,0.127,0.285,0.223,0.396c0.094,0.112,0.211,0.198,0.344,0.262
			c0.137,0.059,0.29,0.09,0.459,0.09c0.184,0,0.354-0.031,0.512-0.09c0.155-0.062,0.322-0.178,0.497-0.348l0.031,0.151
			c-0.072,0.114-0.157,0.224-0.25,0.326c-0.095,0.098-0.199,0.188-0.313,0.264c-0.117,0.077-0.249,0.138-0.397,0.179
			c-0.147,0.043-0.314,0.064-0.499,0.064c-0.213,0-0.406-0.04-0.58-0.118c-0.175-0.081-0.326-0.192-0.452-0.34
			c-0.129-0.142-0.229-0.317-0.299-0.521c-0.07-0.201-0.106-0.422-0.106-0.656c0-0.244,0.038-0.467,0.114-0.672
			c0.077-0.197,0.184-0.373,0.323-0.521c0.136-0.149,0.303-0.265,0.499-0.349c0.195-0.084,0.413-0.122,0.65-0.122
			c0.205,0,0.387,0.032,0.541,0.097c0.154,0.062,0.281,0.152,0.387,0.266c0.103,0.112,0.182,0.246,0.236,0.401
			C135.783,34.075,135.815,34.243,135.825,34.417z M133.792,34.173h0.938c0.106,0,0.188-0.017,0.243-0.043
			c0.058-0.026,0.074-0.091,0.061-0.198c-0.018-0.146-0.061-0.275-0.133-0.384c-0.07-0.108-0.189-0.166-0.358-0.166
			c-0.192,0-0.351,0.068-0.479,0.204C133.937,33.721,133.844,33.917,133.792,34.173z"/>
		<path fill="#231F20" d="M138.343,34.146c-0.015-0.078-0.043-0.16-0.082-0.244c-0.042-0.088-0.094-0.164-0.156-0.236
			c-0.062-0.07-0.138-0.131-0.222-0.178c-0.084-0.051-0.184-0.073-0.293-0.073c-0.154,0-0.283,0.032-0.391,0.097
			c-0.106,0.062-0.158,0.176-0.158,0.334c0,0.152,0.072,0.27,0.22,0.354c0.145,0.082,0.348,0.162,0.615,0.24
			c0.327,0.107,0.555,0.238,0.681,0.398c0.128,0.159,0.191,0.344,0.191,0.557c0,0.186-0.036,0.344-0.106,0.479
			c-0.072,0.136-0.166,0.247-0.285,0.334c-0.12,0.088-0.259,0.149-0.414,0.19c-0.155,0.037-0.318,0.06-0.487,0.06
			c-0.19,0-0.37-0.019-0.535-0.05c-0.168-0.036-0.312-0.088-0.436-0.157l-0.078-0.942h0.174c0.075,0.282,0.195,0.506,0.358,0.66
			c0.163,0.156,0.362,0.234,0.596,0.234c0.172,0,0.317-0.042,0.438-0.133c0.122-0.088,0.181-0.213,0.181-0.385
			c0-0.151-0.057-0.274-0.174-0.365c-0.116-0.088-0.303-0.17-0.554-0.246c-0.376-0.104-0.641-0.234-0.792-0.387
			c-0.15-0.154-0.227-0.362-0.227-0.619c0-0.145,0.033-0.273,0.103-0.385c0.071-0.115,0.158-0.211,0.271-0.287
			c0.111-0.076,0.24-0.135,0.39-0.178c0.147-0.039,0.301-0.059,0.461-0.059c0.162,0,0.321,0.018,0.469,0.049
			c0.148,0.029,0.275,0.079,0.38,0.143l0.051,0.795H138.343z"/>
		<path fill="#231F20" d="M140.98,36.361c-0.084-0.01-0.206-0.02-0.365-0.021c-0.158-0.008-0.346-0.009-0.557-0.009
			c-0.212,0-0.396,0.001-0.555,0.009c-0.161,0.004-0.279,0.012-0.366,0.021v-0.176l0.357-0.078c0.164-0.031,0.247-0.129,0.247-0.291
			V34.32c0-0.127-0.031-0.219-0.097-0.275c-0.062-0.059-0.189-0.109-0.382-0.15v-0.162c0.096-0.02,0.192-0.047,0.295-0.09
			c0.101-0.039,0.199-0.086,0.291-0.134c0.099-0.052,0.187-0.104,0.264-0.165c0.078-0.057,0.146-0.121,0.191-0.189
			c0.031,0,0.062,0.002,0.091,0.005c0.029,0.003,0.058,0.003,0.083,0.003v2.677c0,0.078,0.015,0.14,0.035,0.181
			c0.024,0.037,0.069,0.065,0.139,0.084l0.327,0.084L140.98,36.361L140.98,36.361z M140.145,31.479c0.122,0,0.228,0.041,0.315,0.129
			c0.087,0.09,0.132,0.193,0.132,0.314c0,0.107-0.045,0.204-0.136,0.289c-0.09,0.089-0.195,0.133-0.316,0.133
			c-0.122,0-0.225-0.041-0.303-0.125c-0.078-0.082-0.12-0.181-0.12-0.297c0-0.121,0.044-0.227,0.128-0.314
			C139.93,31.521,140.029,31.479,140.145,31.479z"/>
		<path fill="#231F20" d="M142.63,36.309c-0.2,0-0.377-0.037-0.533-0.109c-0.156-0.07-0.288-0.17-0.394-0.293
			c-0.106-0.125-0.188-0.275-0.243-0.447c-0.056-0.178-0.083-0.367-0.083-0.574c0-0.265,0.043-0.498,0.127-0.705
			s0.199-0.38,0.341-0.521c0.146-0.141,0.312-0.244,0.498-0.32c0.188-0.074,0.388-0.111,0.598-0.111c0.149,0,0.28,0.01,0.391,0.032
			c0.112,0.021,0.204,0.044,0.278,0.071c0.091,0.025,0.164,0.059,0.224,0.096l0.492-0.296l0.07,0.024v3.012
			c0,0.197-0.04,0.389-0.118,0.559c-0.08,0.172-0.188,0.322-0.333,0.45c-0.138,0.124-0.307,0.226-0.501,0.3
			c-0.194,0.072-0.411,0.112-0.644,0.112c-0.292,0-0.525-0.021-0.7-0.063c-0.174-0.043-0.307-0.096-0.396-0.158
			c-0.091-0.065-0.149-0.133-0.179-0.213c-0.03-0.073-0.042-0.146-0.042-0.207c0-0.106,0.029-0.188,0.096-0.239
			c0.062-0.054,0.144-0.08,0.244-0.08c0.1,0,0.176,0.017,0.221,0.052c0.05,0.035,0.086,0.077,0.113,0.127
			c0.025,0.049,0.048,0.105,0.067,0.168c0.018,0.059,0.048,0.116,0.09,0.166c0.043,0.051,0.104,0.094,0.18,0.127
			c0.078,0.032,0.187,0.053,0.329,0.053c0.281,0,0.492-0.084,0.639-0.254c0.145-0.17,0.22-0.436,0.22-0.795v-0.883
			c-0.03,0.118-0.075,0.23-0.13,0.342c-0.056,0.111-0.126,0.209-0.211,0.293c-0.086,0.086-0.188,0.154-0.302,0.207
			C142.923,36.277,142.785,36.309,142.63,36.309z M143.681,34.622c0-0.131-0.009-0.265-0.028-0.396
			c-0.016-0.133-0.051-0.25-0.102-0.354c-0.051-0.103-0.126-0.187-0.223-0.255c-0.099-0.064-0.229-0.1-0.389-0.1
			c-0.094,0-0.188,0.021-0.287,0.06c-0.1,0.04-0.186,0.108-0.264,0.2c-0.075,0.093-0.137,0.214-0.187,0.365
			c-0.048,0.149-0.07,0.336-0.07,0.561c0,0.156,0.015,0.312,0.043,0.455c0.028,0.146,0.072,0.271,0.131,0.38
			c0.058,0.104,0.136,0.188,0.231,0.253c0.092,0.062,0.206,0.098,0.333,0.098c0.126,0,0.241-0.035,0.341-0.107
			c0.101-0.065,0.186-0.159,0.255-0.271c0.067-0.113,0.12-0.244,0.157-0.396c0.037-0.149,0.057-0.307,0.057-0.465L143.681,34.622
			L143.681,34.622z"/>
		<path fill="#231F20" d="M148.731,36.354c-0.275-0.015-0.568-0.022-0.88-0.022c-0.312,0-0.607,0.009-0.885,0.022v-0.168
			l0.343-0.062c0.118-0.016,0.175-0.117,0.175-0.307v-1.344c0-0.129-0.006-0.244-0.019-0.347c-0.014-0.104-0.039-0.19-0.079-0.26
			c-0.041-0.067-0.099-0.121-0.172-0.158c-0.075-0.036-0.173-0.054-0.292-0.054c-0.146,0-0.288,0.037-0.437,0.117
			c-0.146,0.08-0.279,0.183-0.398,0.312V35.9c0,0.082,0.062,0.144,0.189,0.175l0.327,0.11v0.168
			c-0.093-0.013-0.184-0.019-0.275-0.02c-0.095-0.005-0.222-0.005-0.386-0.005h-0.254c-0.175,0-0.341,0-0.502,0.005
			c-0.157,0.001-0.283,0.007-0.372,0.02v-0.168l0.372-0.078c0.107-0.026,0.161-0.106,0.161-0.237v-1.574
			c0-0.164-0.032-0.274-0.1-0.332c-0.065-0.06-0.188-0.103-0.354-0.128v-0.145c0.085-0.021,0.176-0.047,0.273-0.082
			c0.099-0.037,0.192-0.08,0.286-0.137c0.093-0.058,0.178-0.119,0.261-0.191c0.082-0.075,0.147-0.161,0.195-0.264h0.176v0.744
			c0.174-0.183,0.365-0.33,0.576-0.441c0.208-0.104,0.404-0.16,0.591-0.16c0.308,0,0.545,0.091,0.719,0.27
			c0.173,0.184,0.256,0.453,0.256,0.818v1.542c0,0.101,0.016,0.176,0.043,0.228c0.024,0.049,0.077,0.084,0.157,0.104l0.302,0.063
			v0.168H148.731z"/>
	</g>
	<circle fill="#ED1E27" cx="119.376" cy="34.81" r="1.096"/>
	<g>
		<g>
			<defs>
				<rect id="SVGID_1_" x="14.78" y="15.344" width="54.94" height="20.538"/>
			</defs>
			<clipPath id="SVGID_2_">
				<use xlink:href="#SVGID_1_"  overflow="visible"/>
			</clipPath>
			<rect x="56.404" y="18.719" clip-path="url(#SVGID_2_)" fill="#2B2B2C" width="4.074" height="17.302"/>
		</g>
		<g>
			<defs>
				<rect id="SVGID_3_" x="14.78" y="15.344" width="54.94" height="20.538"/>
			</defs>
			<clipPath id="SVGID_4_">
				<use xlink:href="#SVGID_3_"  overflow="visible"/>
			</clipPath>
			<rect x="56.404" y="15.167" clip-path="url(#SVGID_4_)" fill="#2B2B2C" width="12.826" height="4.182"/>
		</g>
		<g>
			<defs>
				<rect id="SVGID_5_" x="14.78" y="15.344" width="54.94" height="20.538"/>
			</defs>
			<clipPath id="SVGID_6_">
				<use xlink:href="#SVGID_5_"  overflow="visible"/>
			</clipPath>
			<polyline clip-path="url(#SVGID_6_)" fill="#2B2B2C" stroke="#FFFFFF" stroke-width="0.25" stroke-miterlimit="10" points="
				24.592,15.052 14.78,36.021 19.52,36.021 26.205,21.736 32.902,36.021 37.644,36.021 27.815,15.06 			"/>
		</g>
		<g>
			<defs>
				<rect id="SVGID_7_" x="14.78" y="15.344" width="54.94" height="20.538"/>
			</defs>
			<clipPath id="SVGID_8_">
				<use xlink:href="#SVGID_7_"  overflow="visible"/>
			</clipPath>
			<g id="XMLID_1_" clip-path="url(#SVGID_8_)">
				<g>
					<path fill="#2B2B2C" d="M51.357,21.438c0.171,3.695-1.362,6.23-4.471,7.185c-0.39,0.115-0.792,0.208-1.194,0.275l3.258,6.986
						l-3.624,0.1L40.638,25.94v-0.011c0.764-0.021,1.517-0.042,2.281-0.074c0.698-0.03,1.418-0.085,2.102-0.243
						c2.049-0.543,3.069-1.928,2.97-3.943c-0.1-1.934-1.152-3.262-3.276-3.401c-2.484-0.152-4.979,0.078-7.588,0.149l-0.013-0.035
						l-1.419-3.034c3.646-0.135,7.164-0.474,10.656-0.187C49.582,15.444,51.202,17.894,51.357,21.438z"/>
				</g>
			</g>
		</g>
		<g>
			<defs>
				<rect id="SVGID_9_" x="14.78" y="15.344" width="54.94" height="20.538"/>
			</defs>
			<clipPath id="SVGID_10_">
				<use xlink:href="#SVGID_9_"  overflow="visible"/>
			</clipPath>
			
				<line clip-path="url(#SVGID_10_)" fill="none" stroke="#2B2B2C" stroke-width="0.5" stroke-miterlimit="10" x1="43.386" y1="36.293" x2="33.481" y2="15.167"/>
		</g>
		<g>
			<defs>
				<rect id="SVGID_11_" x="14.78" y="15.344" width="54.94" height="20.538"/>
			</defs>
			<clipPath id="SVGID_12_">
				<use xlink:href="#SVGID_11_"  overflow="visible"/>
			</clipPath>
			
				<line clip-path="url(#SVGID_12_)" fill="none" stroke="#2B2B2C" stroke-width="0.25" stroke-miterlimit="10" x1="27.295" y1="21.107" x2="20.322" y2="35.911"/>
		</g>
		<g>
			<defs>
				<rect id="SVGID_13_" x="14.78" y="15.344" width="54.94" height="20.538"/>
			</defs>
			<clipPath id="SVGID_14_">
				<use xlink:href="#SVGID_13_"  overflow="visible"/>
			</clipPath>
			
				<line clip-path="url(#SVGID_14_)" fill="none" stroke="#2B2B2C" stroke-width="0.25" stroke-miterlimit="10" x1="61.398" y1="18.205" x2="61.398" y2="36.034"/>
		</g>
		<g>
			<defs>
				<rect id="SVGID_15_" x="14.78" y="15.344" width="54.94" height="20.538"/>
			</defs>
			<clipPath id="SVGID_16_">
				<use xlink:href="#SVGID_15_"  overflow="visible"/>
			</clipPath>
			
				<line clip-path="url(#SVGID_16_)" fill="none" stroke="#2B2B2C" stroke-width="0.25" stroke-miterlimit="10" x1="44.498" y1="36.293" x2="34.591" y2="15.167"/>
		</g>
		<g>
			<defs>
				<rect id="SVGID_17_" x="14.78" y="15.344" width="54.94" height="20.538"/>
			</defs>
			<clipPath id="SVGID_18_">
				<use xlink:href="#SVGID_17_"  overflow="visible"/>
			</clipPath>
			
				<line clip-path="url(#SVGID_18_)" fill="none" stroke="#2B2B2C" stroke-width="0.5" stroke-miterlimit="10" x1="28.498" y1="21.218" x2="21.523" y2="36.021"/>
		</g>
		<g>
			<defs>
				<rect id="SVGID_19_" x="14.78" y="15.344" width="54.94" height="20.538"/>
			</defs>
			<clipPath id="SVGID_20_">
				<use xlink:href="#SVGID_19_"  overflow="visible"/>
			</clipPath>
			
				<line clip-path="url(#SVGID_20_)" fill="none" stroke="#2B2B2C" stroke-width="0.5" stroke-miterlimit="10" x1="62.548" y1="18.205" x2="62.548" y2="36.034"/>
		</g>
		<g>
			<defs>
				<rect id="SVGID_21_" x="14.78" y="15.344" width="54.94" height="20.538"/>
			</defs>
			<clipPath id="SVGID_22_">
				<use xlink:href="#SVGID_21_"  overflow="visible"/>
			</clipPath>
			<line clip-path="url(#SVGID_22_)" fill="none" x1="64.854" y1="35.932" x2="14.234" y2="35.932"/>
		</g>
		<g>
			<defs>
				<rect id="SVGID_23_" x="14.78" y="15.344" width="54.94" height="20.538"/>
			</defs>
			<clipPath id="SVGID_24_">
				<use xlink:href="#SVGID_23_"  overflow="visible"/>
			</clipPath>
			
				<line clip-path="url(#SVGID_24_)" fill="none" stroke="#2B2B2C" stroke-width="0.5" stroke-miterlimit="10" x1="23.771" y1="15.389" x2="13.275" y2="37.666"/>
		</g>
	</g>
	<g>
		<path fill="#FFFFFF" stroke="#FFFFFF" stroke-width="0.15" stroke-miterlimit="10" d="M303.681,20.807h4.104
			c0.127-0.029,0.225-0.01,0.289,0.057c0.064,0.061,0.099,0.135,0.099,0.217c0,0.084-0.031,0.16-0.092,0.223
			c-0.062,0.066-0.148,0.082-0.271,0.055h-12.43c-0.118,0.027-0.208,0.012-0.272-0.055c-0.057-0.062-0.085-0.139-0.085-0.223
			c0-0.082,0.028-0.156,0.085-0.217c0.064-0.066,0.154-0.086,0.272-0.057h4.128v-2.586c0-0.33-0.146-0.492-0.438-0.492h-1.798
			c-0.332,0-0.562-0.07-0.688-0.195c-0.13-0.129-0.194-0.369-0.194-0.717v-3.04c0-0.342,0.064-0.576,0.194-0.705
			c0.127-0.131,0.355-0.193,0.688-0.193h1.685c0.298,0,0.444-0.171,0.444-0.51v-2.142h-3.525c-0.135,0-0.229-0.02-0.27-0.053
			c-0.049-0.039-0.072-0.107-0.072-0.208c0-0.111,0.025-0.187,0.077-0.231c0.052-0.037,0.14-0.06,0.265-0.06h11.382
			c0.131,0,0.218,0.022,0.269,0.06c0.052,0.045,0.081,0.12,0.081,0.231c0,0.101-0.026,0.169-0.073,0.208
			c-0.045,0.033-0.139,0.053-0.275,0.053H303.6v2.153c0,0.344,0.144,0.511,0.438,0.511h1.896c0.332,0,0.559,0.064,0.688,0.192
			c0.132,0.132,0.194,0.366,0.194,0.709v3.024c0,0.348-0.062,0.588-0.194,0.717c-0.129,0.125-0.354,0.195-0.688,0.195h-1.812
			c-0.292,0-0.439,0.162-0.439,0.492v2.587H303.681z M300.104,20.807h2.983V18.07c0-0.59,0.297-0.881,0.896-0.881h1.812
			c0.119,0,0.218-0.051,0.302-0.146c0.085-0.096,0.125-0.219,0.125-0.365V13.93c0-0.332-0.142-0.498-0.427-0.498h-1.921
			c-0.33,0-0.559-0.063-0.682-0.187c-0.126-0.126-0.188-0.362-0.188-0.71v-2.309h-3.01v2.279c0,0.351-0.064,0.588-0.194,0.72
			c-0.129,0.13-0.355,0.192-0.692,0.192h-1.698c-0.285,0-0.428,0.167-0.428,0.496v2.763c0,0.146,0.038,0.27,0.124,0.365
			c0.083,0.096,0.186,0.146,0.304,0.146h1.796c0.35,0,0.589,0.059,0.715,0.184c0.12,0.127,0.184,0.355,0.184,0.682V20.807z"/>
		<path fill="#FFFFFF" stroke="#FFFFFF" stroke-width="0.15" stroke-miterlimit="10" d="M325.661,20.611
			c0,0.391-0.071,0.656-0.22,0.805c-0.149,0.143-0.39,0.223-0.733,0.223h-9.706c-0.331,0-0.569-0.08-0.712-0.223
			c-0.143-0.148-0.214-0.414-0.214-0.805v-9.953c0-0.387,0.07-0.651,0.211-0.788c0.134-0.136,0.376-0.208,0.715-0.208h9.706
			c0.352,0,0.598,0.075,0.741,0.223c0.141,0.146,0.212,0.404,0.212,0.773V20.611z M325.097,20.611v-9.982
			c0-0.292-0.13-0.438-0.401-0.438h-9.692c-0.251,0-0.37,0.146-0.37,0.438v9.982c0,0.143,0.034,0.256,0.11,0.342
			c0.071,0.088,0.159,0.133,0.26,0.133h9.692C324.967,21.086,325.097,20.928,325.097,20.611z M319.644,14.703h-3.911
			c-0.173,0-0.263-0.078-0.263-0.236c0-0.153,0.09-0.231,0.263-0.231h3.911v-0.873h-2.28c-0.35,0-0.593-0.056-0.729-0.162
			c-0.142-0.11-0.208-0.301-0.208-0.568V11.97c0-0.274,0.066-0.476,0.208-0.596c0.138-0.118,0.381-0.18,0.729-0.18h5.083
			c0.342,0,0.583,0.062,0.725,0.18c0.143,0.12,0.212,0.321,0.212,0.596v0.662c0,0.268-0.065,0.458-0.207,0.568
			c-0.138,0.106-0.379,0.162-0.729,0.162h-2.253v0.873h3.897c0.094-0.021,0.156,0,0.204,0.054c0.048,0.057,0.072,0.119,0.072,0.188
			c0,0.067-0.024,0.129-0.072,0.178c-0.048,0.053-0.11,0.066-0.204,0.047h-3.897v0.793h2.653c0.312,0,0.535,0.059,0.669,0.189
			c0.133,0.129,0.2,0.359,0.2,0.688v2.654c0,0.332-0.067,0.564-0.2,0.695c-0.134,0.137-0.363,0.203-0.695,0.203h-5.927
			c-0.309,0-0.534-0.066-0.663-0.203c-0.129-0.131-0.192-0.373-0.192-0.725v-2.625c0-0.328,0.063-0.559,0.192-0.688
			c0.129-0.131,0.354-0.189,0.663-0.189h2.75V14.703L319.644,14.703z M323.208,18.998v-2.625c0-0.135-0.043-0.246-0.115-0.334
			c-0.071-0.09-0.172-0.135-0.302-0.135h-5.788c-0.274,0-0.413,0.16-0.413,0.469v2.625c0,0.15,0.039,0.268,0.119,0.352
			c0.078,0.09,0.176,0.133,0.294,0.133h5.788C323.068,19.482,323.208,19.322,323.208,18.998z M322.872,12.548v-0.48
			c0-0.268-0.166-0.4-0.496-0.4h-4.929c-0.146,0-0.269,0.037-0.358,0.11c-0.092,0.074-0.142,0.169-0.142,0.29v0.48
			c0,0.26,0.167,0.388,0.5,0.388h4.929c0.146,0,0.268-0.036,0.36-0.108C322.831,12.752,322.872,12.661,322.872,12.548z
			 M321.826,17.812c0,0.293-0.08,0.508-0.229,0.639c-0.153,0.135-0.415,0.201-0.777,0.201h-2.075c-0.331,0-0.56-0.059-0.678-0.172
			c-0.12-0.115-0.18-0.336-0.18-0.668v-0.207c0-0.34,0.062-0.574,0.189-0.697c0.12-0.125,0.346-0.188,0.667-0.188h2.195
			c0.331,0,0.562,0.064,0.688,0.195c0.131,0.127,0.196,0.357,0.196,0.689v0.208H321.826z M321.327,17.768v-0.162
			c0-0.314-0.149-0.473-0.443-0.473h-2.068c-0.285,0-0.431,0.158-0.431,0.473v0.162c0,0.141,0.042,0.254,0.128,0.348
			c0.08,0.094,0.179,0.137,0.303,0.137h2.068C321.178,18.252,321.327,18.09,321.327,17.768z"/>
		<path fill="#FFFFFF" stroke="#FFFFFF" stroke-width="0.15" stroke-miterlimit="10" d="M336.178,11.29
			c0.129,0,0.191,0.085,0.191,0.249c0,0.158-0.062,0.236-0.191,0.236h-5.206c-0.14,0-0.208-0.078-0.208-0.236
			c0-0.164,0.068-0.249,0.208-0.249H336.178z M335.682,15.145c0.081,0,0.136,0.016,0.163,0.053c0.01,0.021,0.022,0.051,0.036,0.1
			c0.014,0.043,0.014,0.094,0.006,0.143c-0.01,0.051-0.029,0.094-0.062,0.131c-0.033,0.039-0.082,0.057-0.144,0.057h-4.089
			c-0.137,0-0.208-0.08-0.208-0.236c0-0.166,0.071-0.246,0.208-0.246h4.089V15.145z M335.693,13.21c0.138,0,0.209,0.065,0.209,0.195
			c0,0.117-0.016,0.197-0.048,0.233c-0.035,0.036-0.087,0.054-0.161,0.054h-4.06c-0.147,0-0.223-0.076-0.223-0.235
			c0-0.167,0.074-0.247,0.223-0.247H335.693z M335.786,20.488c0,0.35-0.053,0.588-0.17,0.717c-0.114,0.125-0.316,0.191-0.603,0.191
			h-2.788c-0.293,0-0.499-0.066-0.616-0.191c-0.11-0.129-0.169-0.367-0.169-0.717v-2.404c0-0.432,0.059-0.715,0.169-0.846
			c0.117-0.135,0.34-0.201,0.655-0.201h2.67c0.336,0,0.566,0.066,0.682,0.207c0.117,0.139,0.17,0.414,0.17,0.84V20.488
			L335.786,20.488z M335.279,20.404v-2.402c0-0.156-0.036-0.281-0.111-0.373c-0.073-0.092-0.162-0.139-0.272-0.139h-2.558
			c-0.11,0-0.2,0.047-0.274,0.139c-0.075,0.092-0.109,0.217-0.109,0.373v2.402c0,0.146,0.038,0.273,0.113,0.373
			c0.079,0.104,0.171,0.152,0.271,0.152h2.558C335.151,20.93,335.279,20.754,335.279,20.404z M334.363,10.627
			c0,0.038-0.011,0.08-0.038,0.123c-0.026,0.049-0.062,0.078-0.117,0.092c-0.046,0.013-0.107,0.006-0.168-0.021
			c-0.067-0.029-0.136-0.101-0.211-0.221c-0.112-0.187-0.24-0.374-0.395-0.573c-0.148-0.195-0.317-0.404-0.503-0.615
			c-0.101-0.102-0.152-0.194-0.152-0.283c0-0.083,0.03-0.15,0.082-0.185c0.059-0.037,0.123-0.058,0.201-0.058
			s0.193,0.102,0.354,0.303l0.59,0.789C334.248,10.303,334.363,10.519,334.363,10.627z M339.49,19.285
			c-1.141-1.059-1.945-2.305-2.417-3.74h-0.258c-0.159,0-0.236-0.09-0.236-0.275c0-0.195,0.083-0.293,0.247-0.293h4.809
			c0.56,0,0.84,0.217,0.84,0.65c0,0.357-0.204,0.906-0.61,1.643c-0.197,0.369-0.434,0.719-0.688,1.051
			c-0.259,0.33-0.548,0.646-0.867,0.953c0.81,0.646,1.818,1.207,3.024,1.684c0.221,0.086,0.329,0.193,0.329,0.33
			c0,0.203-0.083,0.307-0.247,0.307c-0.15,0-0.587-0.18-1.312-0.539c-0.736-0.367-1.47-0.842-2.196-1.422
			c-0.607,0.496-1.321,0.926-2.144,1.297c-0.79,0.365-1.262,0.555-1.405,0.555c-0.131,0-0.217-0.037-0.256-0.1
			c-0.043-0.064-0.06-0.127-0.06-0.193c0-0.146,0.144-0.262,0.437-0.344C337.574,20.525,338.578,20.002,339.49,19.285z
			 M341.74,13.032c0,0.184,0.024,0.324,0.083,0.412c0.058,0.104,0.127,0.168,0.208,0.195c0.045,0.01,0.122,0.017,0.227,0.021
			c0.105,0.005,0.249,0,0.422-0.008h0.944c0.169,0,0.257,0.095,0.257,0.278c0,0.185-0.063,0.283-0.192,0.304
			c-0.062,0.007-0.174,0.01-0.329,0.01c-0.157,0-0.356,0-0.593,0c-0.512,0-0.845-0.03-1.011-0.093
			c-0.36-0.124-0.537-0.509-0.537-1.16v-2.266c0-0.276-0.038-0.455-0.113-0.539c-0.075-0.083-0.239-0.123-0.494-0.123h-1.685
			c-0.276,0-0.437,0.051-0.474,0.151c-0.046,0.102-0.065,0.293-0.065,0.565c0,0.586-0.062,1.104-0.181,1.543
			c-0.128,0.473-0.412,0.976-0.855,1.509c-0.461,0.545-0.788,0.819-0.98,0.819c-0.046-0.012-0.094-0.031-0.142-0.066
			c-0.043-0.031-0.073-0.072-0.094-0.117c-0.018-0.048-0.018-0.101,0-0.168c0.021-0.063,0.072-0.129,0.165-0.192
			c0.278-0.249,0.516-0.49,0.711-0.729c0.2-0.241,0.358-0.494,0.484-0.768c0.127-0.271,0.215-0.561,0.268-0.869
			c0.059-0.31,0.085-0.655,0.085-1.041c0-0.426,0.05-0.729,0.16-0.908c0.104-0.175,0.296-0.265,0.57-0.265h2.308
			c0.352,0,0.577,0.061,0.691,0.191c0.107,0.127,0.163,0.38,0.163,0.761L341.74,13.032L341.74,13.032z M337.61,15.545
			c0.427,1.297,1.185,2.432,2.282,3.398c0.659-0.609,1.167-1.25,1.519-1.922s0.523-1.104,0.523-1.295
			c0-0.064-0.023-0.113-0.071-0.143c-0.044-0.027-0.141-0.039-0.285-0.039L337.61,15.545L337.61,15.545z"/>
		<path fill="#FFFFFF" stroke="#FFFFFF" stroke-width="0.15" stroke-miterlimit="10" d="M354.866,11.265
			c0.147,0,0.223,0.067,0.223,0.206c0,0.139-0.018,0.223-0.047,0.255c-0.033,0.03-0.09,0.049-0.176,0.049h-6.059
			c-0.148,0-0.224-0.084-0.224-0.25c0-0.173,0.074-0.26,0.224-0.26H354.866z M354.052,15.104c0.083,0,0.141,0.018,0.168,0.053
			c0.035,0.037,0.055,0.125,0.055,0.264c0,0.127-0.072,0.193-0.223,0.193h-4.47c-0.158,0-0.238-0.066-0.238-0.193
			c0-0.139,0.017-0.227,0.049-0.264c0.031-0.035,0.095-0.053,0.189-0.053H354.052z M354.067,13.155c0.157,0,0.234,0.087,0.234,0.264
			c0,0.174-0.077,0.258-0.234,0.258h-4.444c-0.169,0-0.248-0.084-0.248-0.258c0-0.177,0.079-0.264,0.248-0.264H354.067z
			 M354.329,20.557c0,0.342-0.066,0.584-0.208,0.725c-0.136,0.143-0.376,0.215-0.719,0.215h-3.091c-0.341,0-0.585-0.068-0.726-0.209
			c-0.145-0.137-0.213-0.383-0.213-0.73v-2.43c0-0.441,0.071-0.744,0.22-0.906c0.146-0.16,0.404-0.24,0.774-0.24h2.938
			c0.389,0,0.652,0.08,0.802,0.24c0.146,0.162,0.222,0.465,0.222,0.906L354.329,20.557L354.329,20.557z M353.777,20.488v-2.473
			c0-0.166-0.036-0.297-0.117-0.391c-0.079-0.1-0.188-0.148-0.325-0.148h-2.966c-0.133,0-0.234,0.049-0.312,0.148
			c-0.081,0.094-0.121,0.225-0.121,0.391v2.473c0,0.166,0.04,0.295,0.121,0.393c0.077,0.098,0.18,0.148,0.312,0.148h2.966
			C353.629,21.029,353.777,20.848,353.777,20.488z M352.659,10.7c-0.009,0.025-0.03,0.068-0.062,0.114
			c-0.031,0.053-0.076,0.089-0.126,0.117c-0.05,0.028-0.112,0.028-0.188-0.004c-0.071-0.038-0.156-0.12-0.247-0.257
			c-0.186-0.24-0.359-0.463-0.528-0.663c-0.176-0.204-0.335-0.384-0.479-0.537c-0.157-0.176-0.202-0.314-0.144-0.417
			c0.058-0.099,0.151-0.15,0.278-0.15c0.073,0,0.204,0.108,0.389,0.328c0.093,0.105,0.197,0.22,0.303,0.361
			c0.116,0.141,0.238,0.287,0.372,0.44C352.516,10.348,352.659,10.568,352.659,10.7z M357.809,13.321V9.066
			c-0.027-0.114-0.009-0.206,0.054-0.26c0.067-0.054,0.14-0.083,0.218-0.083c0.075,0,0.146,0.029,0.205,0.09
			c0.062,0.061,0.082,0.146,0.062,0.253v4.255h2.913c0.086,0,0.149,0.025,0.195,0.07c0.047,0.044,0.067,0.138,0.067,0.273
			c0,0.149-0.086,0.225-0.264,0.225h-2.913v7.634c0,0.129-0.019,0.215-0.062,0.266c-0.038,0.043-0.112,0.066-0.211,0.066
			c-0.104,0-0.173-0.016-0.212-0.049c-0.032-0.031-0.054-0.127-0.054-0.283v-7.634h-2.885c-0.104,0-0.169-0.021-0.209-0.058
			c-0.033-0.036-0.054-0.128-0.054-0.274c0-0.156,0.087-0.236,0.263-0.236H357.809z"/>
	</g>
	<g>
		<path fill="#FFFFFF" d="M297.07,28.26l-0.646,1.762c-0.025,0.09-0.034,0.156-0.019,0.197c0.019,0.043,0.104,0.068,0.253,0.08
			l0.564,0.043v0.201c-0.06-0.004-0.171-0.01-0.341-0.01c-0.173-0.006-0.403-0.006-0.691-0.006c-0.293,0-0.523,0-0.693,0.006
			c-0.171,0-0.284,0.006-0.342,0.01v-0.201l0.528-0.043c0.188-0.014,0.314-0.119,0.387-0.311l1.933-5.006h0.344l1.857,4.95
			c0.039,0.096,0.074,0.155,0.109,0.192c0.031,0.032,0.094,0.063,0.185,0.092l0.461,0.144v0.19
			c-0.104-0.004-0.247-0.012-0.432-0.014c-0.185-0.009-0.379-0.011-0.593-0.011h-0.597c-0.37,0-0.683,0.011-0.934,0.023v-0.191
			l0.549-0.084c0.074-0.012,0.138-0.024,0.185-0.039c0.043-0.016,0.071-0.03,0.088-0.059c0.013-0.025,0.018-0.055,0.013-0.092
			c-0.007-0.037-0.021-0.082-0.043-0.141l-0.622-1.687h-1.503V28.26z M298.456,27.959l-0.605-1.807l-0.663,1.807H298.456z"/>
		<path fill="#FFFFFF" d="M301.136,30.561v-0.133l0.317-0.076c0.111-0.033,0.184-0.078,0.216-0.133
			c0.031-0.055,0.046-0.152,0.046-0.297v-1.611c0-0.113-0.023-0.192-0.066-0.25c-0.045-0.053-0.15-0.092-0.319-0.121l-0.177-0.033
			l0.009-0.143c0.217-0.062,0.436-0.156,0.646-0.277c0.214-0.125,0.384-0.293,0.511-0.504h0.155l0.032,0.992
			c0.043-0.1,0.095-0.193,0.148-0.274c0.056-0.08,0.134-0.171,0.229-0.271c0.097-0.103,0.188-0.171,0.271-0.201
			c0.09-0.033,0.169-0.054,0.241-0.054c0.141,0,0.257,0.044,0.349,0.121c0.094,0.084,0.142,0.205,0.142,0.369
			c0,0.147-0.037,0.271-0.107,0.354c-0.068,0.086-0.169,0.131-0.298,0.131c-0.066,0-0.125-0.016-0.178-0.047
			c-0.049-0.031-0.094-0.065-0.137-0.104c-0.041-0.039-0.082-0.071-0.122-0.104c-0.039-0.028-0.076-0.047-0.11-0.047
			c-0.05,0-0.097,0.021-0.141,0.062c-0.046,0.045-0.088,0.096-0.127,0.157c-0.038,0.062-0.071,0.129-0.099,0.205
			c-0.022,0.074-0.04,0.146-0.046,0.215c-0.005,0.058-0.012,0.105-0.016,0.15c-0.006,0.047-0.006,0.088,0,0.127v1.174
			c0,0.14,0.022,0.23,0.077,0.275c0.048,0.041,0.147,0.082,0.3,0.119l0.43,0.086v0.133c-0.135-0.012-0.286-0.018-0.453-0.018
			c-0.169-0.006-0.34-0.006-0.515-0.006h-0.159c-0.184,0-0.366,0.002-0.546,0.01C301.46,30.539,301.294,30.549,301.136,30.561z"/>
		<path fill="#FFFFFF" d="M305.469,26.479h0.15c0,0.15,0.003,0.299,0.005,0.449c0.005,0.15,0.005,0.299,0.005,0.449l1.082-0.023
			v0.359l-1.082,0.033v1.586c0,0.281,0.023,0.494,0.08,0.635c0.053,0.145,0.184,0.209,0.388,0.197c0.087,0,0.181-0.012,0.286-0.037
			c0.102-0.025,0.216-0.084,0.347-0.182l0.076,0.119c-0.095,0.147-0.229,0.283-0.408,0.406c-0.175,0.129-0.413,0.188-0.71,0.188
			c-0.298,0-0.512-0.076-0.642-0.229c-0.133-0.152-0.197-0.429-0.197-0.826v-1.84c-0.079,0-0.155,0-0.228,0.004
			c-0.071,0-0.149,0.004-0.229,0.004c-0.077,0-0.116-0.029-0.119-0.092c-0.004-0.062,0.033-0.109,0.113-0.144
			c0.115-0.052,0.224-0.104,0.322-0.16s0.178-0.114,0.237-0.176c0.062-0.062,0.148-0.152,0.263-0.277
			C305.321,26.803,305.409,26.652,305.469,26.479z"/>
		<path fill="#FFFFFF" d="M310.005,30.021v-4.241c0-0.096-0.018-0.162-0.047-0.203c-0.029-0.039-0.084-0.061-0.163-0.066
			l-0.613-0.076v-0.184c0.056,0.016,0.645,0.025,1.764,0.025c0.331,0,0.595-0.01,0.791-0.025v0.193l-0.513,0.066
			c-0.111,0.012-0.19,0.029-0.239,0.055c-0.048,0.023-0.071,0.096-0.071,0.215v4.241c0,0.104,0.014,0.168,0.042,0.194
			c0.026,0.029,0.083,0.046,0.168,0.05l0.613,0.043v0.252c-0.11-0.013-0.272-0.021-0.482-0.023c-0.212-0.008-0.476-0.01-0.794-0.01
			c-0.319,0-0.585,0.002-0.793,0.01c-0.211,0.002-0.373,0.012-0.484,0.023v-0.252l0.521-0.033c0.117-0.019,0.195-0.037,0.239-0.057
			C309.983,30.199,310.005,30.137,310.005,30.021z"/>
		<path fill="#FFFFFF" d="M316.246,30.551c-0.291-0.014-0.604-0.023-0.935-0.023c-0.329,0-0.64,0.011-0.932,0.023v-0.176
			l0.361-0.066c0.123-0.018,0.184-0.125,0.184-0.324v-1.422c0-0.137-0.007-0.258-0.021-0.367c-0.013-0.106-0.041-0.2-0.083-0.272
			c-0.041-0.071-0.102-0.129-0.18-0.168c-0.08-0.036-0.183-0.058-0.312-0.058c-0.151,0-0.305,0.041-0.458,0.125
			c-0.154,0.084-0.299,0.193-0.426,0.328v1.925c0,0.086,0.067,0.149,0.2,0.184l0.348,0.117v0.177
			c-0.097-0.013-0.192-0.019-0.291-0.019c-0.099-0.007-0.232-0.007-0.406-0.007h-0.27c-0.185,0-0.361,0-0.529,0.007
			c-0.168,0-0.301,0.006-0.396,0.019v-0.177l0.396-0.084c0.113-0.026,0.168-0.11,0.168-0.25v-1.666c0-0.172-0.036-0.289-0.104-0.351
			c-0.068-0.063-0.196-0.106-0.377-0.137v-0.15c0.091-0.02,0.188-0.051,0.291-0.088c0.105-0.039,0.207-0.084,0.304-0.145
			c0.1-0.061,0.19-0.127,0.276-0.203c0.087-0.08,0.156-0.17,0.206-0.279h0.185v0.789c0.188-0.192,0.39-0.35,0.608-0.467
			c0.222-0.113,0.431-0.172,0.626-0.172c0.325,0,0.581,0.098,0.76,0.285c0.186,0.195,0.273,0.48,0.273,0.865v1.633
			c0,0.105,0.016,0.186,0.044,0.238c0.024,0.053,0.083,0.09,0.168,0.113l0.318,0.065v0.177H316.246z"/>
		<path fill="#FFFFFF" d="M317.799,26.479h0.151c0,0.15,0.002,0.299,0.003,0.449c0.005,0.15,0.006,0.299,0.006,0.449l1.083-0.023
			v0.359l-1.083,0.033v1.586c0,0.281,0.025,0.494,0.081,0.635c0.053,0.145,0.184,0.209,0.392,0.197c0.082,0,0.176-0.012,0.278-0.037
			c0.104-0.025,0.222-0.084,0.351-0.182l0.072,0.119c-0.094,0.147-0.229,0.283-0.407,0.406c-0.174,0.129-0.411,0.188-0.708,0.188
			c-0.298,0-0.511-0.076-0.643-0.229c-0.131-0.152-0.197-0.429-0.197-0.826v-1.84c-0.078,0-0.153,0-0.227,0.004
			c-0.071,0-0.148,0.004-0.227,0.004c-0.079,0-0.12-0.029-0.124-0.092c-0.001-0.062,0.037-0.109,0.114-0.144
			c0.116-0.052,0.226-0.104,0.324-0.16c0.097-0.056,0.177-0.114,0.237-0.176c0.064-0.062,0.148-0.152,0.263-0.277
			C317.651,26.803,317.737,26.652,317.799,26.479z"/>
		<path fill="#FFFFFF" d="M322.479,28.504h-2.191c-0.011,0.057-0.019,0.098-0.021,0.125s-0.004,0.07-0.004,0.125
			c0,0.197,0.028,0.375,0.082,0.537c0.058,0.164,0.137,0.303,0.237,0.42c0.1,0.119,0.223,0.209,0.364,0.275
			c0.142,0.062,0.305,0.096,0.482,0.096c0.197,0,0.376-0.033,0.542-0.096c0.165-0.066,0.341-0.188,0.524-0.365l0.034,0.158
			c-0.078,0.123-0.167,0.238-0.266,0.346c-0.099,0.104-0.208,0.199-0.332,0.279c-0.123,0.082-0.263,0.145-0.42,0.189
			c-0.155,0.045-0.333,0.065-0.527,0.065c-0.225,0-0.428-0.041-0.612-0.123c-0.187-0.086-0.349-0.205-0.482-0.358
			c-0.133-0.15-0.236-0.337-0.312-0.55c-0.075-0.215-0.113-0.446-0.113-0.696c0-0.259,0.039-0.492,0.12-0.709
			c0.081-0.209,0.196-0.396,0.344-0.552c0.143-0.157,0.319-0.278,0.526-0.366c0.207-0.089,0.438-0.132,0.688-0.132
			c0.218,0,0.409,0.037,0.571,0.104c0.162,0.066,0.297,0.16,0.407,0.281c0.106,0.119,0.192,0.26,0.252,0.424
			C322.433,28.143,322.466,28.318,322.479,28.504z M320.328,28.244h0.989c0.112,0,0.198-0.016,0.259-0.045
			c0.058-0.027,0.076-0.096,0.062-0.211c-0.017-0.154-0.062-0.291-0.138-0.404c-0.074-0.115-0.203-0.176-0.383-0.176
			c-0.201,0-0.368,0.072-0.506,0.217C320.479,27.768,320.383,27.975,320.328,28.244z"/>
		<path fill="#FFFFFF" d="M322.956,30.561v-0.133l0.318-0.076c0.111-0.033,0.184-0.078,0.215-0.133
			c0.03-0.055,0.047-0.152,0.047-0.297v-1.611c0-0.113-0.022-0.192-0.069-0.25c-0.042-0.053-0.149-0.092-0.316-0.121l-0.177-0.033
			l0.008-0.143c0.22-0.062,0.436-0.156,0.647-0.277c0.211-0.125,0.383-0.293,0.512-0.504h0.152l0.03,0.992
			c0.048-0.1,0.099-0.193,0.153-0.274c0.057-0.08,0.13-0.171,0.228-0.271c0.096-0.103,0.185-0.171,0.272-0.201
			c0.087-0.033,0.166-0.054,0.24-0.054c0.14,0,0.254,0.044,0.347,0.121c0.094,0.084,0.141,0.205,0.141,0.369
			c0,0.147-0.034,0.271-0.105,0.354c-0.07,0.086-0.17,0.131-0.299,0.131c-0.068,0-0.125-0.016-0.175-0.047
			c-0.055-0.031-0.101-0.065-0.142-0.104c-0.04-0.039-0.081-0.071-0.122-0.104c-0.039-0.028-0.075-0.047-0.108-0.047
			c-0.049,0-0.1,0.021-0.142,0.062c-0.047,0.045-0.088,0.096-0.127,0.157c-0.04,0.062-0.069,0.129-0.096,0.205
			c-0.026,0.074-0.04,0.146-0.047,0.215c-0.005,0.058-0.012,0.105-0.02,0.15c-0.003,0.047-0.003,0.088,0,0.127v1.174
			c0,0.14,0.027,0.23,0.076,0.275c0.05,0.041,0.151,0.082,0.305,0.119l0.428,0.086v0.133c-0.134-0.012-0.285-0.018-0.455-0.018
			c-0.167-0.006-0.336-0.006-0.509-0.006h-0.16c-0.188,0-0.368,0.002-0.547,0.01C323.281,30.539,323.113,30.549,322.956,30.561z"/>
		<path fill="#FFFFFF" d="M328.005,30.561c-0.092-0.012-0.219-0.021-0.387-0.022c-0.167-0.009-0.363-0.011-0.586-0.011
			c-0.228,0-0.423,0.002-0.591,0.011c-0.166,0.002-0.297,0.012-0.387,0.022v-0.186l0.378-0.084c0.174-0.033,0.26-0.135,0.26-0.307
			V28.4c0-0.133-0.031-0.23-0.101-0.291c-0.066-0.062-0.201-0.117-0.404-0.16v-0.17c0.104-0.021,0.207-0.051,0.312-0.096
			c0.107-0.041,0.212-0.09,0.312-0.142c0.102-0.056,0.192-0.11,0.278-0.177c0.081-0.059,0.146-0.127,0.201-0.2
			c0.032,0,0.063,0.002,0.096,0.006c0.03,0.002,0.059,0.002,0.088,0.002v2.832c0,0.082,0.012,0.146,0.038,0.188
			c0.023,0.041,0.074,0.07,0.146,0.091l0.345,0.09L328.005,30.561L328.005,30.561z M327.124,25.396c0.128,0,0.239,0.043,0.33,0.135
			c0.092,0.096,0.14,0.207,0.14,0.334c0,0.113-0.048,0.215-0.143,0.307c-0.096,0.094-0.208,0.139-0.338,0.139
			c-0.131,0-0.234-0.043-0.318-0.132c-0.084-0.086-0.127-0.189-0.127-0.312c0-0.127,0.046-0.238,0.135-0.334
			C326.894,25.439,327,25.396,327.124,25.396z"/>
		<path fill="#FFFFFF" d="M333.418,30.561v-0.133l0.318-0.076c0.11-0.033,0.184-0.078,0.216-0.133
			c0.029-0.055,0.045-0.152,0.045-0.297v-1.611c0-0.113-0.021-0.192-0.066-0.25c-0.045-0.053-0.151-0.092-0.32-0.121l-0.175-0.033
			l0.007-0.143c0.219-0.062,0.436-0.156,0.647-0.277c0.214-0.125,0.384-0.293,0.513-0.504h0.152l0.032,0.992
			c0.046-0.1,0.096-0.193,0.148-0.274c0.059-0.08,0.133-0.171,0.229-0.271c0.096-0.102,0.187-0.171,0.273-0.201
			c0.085-0.033,0.165-0.054,0.236-0.054c0.142,0,0.258,0.044,0.35,0.121c0.095,0.084,0.142,0.205,0.142,0.369
			c0,0.147-0.037,0.271-0.106,0.354c-0.07,0.086-0.169,0.131-0.298,0.131c-0.068,0-0.127-0.016-0.177-0.047
			s-0.098-0.065-0.139-0.104c-0.043-0.039-0.084-0.071-0.125-0.104c-0.035-0.028-0.071-0.047-0.106-0.047
			c-0.05,0-0.097,0.021-0.141,0.062c-0.049,0.045-0.088,0.096-0.129,0.157s-0.069,0.129-0.097,0.205
			c-0.022,0.074-0.038,0.146-0.047,0.215c-0.004,0.058-0.01,0.105-0.016,0.15c-0.007,0.047-0.007,0.088,0,0.127v1.174
			c0,0.14,0.023,0.23,0.075,0.275c0.051,0.041,0.151,0.082,0.303,0.119l0.429,0.086v0.133c-0.135-0.012-0.285-0.018-0.454-0.018
			c-0.17-0.006-0.338-0.006-0.51-0.006h-0.163c-0.184,0-0.367,0.002-0.544,0.01C333.744,30.539,333.573,30.549,333.418,30.561z"/>
		<path fill="#FFFFFF" d="M339.475,25.982c0-0.133-0.019-0.229-0.05-0.283c-0.034-0.051-0.101-0.09-0.195-0.111l-0.521-0.1v-0.221
			c0.186,0.008,0.401,0.008,0.651-0.002c0.249-0.008,0.506-0.02,0.771-0.029c0.267-0.012,0.526-0.023,0.782-0.031
			c0.255-0.008,0.477-0.012,0.667-0.012c0.431,0.006,0.832,0.066,1.205,0.176c0.373,0.111,0.695,0.279,0.971,0.5
			c0.273,0.223,0.49,0.496,0.646,0.824c0.155,0.326,0.233,0.703,0.233,1.129c0,0.4-0.077,0.773-0.23,1.109s-0.363,0.623-0.63,0.856
			c-0.267,0.241-0.573,0.428-0.927,0.56c-0.354,0.131-0.73,0.19-1.133,0.188l-1.362-0.035h-1.731V30.29l0.604-0.144
			c0.09-0.016,0.151-0.053,0.191-0.106c0.035-0.058,0.054-0.164,0.054-0.319v-3.739H339.475z M340.356,29.518
			c0,0.092,0.021,0.178,0.066,0.267c0.043,0.084,0.114,0.166,0.206,0.233c0.093,0.07,0.207,0.127,0.35,0.17
			c0.139,0.041,0.303,0.062,0.494,0.062c0.337,0,0.636-0.057,0.898-0.174c0.262-0.113,0.485-0.277,0.669-0.49
			c0.182-0.213,0.317-0.469,0.411-0.773c0.093-0.301,0.14-0.643,0.14-1.022c0-0.356-0.056-0.683-0.168-0.968
			c-0.112-0.286-0.275-0.524-0.489-0.72c-0.214-0.197-0.471-0.35-0.774-0.453c-0.307-0.109-0.65-0.16-1.039-0.16
			c-0.212,0-0.365,0.008-0.452,0.023c-0.089,0.018-0.153,0.039-0.195,0.066c-0.077,0.064-0.115,0.197-0.115,0.404L340.356,29.518
			L340.356,29.518z"/>
		<path fill="#FFFFFF" d="M348.225,28.504h-2.188c-0.012,0.057-0.021,0.098-0.022,0.125c0,0.027-0.004,0.07-0.004,0.125
			c0,0.197,0.026,0.375,0.084,0.537c0.056,0.164,0.135,0.303,0.235,0.42c0.1,0.119,0.223,0.209,0.362,0.275
			c0.145,0.062,0.308,0.096,0.485,0.096c0.194,0,0.376-0.033,0.541-0.096c0.165-0.066,0.341-0.188,0.525-0.365l0.032,0.158
			c-0.075,0.123-0.166,0.238-0.265,0.346c-0.099,0.104-0.21,0.199-0.331,0.279c-0.124,0.082-0.263,0.145-0.421,0.189
			c-0.156,0.045-0.333,0.065-0.528,0.065c-0.225,0-0.43-0.041-0.612-0.123c-0.186-0.086-0.346-0.205-0.479-0.358
			c-0.136-0.15-0.24-0.337-0.316-0.55c-0.072-0.215-0.111-0.446-0.111-0.696c0-0.259,0.041-0.492,0.121-0.709
			c0.082-0.209,0.193-0.396,0.342-0.552c0.144-0.157,0.32-0.278,0.527-0.366c0.208-0.089,0.438-0.132,0.688-0.132
			c0.217,0,0.407,0.037,0.571,0.104c0.164,0.066,0.298,0.16,0.408,0.281c0.107,0.119,0.191,0.26,0.251,0.424
			C348.181,28.143,348.215,28.318,348.225,28.504z M346.075,28.244h0.99c0.112,0,0.199-0.016,0.257-0.045
			c0.062-0.027,0.078-0.096,0.063-0.211c-0.018-0.154-0.063-0.291-0.14-0.404c-0.075-0.115-0.202-0.176-0.381-0.176
			c-0.203,0-0.369,0.072-0.507,0.217C346.228,27.768,346.13,27.975,346.075,28.244z"/>
		<path fill="#FFFFFF" d="M350.887,28.217c-0.015-0.082-0.044-0.17-0.086-0.258c-0.044-0.094-0.099-0.174-0.165-0.25
			c-0.066-0.074-0.146-0.139-0.234-0.188c-0.09-0.053-0.194-0.078-0.311-0.078c-0.163,0-0.3,0.033-0.413,0.102
			c-0.112,0.066-0.167,0.188-0.167,0.354c0,0.162,0.077,0.285,0.232,0.373c0.151,0.088,0.367,0.172,0.649,0.256
			c0.347,0.113,0.587,0.25,0.721,0.423c0.136,0.168,0.202,0.36,0.202,0.588c0,0.194-0.038,0.362-0.111,0.508
			c-0.077,0.144-0.178,0.261-0.303,0.353c-0.128,0.094-0.273,0.16-0.438,0.203c-0.165,0.039-0.337,0.061-0.518,0.061
			c-0.2,0-0.391-0.018-0.565-0.051c-0.177-0.039-0.329-0.094-0.458-0.168l-0.083-0.996h0.183c0.08,0.299,0.208,0.535,0.38,0.699
			c0.173,0.166,0.384,0.248,0.629,0.248c0.183,0,0.337-0.045,0.464-0.14c0.129-0.094,0.19-0.228,0.19-0.407
			c0-0.16-0.061-0.291-0.185-0.388c-0.122-0.095-0.319-0.181-0.585-0.263c-0.398-0.108-0.679-0.245-0.838-0.407
			c-0.16-0.164-0.238-0.384-0.238-0.653c0-0.152,0.035-0.289,0.106-0.406c0.074-0.123,0.167-0.224,0.287-0.306
			c0.117-0.079,0.254-0.144,0.41-0.188c0.158-0.041,0.319-0.062,0.488-0.062c0.171,0,0.339,0.021,0.495,0.054
			c0.157,0.03,0.291,0.084,0.4,0.149l0.055,0.841h-0.195V28.217z"/>
		<path fill="#FFFFFF" d="M353.677,30.561c-0.089-0.012-0.218-0.021-0.386-0.022c-0.169-0.009-0.365-0.011-0.589-0.011
			c-0.226,0-0.42,0.002-0.587,0.011c-0.171,0.002-0.297,0.012-0.388,0.022v-0.186l0.378-0.084c0.173-0.033,0.262-0.135,0.262-0.307
			V28.4c0-0.133-0.033-0.23-0.102-0.291c-0.066-0.062-0.202-0.117-0.404-0.16v-0.17c0.103-0.021,0.203-0.051,0.312-0.096
			c0.104-0.041,0.211-0.09,0.309-0.142c0.104-0.056,0.196-0.11,0.279-0.177c0.082-0.059,0.151-0.127,0.201-0.2
			c0.033,0,0.065,0.002,0.097,0.006c0.03,0.002,0.061,0.002,0.088,0.002v2.832c0,0.082,0.015,0.146,0.037,0.188
			c0.025,0.041,0.073,0.07,0.147,0.091l0.345,0.09V30.561L353.677,30.561z M352.793,25.396c0.13,0,0.24,0.043,0.334,0.135
			c0.091,0.096,0.139,0.207,0.139,0.334c0,0.113-0.048,0.215-0.144,0.307c-0.096,0.094-0.206,0.139-0.334,0.139
			c-0.129,0-0.238-0.043-0.32-0.132c-0.083-0.086-0.128-0.189-0.128-0.312c0-0.127,0.047-0.238,0.136-0.334
			C352.566,25.439,352.671,25.396,352.793,25.396z"/>
		<path fill="#FFFFFF" d="M355.422,30.502c-0.212,0-0.399-0.037-0.564-0.115c-0.165-0.074-0.305-0.178-0.416-0.311
			c-0.111-0.131-0.196-0.289-0.257-0.473c-0.059-0.188-0.089-0.388-0.089-0.607c0-0.279,0.046-0.525,0.135-0.746
			c0.09-0.219,0.211-0.4,0.361-0.551c0.152-0.146,0.328-0.258,0.526-0.338s0.409-0.119,0.632-0.119c0.158,0,0.297,0.012,0.412,0.035
			c0.118,0.021,0.216,0.047,0.296,0.076c0.094,0.024,0.173,0.061,0.233,0.1l0.521-0.312l0.076,0.025v3.186
			c0,0.211-0.043,0.41-0.126,0.592c-0.085,0.181-0.199,0.341-0.352,0.476c-0.146,0.134-0.325,0.24-0.531,0.317
			c-0.205,0.076-0.436,0.117-0.681,0.117c-0.309,0-0.555-0.021-0.74-0.065c-0.184-0.045-0.323-0.103-0.419-0.168
			c-0.096-0.067-0.157-0.142-0.188-0.226c-0.032-0.078-0.045-0.153-0.045-0.221c0-0.111,0.031-0.197,0.101-0.252
			c0.067-0.057,0.152-0.084,0.259-0.084c0.105,0,0.187,0.018,0.233,0.053c0.053,0.039,0.091,0.082,0.119,0.137
			c0.027,0.052,0.051,0.111,0.072,0.177c0.019,0.062,0.051,0.123,0.096,0.176c0.045,0.056,0.107,0.101,0.188,0.136
			c0.083,0.034,0.198,0.055,0.35,0.055c0.298,0,0.521-0.09,0.676-0.268c0.152-0.183,0.23-0.462,0.23-0.841v-0.935
			c-0.031,0.125-0.078,0.242-0.137,0.361c-0.06,0.117-0.134,0.219-0.224,0.309c-0.091,0.091-0.197,0.164-0.318,0.222
			C355.731,30.473,355.586,30.502,355.422,30.502z M356.532,28.721c0-0.139-0.01-0.281-0.029-0.42
			c-0.018-0.139-0.054-0.264-0.107-0.373c-0.055-0.109-0.134-0.199-0.234-0.27c-0.104-0.07-0.241-0.105-0.41-0.105
			c-0.101,0-0.201,0.021-0.304,0.062c-0.105,0.043-0.196,0.113-0.278,0.211c-0.08,0.1-0.146,0.227-0.198,0.387
			c-0.05,0.158-0.073,0.355-0.073,0.594c0,0.164,0.016,0.328,0.044,0.48c0.03,0.154,0.077,0.285,0.14,0.402
			c0.062,0.108,0.144,0.199,0.245,0.268c0.098,0.064,0.218,0.102,0.353,0.102c0.133,0,0.256-0.037,0.36-0.113
			c0.105-0.069,0.194-0.17,0.27-0.286c0.071-0.121,0.127-0.261,0.166-0.423c0.04-0.155,0.061-0.321,0.061-0.489v-0.026H356.532z"/>
		<path fill="#FFFFFF" d="M361.874,30.551c-0.292-0.014-0.604-0.023-0.932-0.023c-0.331,0-0.643,0.011-0.936,0.023v-0.176
			l0.362-0.066c0.125-0.018,0.186-0.125,0.186-0.324v-1.422c0-0.137-0.006-0.258-0.021-0.367c-0.015-0.106-0.041-0.2-0.083-0.272
			c-0.043-0.071-0.104-0.129-0.183-0.168c-0.079-0.036-0.183-0.058-0.31-0.058c-0.152,0-0.306,0.041-0.46,0.125
			c-0.155,0.084-0.296,0.193-0.423,0.328v1.925c0,0.086,0.066,0.149,0.201,0.184l0.347,0.117v0.177
			c-0.099-0.013-0.194-0.019-0.292-0.019c-0.101-0.007-0.233-0.007-0.407-0.007h-0.27c-0.185,0-0.359,0-0.53,0.007
			c-0.166,0-0.299,0.006-0.395,0.019v-0.177l0.395-0.084c0.113-0.026,0.171-0.11,0.171-0.25v-1.666c0-0.172-0.035-0.289-0.105-0.351
			c-0.068-0.063-0.196-0.106-0.374-0.137v-0.15c0.09-0.02,0.187-0.051,0.289-0.088c0.104-0.039,0.204-0.084,0.304-0.145
			c0.098-0.061,0.188-0.127,0.275-0.203c0.086-0.08,0.157-0.17,0.206-0.279h0.187v0.789c0.185-0.192,0.387-0.35,0.608-0.467
			c0.22-0.113,0.429-0.172,0.625-0.172c0.325,0,0.576,0.098,0.761,0.285c0.184,0.195,0.271,0.48,0.271,0.865v1.633
			c0,0.105,0.015,0.186,0.045,0.238c0.025,0.053,0.081,0.09,0.167,0.113l0.318,0.065L361.874,30.551L361.874,30.551z"/>
	</g>
	<circle fill="#ED1E27" cx="330.83" cy="28.918" r="1.16"/>
	<g>
		<g>
			<defs>
				<rect id="SVGID_25_" x="223.947" y="9.186" width="55.993" height="20.931"/>
			</defs>
			<clipPath id="SVGID_26_">
				<use xlink:href="#SVGID_25_"  overflow="visible"/>
			</clipPath>
			<rect x="266.369" y="12.625" clip-path="url(#SVGID_26_)" fill="#FFFFFF" width="4.15" height="17.634"/>
		</g>
		<g>
			<defs>
				<rect id="SVGID_27_" x="223.947" y="9.186" width="55.993" height="20.931"/>
			</defs>
			<clipPath id="SVGID_28_">
				<use xlink:href="#SVGID_27_"  overflow="visible"/>
			</clipPath>
			<rect x="266.369" y="9.005" clip-path="url(#SVGID_28_)" fill="#FFFFFF" width="13.07" height="4.263"/>
		</g>
		<g>
			<defs>
				<rect id="SVGID_29_" x="223.947" y="9.186" width="55.993" height="20.931"/>
			</defs>
			<clipPath id="SVGID_30_">
				<use xlink:href="#SVGID_29_"  overflow="visible"/>
			</clipPath>
			<g id="XMLID_3_" clip-path="url(#SVGID_30_)">
				<g>
					<path fill="#FFFFFF" d="M261.229,15.394c0.174,3.767-1.389,6.351-4.557,7.323c-0.397,0.117-0.808,0.211-1.217,0.281l3.318,7.12
						l-3.692,0.101l-4.777-10.236v-0.012c0.778-0.021,1.546-0.042,2.324-0.075c0.712-0.031,1.444-0.087,2.142-0.247
						c2.089-0.554,3.129-1.965,3.025-4.02c-0.102-1.971-1.174-3.325-3.338-3.466c-2.532-0.156-5.086,0.08-7.744,0.152l-0.001-0.036
						l-1.446-3.093c3.714-0.137,7.301-0.483,10.86-0.19C259.419,9.285,261.07,11.781,261.229,15.394z"/>
				</g>
			</g>
		</g>
		<g>
			<defs>
				<rect id="SVGID_31_" x="223.947" y="9.186" width="55.993" height="20.931"/>
			</defs>
			<clipPath id="SVGID_32_">
				<use xlink:href="#SVGID_31_"  overflow="visible"/>
			</clipPath>
			
				<line clip-path="url(#SVGID_32_)" fill="none" stroke="#FFFFFF" stroke-width="0.5" stroke-miterlimit="10" x1="253.102" y1="30.537" x2="243.007" y2="9.005"/>
		</g>
		<g>
			<defs>
				<rect id="SVGID_33_" x="223.947" y="9.186" width="55.993" height="20.931"/>
			</defs>
			<clipPath id="SVGID_34_">
				<use xlink:href="#SVGID_33_"  overflow="visible"/>
			</clipPath>
			
				<line clip-path="url(#SVGID_34_)" fill="none" stroke="#FFFFFF" stroke-width="0.25" stroke-miterlimit="10" x1="236.701" y1="15.061" x2="229.596" y2="30.148"/>
		</g>
		<g>
			<defs>
				<rect id="SVGID_35_" x="223.947" y="9.186" width="55.993" height="20.931"/>
			</defs>
			<clipPath id="SVGID_36_">
				<use xlink:href="#SVGID_35_"  overflow="visible"/>
			</clipPath>
			
				<line clip-path="url(#SVGID_36_)" fill="none" stroke="#FFFFFF" stroke-width="0.25" stroke-miterlimit="10" x1="271.459" y1="12.102" x2="271.459" y2="30.273"/>
		</g>
		<g>
			<defs>
				<rect id="SVGID_37_" x="223.947" y="9.186" width="55.993" height="20.931"/>
			</defs>
			<clipPath id="SVGID_38_">
				<use xlink:href="#SVGID_37_"  overflow="visible"/>
			</clipPath>
			
				<line clip-path="url(#SVGID_38_)" fill="none" stroke="#FFFFFF" stroke-width="0.25" stroke-miterlimit="10" x1="254.234" y1="30.537" x2="244.139" y2="9.005"/>
		</g>
		<g>
			<defs>
				<rect id="SVGID_39_" x="223.947" y="9.186" width="55.993" height="20.931"/>
			</defs>
			<clipPath id="SVGID_40_">
				<use xlink:href="#SVGID_39_"  overflow="visible"/>
			</clipPath>
			
				<line clip-path="url(#SVGID_40_)" fill="none" stroke="#FFFFFF" stroke-width="0.5" stroke-miterlimit="10" x1="237.928" y1="15.172" x2="230.819" y2="30.26"/>
		</g>
		<g>
			<defs>
				<rect id="SVGID_41_" x="223.947" y="9.186" width="55.993" height="20.931"/>
			</defs>
			<clipPath id="SVGID_42_">
				<use xlink:href="#SVGID_41_"  overflow="visible"/>
			</clipPath>
			
				<line clip-path="url(#SVGID_42_)" fill="none" stroke="#FFFFFF" stroke-width="0.5" stroke-miterlimit="10" x1="272.631" y1="12.102" x2="272.631" y2="30.273"/>
		</g>
		<g>
			<defs>
				<rect id="SVGID_43_" x="223.947" y="9.186" width="55.993" height="20.931"/>
			</defs>
			<clipPath id="SVGID_44_">
				<use xlink:href="#SVGID_43_"  overflow="visible"/>
			</clipPath>
			<line clip-path="url(#SVGID_44_)" fill="none" x1="274.98" y1="30.168" x2="223.391" y2="30.168"/>
		</g>
	</g>
</g>
<g id="Layer_2">
	<polygon fill="#FFFFFF" points="237.229,9.186 233.959,9.186 224.188,30.117 228.563,30.168 235.521,15.375 242.521,30.117 
		247.042,30.117 	"/>
</g>
</svg>
